<?xml version="1.0" encoding="utf-8"?>
<svg version="1.1" xmlns:xlink="http://www.w3.org/1999/xlink" width="19px" height="18px" xmlns="http://www.w3.org/2000/svg">
  <g transform="matrix(1 0 0 1 -537 -3786 )">
    <path d="M 18.999925781249996 2.120650724085361  C 18.46955859375 3.0120331554878024  17.806451171875004 3.805921303353661  17.04693359375 4.446665396341466  C 17.058994140625 4.641653963414631  17.058994140625 4.8366854039634095  17.058994140625 5.031673971036588  C 17.058994140625 10.979082507621953  13.140875000000005 17.831893102134142  5.979693359375005 17.831893102134142  C 3.773466796875 17.831893102134142  1.7239902343750042 17.093654725609756  0 15.812295160060971  C 0.3134628906250043 15.854053925304884  0.6148281249999957 15.867987804878053  0.9403515625 15.867987804878053  C 2.7607519531249998 15.867987804878053  4.436537109374996 15.157660060975607  5.774738281249998 13.945884146341463  C 4.062808593750004 13.90408250762195  2.6281601562500043 12.608746189024396  2.1338632812500045 10.825895579268288  C 2.375 10.8676543445122  2.6160996093750044 10.895522103658541  2.869296875 10.895522103658541  C 3.218904296875002 10.895522103658541  3.5685488281249955 10.839786585365859  3.894035156249998 10.742335175304877  C 2.1097792968749958 10.32444740853659  0.7715410156250021 8.513771913109753  0.7715410156250021 6.327010289634144  L 0.7715410156250021 6.271317644817072  C 1.2899218749999999 6.605602134146347  1.892763671875 6.814524580792683  2.5316757812500046 6.842349466463412  C 1.4828164062499958 6.034484565548783  0.7956621093750023 4.655587842987802  0.7956621093750023 3.0955935594512143  C 0.7956621093750023 2.259903772865856  0.9885195312499957 1.4938405106707267  1.326103515625 0.8252715320121926  C 3.24298828125 3.555240091463412  6.124345703125 5.338047827743908  9.3552734375 5.533079268292686  C 9.295007812500002 5.198794778963412  9.258826171875002 4.85061928353658  9.258826171875002 4.5024009146341495  C 9.258826171875002 2.0231135670731657  10.994876953124997 0.0035156250000049913  13.152861328125 0.0035156250000049913  C 14.274046875000007 0.0035156250000049913  15.286724609375005 0.5467225609756148  15.998037109375002 1.4242139862804852  C 16.8780859375 1.2292254192073195  17.721990234375003 0.853139291158534  18.469484375000008 0.3378001143292658  C 18.180105468750003 1.3824552210365852  17.565277343750008 2.2599466463414686  16.757554687500004 2.8170445884146367  C 17.541193359375008 2.7195931783536538  18.300710937500003 2.4688262195121924  18.999925781249996 2.120650724085361  Z " fill-rule="nonzero" fill="#ffffff" stroke="none" fill-opacity="0.6980392156862745" transform="matrix(1 0 0 1 537 3786 )" />
  </g>
</svg>