<?xml version="1.0" encoding="utf-8"?>
<svg version="1.1" xmlns:xlink="http://www.w3.org/1999/xlink" width="13px" height="21px" xmlns="http://www.w3.org/2000/svg">
  <g transform="matrix(1 0 0 1 -594 -3785 )">
    <path d="M 7.693810096153847 20  L 3.45703125 20  L 3.45703125 11.0546875  L 0 11.0546875  L 0 7.5  L 3.45703125 7.5  L 3.45703125 4.69921875  C 3.45703125 1.65625  5.6024639423076925 0  8.734975961538462 0  C 10.235877403846153 0  11.524939903846153 0.09765625  11.899038461538462 0.140625  L 11.899038461538462 3.3203125  L 9.7265625 3.3203125  C 8.022836538461538 3.3203125  7.693810096153847 4.0234375  7.693810096153847 5.05078125  L 7.693810096153847 7.5  L 11.538461538461538 7.5  L 11.011117788461538 11.0546875  L 7.693810096153847 11.0546875  L 7.693810096153847 20  Z " fill-rule="nonzero" fill="#ffffff" stroke="none" fill-opacity="0.6980392156862745" transform="matrix(1 0 0 1 594 3785 )" />
  </g>
</svg>