<?xml version="1.0" encoding="utf-8"?>
<svg version="1.1" xmlns:xlink="http://www.w3.org/1999/xlink" width="16px" height="17px" xmlns="http://www.w3.org/2000/svg">
  <g transform="matrix(1 0 0 1 -646 -3787 )">
    <path d="M 3.574164810690427 5.63763919821827  L 3.574164810690427 16.962138084632524  L 0.2636971046770577 16.962138084632524  L 0.2636971046770577 5.63763919821827  L 3.574164810690427 5.63763919821827  Z M 3.8342984409799556 2.0369710467705966  C 3.8342984409799556 3.161469933184851  2.975501113585742 4.0928730512249505  1.9171492204899732 4.0928730512249505  C 0.8587973273942134 4.0928730512249505  0 3.161469933184851  0 2.0369710467705966  C 0 0.9124721603563422  0.8587973273942134 0  1.9171492204899732 0  C 2.975501113585742 0  3.8342984409799556 0.9124721603563422  3.8342984409799556 2.0369710467705966  Z M 15.967928730512249 16.962138084632524  L 15.96436525612473 16.962138084632524  L 12.661024498886418 16.962138084632524  L 12.661024498886418 11.449443207126958  C 12.661024498886418 10.135634743875288  12.636080178173724 8.450779510022267  10.93986636971047 8.450779510022267  C 9.218708240534525 8.450779510022267  8.955011135857458 9.8781737193764  8.955011135857458 11.35478841870825  L 8.955011135857458 16.962138084632524  L 5.648106904231627 16.962138084632524  L 5.648106904231627 5.63763919821827  L 8.823162583518933 5.63763919821827  L 8.823162583518933 7.18240534521159  L 8.869487750556791 7.18240534521159  C 9.31135857461025 6.292650334075726  10.391091314031183 5.353674832962146  12.00178173719376 5.353674832962146  C 15.351447661469939 5.353674832962146  15.967928730512249 7.697327394209363  15.967928730512249 10.74142538975501  L 15.967928730512249 16.962138084632524  Z " fill-rule="nonzero" fill="#ffffff" stroke="none" fill-opacity="0.6980392156862745" transform="matrix(1 0 0 1 646 3787 )" />
  </g>
</svg>