<?xml version="1.0" encoding="utf-8"?>
<svg version="1.1" xmlns:xlink="http://www.w3.org/1999/xlink" width="50px" height="38px" xmlns="http://www.w3.org/2000/svg">
  <g transform="matrix(1 0 0 1 -126 -1665 )">
    <path d="M 49.86744639376218 12.369395711500971  C 50.05165692007796 11.63157894736841  49.493177387914216 10.916179337231966  48.731968810916186 10.916179337231966  L 42.89668615984405 10.916179337231966  L 41.2748538011696 6.861598440545805  C 39.60818713450294 2.6929824561403564  35.63060428849903 0  31.140350877192986 0  L 18.76218323586744 0  C 14.272904483430807 0  10.294346978557513 2.6929824561403564  8.626705653021446 6.861598440545805  L 7.004873294346964 10.916179337231966  L 1.1705653021442401 10.916179337231966  C 0.40935672514621047 10.916179337231966  -0.1491228070175339 11.63157894736841  0.03606237816762814 12.369395711500971  L 0.6208576998050717 14.708576998050688  C 0.7504873294346908 15.229044834307985  1.2183235867446456 15.594541910331372  1.7553606237816834 15.594541910331372  L 3.7115009746588616 15.594541910331372  C 2.402534113060426 16.73781676413256  1.5594541910331259 18.399610136452225  1.5594541910331259 20.27290448343078  L 1.5594541910331259 24.95126705653021  C 1.5594541910331259 26.522417153996084  2.1598440545809012 27.940545808966846  3.11890838206628 29.03801169590642  L 3.11890838206628 34.307992202729025  C 3.11890838206628 36.030214424951254  4.515594541910332 37.426900584795305  6.23781676413256 37.426900584795305  L 9.35672514619884 37.426900584795305  C 11.07894736842104 37.426900584795305  12.47563352826512 36.030214424951254  12.47563352826512 34.307992202729025  L 12.47563352826512 31  L 37.426900584795305 31  L 37.426900584795305 34.307992202729025  C 37.426900584795305 36.030214424951254  38.823586744639385 37.426900584795305  40.545808966861614 37.426900584795305  L 43.664717348927866 37.426900584795305  C 45.386939571150094 37.426900584795305  46.783625730994146 36.030214424951254  46.783625730994146 34.307992202729025  L 46.783625730994146 29.03801169590642  C 47.742690058479525 27.941520467836256  48.3430799220273 26.523391812865498  48.3430799220273 24.95126705653021  L 48.3430799220273 20.27290448343078  C 48.3430799220273 18.399610136452225  47.5 16.73781676413256  46.192007797270946 15.594541910331372  L 48.14814814814815 15.594541910331372  C 48.68518518518519 15.594541910331372  49.15302144249512 15.229044834307985  49.282651072124764 14.708576998050688  L 49.86744639376218 12.369395711500971  Z M 12.47563352826512 14  L 14.418128654970758 9.178362573099406  C 15.12865497076024 7.402534113060426  16.848927875243675 6.23781676413256  18.76218323586744 6.23781676413256  L 31.140350877192986 6.23781676413256  C 33.05360623781678 6.23781676413256  34.77387914230019 7.402534113060426  35.48440545808967 9.178362573099406  L 37.426900584795305 14  L 12.47563352826512 14  Z M 14.035087719298248 23.377192982456137  C 14.035087719298248 25.242690058479525  11.228070175438603 24.9317738791423  9.35672514619884 24.9317738791423  C 7.485380116959078 24.9317738791423  6.23781676413256 23.688109161793363  6.23781676413256 21.82261208576998  C 6.23781676413256 19.957115009746587  7.485380116959078 18.713450292397653  9.35672514619884 18.713450292397653  C 11.228070175438603 18.713450292397653  14.035087719298248 21.51169590643275  14.035087719298248 23.377192982456137  Z M 43.664717348927866 21.82261208576998  C 43.664717348927866 23.688109161793363  42.417153996101376 24.93177387914227  40.545808966861614 24.9317738791423  C 38.67446393762182 24.9317738791423  35.86744639376218 25.242690058479525  35.86744639376218 23.377192982456137  C 35.86744639376218 21.51169590643275  38.67446393762182 18.713450292397653  40.545808966861614 18.713450292397653  C 42.417153996101376 18.713450292397653  43.664717348927866 19.957115009746587  43.664717348927866 21.82261208576998  Z " fill-rule="nonzero" fill="#f05f40" stroke="none" transform="matrix(1 0 0 1 126 1665 )" />
  </g>
</svg>