<?xml version="1.0" encoding="utf-8"?>
<svg version="1.1" xmlns:xlink="http://www.w3.org/1999/xlink" width="50px" height="40px" xmlns="http://www.w3.org/2000/svg">
  <g transform="matrix(1 0 0 1 -425 -1665 )">
    <path d="M 6.308411214953281 3.7383177570093267  C 6.308411214953281 5.80218068535828  7.98286604361371 7.47663551401871  10.046728971962608 7.47663551401871  C 12.110591900311533 7.47663551401871  13.785046728971965 5.80218068535828  13.785046728971965 3.7383177570093267  C 13.785046728971965 1.67445482866043  12.110591900311533 0  10.046728971962608 0  C 7.98286604361371 0  6.308411214953281 1.67445482866043  6.308411214953281 3.7383177570093267  Z M 36.21495327102804 3.7383177570093267  C 36.21495327102804 5.80218068535828  37.88940809968847 7.47663551401871  39.95327102803739 7.47663551401871  C 42.01713395638632 7.47663551401871  43.69158878504675 5.80218068535828  43.69158878504675 3.7383177570093267  C 43.69158878504675 1.67445482866043  42.01713395638632 0  39.95327102803739 0  C 37.88940809968847 0  36.21495327102804 1.67445482866043  36.21495327102804 3.7383177570093267  Z M 48.35669781931466 39.696261682243005  C 49.63395638629282 39.18224299065423  50.257009345794415 37.73364485981307  49.74299065420564 36.45638629283491  L 46.316199376947054 27.889408099688467  L 43.11526479750779 31.503115264797486  L 42.95950155763239 32.92056074766356  L 45.11682242990656 38.309968847352025  C 45.50623052959503 39.28348909657319  46.44080996884736 39.87538940809969  47.429906542056074 39.87538940809969  C 47.74143302180687 39.87538940809969  48.052959501557666 39.82087227414331  48.35669781931466 39.696261682243005  Z M 45.95794392523362 24.532710280373863  C 47.01713395638632 23.32554517133957  47.43769470404982 21.67445482866043  47.07943925233644 20.116822429906563  L 45.63862928348908 13.870716510903435  C 45.280373831775705 12.313084112149511  44.190031152647975 11.004672897196258  42.71806853582552 10.373831775700921  C 41.27725856697819 9.750778816199386  39.68068535825546 9.852024922118403  38.34890965732086 10.630841121495337  C 36.580996884735214 11.67445482866043  35.25700934579439 13.317757009345769  34.60280373831776 15.257009345794415  L 33.72274143302181 17.897196261682268  L 32.47663551401871 18.691588785046747  L 32.47663551401871 11.214953271028037  C 32.47663551401871 10.52959501557632  31.9158878504673 9.968847352024909  31.230529595015582 10  L 18.769470404984418 10  C 18.0841121495327 9.968847352024909  17.52336448598132 10.52959501557632  17.52336448598132 11.214953271028037  L 17.52336448598132 18.691588785046747  L 16.269470404984418 17.897196261682268  L 15.389408099688467 15.257009345794415  C 14.742990654205613 13.309968847352025  13.411214953271042 11.67445482866043  11.643302180685367 10.630841121495337  C 10.303738317757023 9.852024922118403  8.714953271028037 9.750778816199386  7.274143302180676 10.373831775700921  C 5.802180685358252 11.004672897196258  4.711838006230522 12.313084112149511  4.353582554517146 13.870716510903435  L 2.9205607476635578 20.116822429906563  C 2.5623052959501535 21.67445482866043  2.9750778816199386 23.32554517133957  4.04205607476635 24.532710280373863  L 9.275700934579447 30.443925233644848  L 10.062305295950154 37.6557632398754  C 10.202492211838006 38.925233644859816  11.27725856697819 39.87538940809969  12.538940809968835 39.87538940809969  C 12.63239875389408 39.87538940809969  12.718068535825552 39.86760124610589  12.811526479750768 39.85981308411215  C 14.182242990654203 39.71183800623055  15.163551401869144 38.48130841121497  15.015576323987545 37.11059190031153  L 14.22897196261681 29.883177570093437  C 14.112149532710278 28.870716510903435  13.691588785046719 27.928348909657302  13.014018691588774 27.15732087227417  L 9.641744548286596 23.341121495327116  L 11.01246105919003 17.866043613707177  L 11.54205607476635 19.454828660436135  C 11.861370716510919 20.428348909657302  12.468847352024937 21.27725856697822  13.450155763239877 21.99376947040497  L 17.429906542056074 24.52492211838006  C 17.788161993769478 24.750778816199386  18.372274143302178 24.883177570093437  18.769470404984418 25  L 31.230529595015582 25  C 31.62772585669782 24.883177570093437  32.21183800623052 24.750778816199386  32.570093457943926 24.52492211838006  L 36.54984423676012 21.99376947040497  C 37.53115264797509 21.27725856697822  38.13862928348908 20.436137071651103  38.45794392523365 19.454828660436135  L 38.98753894080997 17.866043613707177  L 40.358255451713404 23.341121495327116  L 36.985981308411226 27.15732087227417  C 36.30841121495328 27.928348909657302  35.887850467289724 28.870716510903435  35.77102803738319 29.883177570093437  L 34.984423676012455 37.11059190031153  C 34.83644859813086 38.48130841121497  35.82554517133957 39.71183800623055  37.188473520249204 39.85981308411215  C 37.28193146417445 39.86760124610595  37.36760124610592 39.87538940809969  37.461059190031165 39.87538940809969  C 38.71495327102804 39.87538940809969  39.797507788161994 38.93302180685362  39.93769470404985 37.6557632398754  L 40.72429906542055 30.443925233644848  L 45.95794392523362 24.532710280373863  Z M 6.884735202492209 31.503115264797543  L 3.6838006230529454 27.889408099688467  L 0.25700934579438695 36.45638629283491  C -0.25700934579438695 37.73364485981307  0.366043613707177 39.18224299065423  1.6433021806853674 39.696261682243005  C 2.9517133956386203 40.21028037383178  4.376947040498436 39.5638629283489  4.883177570093466 38.309968847352025  L 7.040498442367607 32.92056074766356  L 6.884735202492209 31.503115264797543  Z " fill-rule="nonzero" fill="#f05f40" stroke="none" transform="matrix(1 0 0 1 425 1665 )" />
  </g>
</svg>