<?xml version="1.0" encoding="utf-8"?>
<svg version="1.1" xmlns:xlink="http://www.w3.org/1999/xlink" width="44px" height="50px" xmlns="http://www.w3.org/2000/svg">
  <g transform="matrix(1 0 0 1 -729 -1653 )">
    <path d="M 43 26.5625  C 43.75 23.974609375  41.650390625 21.875  39.0625 21.875  L 36.71875 21.875  L 36.71875 14.84375  C 36.71875 6.66015625  30.05859375 0  21.875 0  C 13.69140625 0  7.03125 6.66015625  7.03125 14.84375  L 7.03125 21.875  L 4.6875 21.875  C 2.099609375 21.875  0 23.974609375  0 26.5625  L 0 45.3125  C 0 47.900390625  2.099609375 50  4.6875 50  L 39.0625 50  C 41.650390625 50  43.75 47.900390625  43 45.3125  L 43 26.5625  Z M 28.90625 14.84375  L 28.90625 22  L 14.84375 22  L 14.84375 14.84375  C 14.84375 10.966796875  17.998046875 7.8125  21.875 7.8125  C 25.751953125000004 7.8125  28.90625 10.966796875  28.90625 14.84375  Z " fill-rule="nonzero" fill="#f05f40" stroke="none" transform="matrix(1 0 0 1 729 1653 )" />
  </g>
</svg>