<?xml version="1.0" encoding="utf-8"?>
<svg version="1.1" xmlns:xlink="http://www.w3.org/1999/xlink" width="64px" height="43px" xmlns="http://www.w3.org/2000/svg">
  <g transform="matrix(1 0 0 1 -1019 -1660 )">
    <path d="M 63.98888888888891 37.52222222222222  C 64.00000000000003 36.63333333333333  63.35555555555557 35.81111111111111  62.455555555555556 35.71111111111111  C 60.06666666666666 35.44444444444444  57.77777777777777 34.544444444444444  56.022222222222226 33.166666666666664  C 54.455555555555556 31.93333333333333  52.22222222222223 31.91111111111111  50.66666666666667 33.166666666666664  C 46.45555555555556 36.544444444444444  38.75555555555556 36.544444444444444  34.47777777777778 33  C 32.97777777777778 31.75555555555555  30.811111111111117 31.988888888888887  29.288888888888895 33.2  C 25.066666666666674 36.544444444444444  17.41111111111112 36.53333333333333  13.155555555555566 33.01111111111111  C 11.655555555555566 31.766666666666673  9.455555555555565 32.022222222222226  7.922222222222232 33.233333333333334  C 6.200000000000011 34.58888888888889  3.9222222222222327 35.46666666666667  1.5111111111111215 35.72222222222222  C 0.6333333333333436 35.81111111111111  0 36.58888888888889  0 37.46666666666666  L 0 41.044444444444444  C 0 42.05555555555556  0.8444444444444548 42.91111111111111  1.855555555555566 42.822222222222216  C 5.055555555555566 42.544444444444444  8.0888888888889 41.55555555555556  10.67777777777779 39.94444444444444  C 16.955555555555566 43.78888888888889  25.90000000000001 43.733333333333334  32.01111111111113 39.94444444444444  C 38.2888888888889 43.78888888888889  47.23333333333335 43.733333333333334  53.344444444444456 39.94444444444444  C 55.933333333333344 41.52222222222222  59.00000000000001 42.53333333333333  62.13333333333335 42.81111111111111  C 63.14444444444446 42.9  63.98888888888891 42.044444444444444  63.98888888888891 41.03333333333333  L 63.98888888888891 37.52222222222222  Z M 63.98888888888891 21.52222222222222  C 64.00000000000003 20.633333333333333  63.35555555555557 19.81111111111111  62.455555555555556 19.71111111111111  C 60.06666666666666 19.444444444444443  57.77777777777777 18.54444444444444  56.022222222222226 17.166666666666664  C 54.455555555555556 15.93333333333333  52.22222222222223 15.911111111111108  50.66666666666667 17.166666666666664  C 46.45555555555556 20.54444444444444  38.75555555555556 20.54444444444444  34.47777777777778 16.999999999999996  C 32.97777777777778 15.755555555555553  30.811111111111117 15.988888888888887  29.288888888888895 17.2  C 25.066666666666674 20.54444444444444  17.41111111111112 20.53333333333333  13.155555555555566 17.01111111111111  C 11.655555555555566 15.766666666666671  9.455555555555565 16.022222222222222  7.922222222222232 17.233333333333334  C 6.200000000000011 18.58888888888889  3.9222222222222327 19.466666666666665  1.5111111111111215 19.72222222222222  C 0.6333333333333436 19.811111111111114  0 20.58888888888889  0 21.466666666666665  L 0 25.044444444444437  C 0 26.055555555555557  0.8444444444444548 26.91111111111111  1.855555555555566 26.82222222222222  C 5.055555555555566 26.544444444444444  8.0888888888889 25.555555555555554  10.67777777777779 23.944444444444443  C 16.955555555555566 27.78888888888889  25.90000000000001 27.733333333333334  32.01111111111113 23.944444444444443  C 38.2888888888889 27.78888888888889  47.23333333333335 27.733333333333334  53.344444444444456 23.944444444444443  C 55.933333333333344 25.52222222222222  59.00000000000001 26.53333333333333  62.13333333333335 26.81111111111111  C 63.14444444444446 26.90000000000001  63.98888888888891 26.04444444444445  63.98888888888891 25.033333333333328  L 63.98888888888891 21.52222222222222  Z M 63.988888888888894 5.522222222222227  C 64.00000000000001 4.633333333333336  63.355555555555554 3.8111111111111136  62.455555555555556 3.7111111111111104  C 60.06666666666666 3.4333333333333353  57.77777777777777 2.544444444444446  56.02222222222222 1.1666666666666679  C 54.455555555555556 -0.06666666666666554  52.22222222222222 -0.08888888888888768  50.666666666666664 1.1666666666666679  C 46.455555555555556 4.544444444444446  38.75555555555555 4.544444444444446  34.477777777777774 1  C 32.977777777777774 -0.24444444444444358  30.81111111111111 -0.011111111111110182  29.28888888888889 1.200000000000001  C 25.066666666666666 4.544444444444446  17.41111111111111 4.533333333333333  13.155555555555559 1.0111111111111128  C 11.655555555555559 -0.2333333333333334  9.45555555555556 0.02222222222222303  7.922222222222226 1.2333333333333343  C 6.200000000000004 2.5888888888888903  3.9222222222222265 3.466666666666667  1.511111111111115 3.722222222222223  C 0.6333333333333374 3.811111111111112  0 4.58888888888889  0 5.466666666666669  L 0 9.044444444444444  C 0 10.055555555555557  0.8444444444444485 10.911111111111115  1.8555555555555596 10.822222222222223  C 5.05555555555556 10.544444444444444  8.088888888888892 9.555555555555557  10.677777777777782 7.944444444444445  C 16.95555555555556 11.788888888888888  25.900000000000006 11.733333333333333  32.01111111111111 7.944444444444445  C 38.28888888888889 11.788888888888888  47.233333333333334 11.733333333333333  53.34444444444444 7.944444444444445  C 55.93333333333334 9.522222222222222  59 10.533333333333335  62.13333333333333 10.811111111111114  C 63.144444444444446 10.900000000000004  63.988888888888894 10.044444444444444  63.988888888888894 9.033333333333335  L 63.988888888888894 5.522222222222227  Z " fill-rule="nonzero" fill="#f05f40" stroke="none" transform="matrix(1 0 0 1 1019 1660 )" />
  </g>
</svg>