<?xml version="1.0" encoding="utf-8"?>
<svg version="1.1" xmlns:xlink="http://www.w3.org/1999/xlink" width="32px" height="50px" xmlns="http://www.w3.org/2000/svg">
  <g transform="matrix(1 0 0 1 -434 -1895 )">
    <path d="M 30.93193359374999 19.14306640625  C 31.83466796875001 17.58378906249999  30.70849609375 15.625  28.90361328124999 16  L 17.63398437500001 16  L 21.0146484375 2.9476562499999943  C 21.4111328125 1.4605468750000057  20.288671874999977 0  18.75 0  L 5.46875 0  C 4.294042968750006 0  3.30078125 0.8696289062499999  3.1456054687500057 2.0339843749999886  L 0.02099609375 25.471484374999985  C -0.16640624999999432 26.87666015625001  0.9281249999999943 28.125  2.3441406249999943 28  L 13.93603515625 28  L 9.438085937500006 47.115820312500006  C 9.0869140625 48.598535156249994  10.220605468749994 50  11.717968750000011 50  C 12.533398437500011 50  13.317187499999989 49.572851562500006  13.7470703125 48.83027343750001  L 30.93193359374999 19.14306640625  Z " fill-rule="nonzero" fill="#f05f40" stroke="none" transform="matrix(1 0 0 1 434 1895 )" />
  </g>
</svg>