<?xml version="1.0" encoding="utf-8"?>
<svg version="1.1" xmlns:xlink="http://www.w3.org/1999/xlink" width="34px" height="40px" xmlns="http://www.w3.org/2000/svg">
  <g transform="matrix(1 0 0 1 -24 -5 )">
    <path d="M 9.444444444444445 12.72727272727273  L 9.444444444444445 18.181818181818183  L 24.555555555555554 18.181818181818183  L 24.555555555555554 12.72727272727273  C 24.555555555555554 10.719696969696969  23.817708333333336 9.005681818181817  22.34201388888889 7.585227272727271  C 20.866319444444446 6.164772727272729  19.085648148148152 5.454545454545454  17 5.454545454545454  C 14.914351851851853 5.454545454545454  13.133680555555555 6.164772727272729  11.65798611111111 7.585227272727271  C 10.182291666666668 9.005681818181817  9.444444444444445 10.719696969696969  9.444444444444445 12.72727272727273  Z M 33.17361111111111 18.97727272727273  C 33.72453703703704 19.507575757575758  34 20.15151515151515  34 20.909090909090907  L 34 37.27272727272727  C 34 38.03030303030303  33.72453703703704 38.67424242424242  33.17361111111111 39.20454545454545  C 32.62268518518519 39.734848484848484  31.953703703703706 40  31.166666666666664 40  L 2.833333333333333 40  C 2.0462962962962967 40  1.377314814814815 39.734848484848484  0.826388888888889 39.20454545454545  C 0.27546296296296297 38.67424242424242  0 38.03030303030303  0 37.27272727272727  L 0 20.909090909090907  C 0 20.15151515151515  0.27546296296296297 19.507575757575758  0.826388888888889 18.97727272727273  C 1.377314814814815 18.446969696969695  2.0462962962962967 18.181818181818183  2.833333333333333 18.181818181818183  L 3.7777777777777777 18.181818181818183  L 3.7777777777777777 12.72727272727273  C 3.7777777777777777 9.242424242424239  5.076388888888888 6.25  7.673611111111112 3.75  C 10.270833333333332 1.25  13.37962962962963 0  17 0  C 20.62037037037037 0  23.729166666666664 1.25  26.32638888888889 3.75  C 28.92361111111111 6.25  30.22222222222222 9.242424242424239  30.22222222222222 12.72727272727273  L 30.22222222222222 18.181818181818183  L 31.166666666666664 18.181818181818183  C 31.953703703703706 18.181818181818183  32.62268518518519 18.446969696969695  33.17361111111111 18.97727272727273  Z " fill-rule="nonzero" fill="#a3a5ad" stroke="none" transform="matrix(1 0 0 1 24 5 )" />
  </g>
</svg>