<?xml version="1.0" encoding="utf-8"?>
<svg version="1.1" xmlns:xlink="http://www.w3.org/1999/xlink" width="27px" height="27px" xmlns="http://www.w3.org/2000/svg">
  <g transform="matrix(1 0 0 1 -54 -79 )">
    <path d="M 25.478236607142858 8.14602272727273  C 26.49274553571429 10.007386363636362  27 12.001704545454544  27 14.128977272727273  C 27 14.701704545454543  26.964843750000004 15.233522727272728  26.89453125 15.724431818181818  L 9.552455357142858 15.724431818181818  C 9.552455357142858 17.217613636363637  10.102399553571429 18.467897727272728  11.202287946428571 19.475284090909092  C 12.302176339285714 20.482670454545456  13.595424107142856 20.986363636363638  15.08203125 20.986363636363638  C 16.076450892857142 20.986363636363638  17.008091517857146 20.748579545454543  17.876953125 20.273011363636364  C 18.745814732142858 19.79744318181818  19.431361607142858 19.130113636363635  19.93359375 18.27102272727273  L 26.306919642857142 18.27102272727273  C 25.744419642857142 19.897159090909092  24.88811383928572 21.33409090909091  23.738002232142858 22.581818181818182  C 22.587890625000004 23.829545454545453  21.244419642857142 24.793465909090912  19.707589285714285 25.473579545454545  C 18.170758928571427 26.153693181818184  16.55859375 26.49375  14.87109375 26.49375  C 12.992745535714286 26.49375  11.20479910714286 26.069318181818183  9.507254464285714 25.220454545454544  C 7.217075892857143 26.406818181818185  5.238281250000001 27  3.5708705357142856 27  C 1.1902901785714286 27  0 25.65511363636364  0 22.96534090909091  C 0 21.78920454545454  0.22600446428571427 20.38295454545455  0.6780133928571429 18.74659090909091  C 0.8487723214285714 18.132954545454545  1.396205357142857 16.961931818181817  2.3203125 15.233522727272728  C 4.319196428571429 11.551704545454546  6.704799107142857 8.45284090909091  9.477120535714286 5.936931818181817  C 7.628906250000001 6.744886363636362  5.484375 8.555113636363634  3.0435267857142856 11.367613636363636  C 3.6763392857142856 8.565340909090907  5.100167410714286 6.266761363636363  7.3150111607142865 4.471875000000001  C 9.529854910714286 2.6769886363636357  12.04854910714286 1.7795454545454548  14.87109375 1.7795454545454548  C 15.172433035714286 1.7795454545454548  15.398437500000004 1.7846590909090896  15.549107142857142 1.794886363636365  C 18.110491071428573 0.598295454545456  20.28515625 0  22.073102678571427 0  C 22.715959821428573 0  23.29854910714286 0.06647727272727222  23.820870535714285 0.19943181818181965  C 24.343191964285715 0.3323863636363611  24.817801339285715 0.5394886363636343  25.244698660714285 0.8207386363636363  C 25.67159598214286 1.1019886363636353  26.005580357142858 1.4931818181818182  26.246651785714285 1.9943181818181817  C 26.487723214285715 2.495454545454542  26.608258928571427 3.0835227272727286  26.608258928571427 3.758522727272726  C 26.608258928571427 4.944886363636362  26.231584821428573 6.407386363636361  25.478236607142858 8.14602272727273  Z M 25.176897321428573 7.624431818181817  C 25.68917410714286 6.243749999999999  25.945312500000004 5.139204545454545  25.9453125 4.310795454545454  C 25.945312500000004 3.4619318181818173  25.67912946428572 2.7869318181818166  25.146763392857142 2.2857954545454557  C 24.614397321428573 1.7846590909090896  23.926339285714285 1.5340909090909078  23.082589285714285 1.5340909090909078  C 21.997767857142858 1.5340909090909078  20.72209821428572 1.8920454545454544  19.255580357142858 2.6079545454545445  C 20.470982142857142 3.0886363636363634  21.58844866071429 3.761079545454542  22.607979910714285 4.62528409090909  C 23.627511160714292 5.489488636363634  24.483816964285715 6.4892045454545455  25.176897321428573 7.624431818181817  Z M 3.4051339285714284 18.194318181818183  C 2.420758928571429 20.290909090909093  1.9285714285714284 21.988636363636363  1.9285714285714284 23.2875  C 1.9285714285714284 24.167045454545452  2.1721540178571432 24.844602272727272  2.6593191964285716 25.320170454545455  C 3.1464843750000004 25.795738636363637  3.8219866071428577 26.03352272727273  4.685825892857143 26.03352272727273  C 5.840959821428573 26.03352272727273  7.176897321428572 25.60909090909091  8.693638392857142 24.76022727272727  C 7.468191964285714 24.023863636363636  6.395926339285714 23.08806818181818  5.476841517857143 21.95284090909091  C 4.557756696428571 20.817613636363635  3.8671875000000004 19.564772727272725  3.4051339285714284 18.194318181818183  Z M 11.217354910714286 8.713636363636365  C 10.137555803571429 9.685227272727271  9.572544642857144 10.89715909090909  9.522321428571429 12.349431818181818  L 20.491071428571427 12.349431818181818  C 20.440848214285715 10.89715909090909  19.873325892857142 9.685227272727271  18.788504464285715 8.713636363636365  C 17.703683035714285 7.742045454545451  16.44308035714286 7.256250000000001  15.006696428571427 7.256250000000001  C 13.560267857142858 7.256250000000001  12.297154017857144 7.742045454545451  11.217354910714286 8.713636363636365  Z " fill-rule="nonzero" fill="#000000" stroke="none" transform="matrix(1 0 0 1 54 79 )" />
  </g>
</svg>