<?xml version="1.0" encoding="utf-8"?>
<svg version="1.1" xmlns:xlink="http://www.w3.org/1999/xlink" width="50px" height="50px" xmlns="http://www.w3.org/2000/svg">
  <g transform="matrix(1 0 0 1 -14 1 )">
    <path d="M 49.902723735408586 36.420233465484046  C 49.90175097276267 35.84241245391661  49.58268482490274 35.31225681199027  49.07295719844359 35.04377432176699  C 48.92120622568092 34.9640077848166  45.922178988326834 33.40077821311817  41.60408560311285 32.5330739331213  C 47.85408560311285 25.225680938349342  49.780155642023345 16.806420239500653  49.86575875486383 16.420233469143284  C 49.98054474708172 15.901750978965765  49.82295719844359 15.3599221852906  49.44747081712063 14.983463041390593  C 49.15272373540856 14.687743197086748  48.754863813229576 14.526264597894482  48.34630350194553 14.526264597894482  C 48.2354085603113 14.526264597894482  48.12354085603113 14.537937749643334  48.01167315175098 14.563229578432468  C 47.634241245136195 14.645914403320063  39.59338521400778 16.468871601430124  32.3910505836576 22.321984440826128  C 32.39202334630352 22.179961094548617  32.39202334630352 22.03696498562536  32.39202334630352 21.893968876702104  C 32.39202334630352 10.338521407999224  26.55739299610895 1.1040856120233968  26.309338521400775 0.7169260790203111  C 26.02378776024273 0.2702190883890694  25.530175791096894 -5.7301799557762934E-05  25 0  C 24.469844357976655 0  23.975680933852146 0.2704280246273072  23.68968871595331 0.7169260790203111  C 23.44163424124514 1.1040856120233968  17.607003891050596 10.338521407999224  17.607003891050596 21.893968876702104  C 17.607003891050596 22.03696498562536  17.607976653696483 22.179961094548617  17.607976653696483 22.321984440826128  C 10.406614785992218 16.46984436407584  2.365758754863805 14.646887165965808  1.9873540856031011 14.563229578432468  C 1.8764591439688731 14.53891051228905  1.7645914396887008 14.526264597894482  1.652723735408557 14.526264597894482  C 1.2441634241245083 14.526264597894482  0.8463035019455276 14.687743197086716  0.5515564202334531 14.983463041390593  C 0.17606296049152093 15.35960320972839  0.01867754029674984 15.901463968668168  0.13424124513619518 16.420233469143284  C 0.2198443579766547 16.806420239500653  2.14591439688715 25.225680938349342  8.39591439688715 32.5330739331213  C 4.077821011673166 33.40077821311817  1.0797665369649678 34.9640077848166  0.9270428015564108 35.04377432176699  C 0.4167137323695727 35.313334591518554  0.09740343543182917 35.843114925981695  0.09740343543182917 36.420261785793286  C 0.09740343543182917 36.996618303509166  0.4158481751136094 37.525808400733865  0.9250972762645802 37.7957198465553  C 1.1634241245136252 37.92120622785532  6.835603112840459 40.88132295883122  13.91050583657588 40.88132295883122  C 14.507782101167322 40.88132295883122  15.073929961089505 40.87159533237386  15.612840466926059 40.85116731681339  C 14.506809338521407 43.01361867828547  14.005836575875492 44.57782101262961  13.977626459143977 44.66634241339162  C 13.80252918287937 45.21887159616989  13.949416342412462 45.82295719917221  14.357976653696483 46.233463035673  C 14.767186516854025 46.64409073062291  15.37052004908341 46.793612519017586  15.924124513618665 46.62159533132183  C 16.10214007782102 46.56614786051483  19.59338521400778 45.45525291908385  23.44357976653697 42.79961089622344  L 23.44357976653697 49.02723735422799  C 23.44357976653697 49.45719844364348  23.79182879377433 49.805447470817114  24.221789883268485 49.805447470817114  L 25.778210116731515 49.805447470817114  C 26.20817120622567 49.805447470817114  26.55642023346303 49.45719844364348  26.55642023346303 49.02723735422799  L 26.55642023346303 42.800583658869186  C 30.40661478599222 45.45622568172959  33.89785992217898 46.56614786051483  34.075875486381335 46.62256809396757  C 34.62947995091662 46.79458528166333  35.232813483145975 46.64506349326865  35.64202334630352 46.234435798318714  C 36.05058365758754 45.82392996181795  36.19747081712063 45.219844358815635  36.02237354085605 44.66731517603736  C 35.99416342412451 44.57879377527536  35.49221789883268 43.014591440931184  34.38715953307394 40.85214007945913  C 34.926070038910495 40.8725680950196  35.49319066147859 40.882295721476964  36.08949416342412 40.882295721476964  C 43.163424124513625 40.882295721476964  48.8365758754864 37.92217899050104  49.07490272373542 37.796692609201045  C 49.58463035019457 37.526264593686335  49.9036964980545 36.99708171440571  49.902723735408586 36.420233465484046  Z " fill-rule="nonzero" fill="#222222" stroke="none" transform="matrix(1 0 0 1 14 -1 )" />
  </g>
</svg>