<?xml version="1.0" encoding="utf-8"?>
<svg version="1.1" xmlns:xlink="http://www.w3.org/1999/xlink" width="20px" height="16px" xmlns="http://www.w3.org/2000/svg">
  <g>
    <path d="M 20 0.9803921568627496  C 20 0.43892973856209744  19.626909722222216 0  19.166666666666675 0  L 3.888888888888891 0  C 3.1646527777777806 0  2.5471180555555577 0.5464460784313654  2.3177777777777804 1.3071895424836573  L 0.8333333333333315 1.3071895424836573  C 0.37309027777777715 1.3071895424836573  0 1.7461192810457546  0 2.287581699346407  L 0 13.398692810457506  C 0 14.66209150326797  0.8705555555555577 15.686274509803912  1.9444444444444455 15.686274509803912  L 19.166666666666675 15.686274509803912  C 19.626909722222216 15.686274509803912  20 15.247344771241815  20 14.705882352941163  L 20 0.9803921568627496  Z M 1.9444444444444455 13.725490196078427  C 1.791284722222224 13.725490196078427  1.6666666666666685 13.578880718954238  2 13.398692810457506  L 2 3.2679738562091427  L 2.2222222222222228 3.2679738562091427  L 2.2222222222222228 13.398692810457506  C 2.2222222222222228 13.578880718954238  2.0976041666666676 13.725490196078427  1.9444444444444455 13.725490196078427  Z M 18 2  L 18 13.725490196078427  L 3.8688194444444433 13.725490196078427  C 3.881805555555553 13.618709150326795  3.888888888888891 13.509681372549013  4 13.398692810457506  L 4 2  L 18 2  Z M 5.5555555555555545 8.333333333333325  C 5.5555555555555545 8.604044117647057  5.742118055555556 8.823529411764707  5.972222222222223 8.823529411764707  L 10.694444444444446 8.823529411764707  C 10.924548611111106 8.823529411764707  11.111111111111109 8.604044117647057  11.111111111111109 8.333333333333325  L 11.111111111111109 4.411764705882353  C 11.111111111111109 4.141053921568621  10.924548611111106 3.9215686274509713  10.694444444444446 3.9215686274509713  L 5.972222222222223 3.9215686274509713  C 5.742118055555556 3.9215686274509713  5.5555555555555545 4.141053921568621  5.5555555555555545 4.411764705882353  L 5.5555555555555545 8.333333333333325  Z M 6.9444444444444455 7.189542483660127  L 6.9444444444444455 5.55555555555555  L 9.722222222222223 5.55555555555555  L 9.722222222222223 7.189542483660127  L 6.9444444444444455 7.189542483660127  Z M 5.972222222222223 11.764705882352942  C 5.742118055555556 11.764705882352942  5.5555555555555545 11.545220588235292  5.5555555555555545 11.27450980392156  L 5.5555555555555545 10.294117647058824  C 5.5555555555555545 10.023406862745091  5.742118055555556 9.803921568627443  5.972222222222223 9.803921568627443  L 10.694444444444446 9.803921568627443  C 10.924548611111106 9.803921568627443  11.111111111111109 10.023406862745091  11.111111111111109 10.294117647058824  L 11.111111111111109 11.27450980392156  C 11.111111111111109 11.545220588235292  10.924548611111106 11.764705882352942  10.694444444444446 11.764705882352942  L 5.972222222222223 11.764705882352942  Z M 12.638888888888891 11.764705882352942  C 12.408784722222219 11.764705882352942  12.222222222222216 11.545220588235292  12.222222222222216 11.27450980392156  L 12.222222222222216 10.294117647058824  C 12.222222222222216 10.023406862745091  12.408784722222219 9.803921568627443  12.638888888888891 9.803921568627443  L 16.25 9.803921568627443  C 16.48010416666666 9.803921568627443  16.666666666666675 10.023406862745091  16.666666666666675 10.294117647058824  L 16.666666666666675 11.27450980392156  C 16.666666666666675 11.545220588235292  16.48010416666666 11.764705882352942  16.25 11.764705882352942  L 12.638888888888891 11.764705882352942  Z M 12.638888888888891 5.882352941176471  C 12.408784722222219 5.882352941176471  12.222222222222216 5.662867647058821  12.222222222222216 5.3921568627450895  L 12.222222222222216 4.411764705882353  C 12.222222222222216 4.141053921568621  12.408784722222219 3.9215686274509713  12.638888888888891 3.9215686274509713  L 16.25 3.9215686274509713  C 16.48010416666666 3.9215686274509713  16.666666666666675 4.141053921568621  16.666666666666675 4.411764705882353  L 16.666666666666675 5.3921568627450895  C 16.666666666666675 5.662867647058821  16.48010416666666 5.882352941176471  16.25 5.882352941176471  L 12.638888888888891 5.882352941176471  Z M 12.638888888888891 8.823529411764707  C 12.408784722222219 8.823529411764707  12.222222222222216 8.604044117647057  12.222222222222216 8.333333333333325  L 12.222222222222216 7.352941176470588  C 12.222222222222216 7.082230392156856  12.408784722222219 6.862745098039206  12.638888888888891 6.862745098039206  L 16.25 6.862745098039206  C 16.48010416666666 6.862745098039206  16.666666666666675 7.082230392156856  16.666666666666675 7.352941176470588  L 16.666666666666675 8.333333333333325  C 16.666666666666675 8.604044117647057  16.48010416666666 8.823529411764707  16.25 8.823529411764707  L 12.638888888888891 8.823529411764707  Z " fill-rule="nonzero" fill="#206cf5" stroke="none" />
  </g>
</svg>