<?xml version="1.0" encoding="utf-8"?>
<svg version="1.1" xmlns:xlink="http://www.w3.org/1999/xlink" width="43px" height="33px" xmlns="http://www.w3.org/2000/svg">
  <g transform="matrix(1 0 0 1 -13 -9 )">
    <path d="M 42.99253472222224 28.79612403100775  C 43.00000000000002 28.113953488372093  42.567013888888894 27.482945736434107  41.96232638888889 27.406201550387596  C 40.35729166666666 27.2015503875969  38.81944444444444 26.510852713178295  37.63993055555556 25.45348837209302  C 36.58732638888889 24.506976744186044  35.08680555555556 24.489922480620155  34.04166666666667 25.45348837209302  C 31.212326388888894 28.045736434108527  26.03888888888889 28.045736434108527  23.16475694444445 25.325581395348838  C 22.15694444444445 24.37054263565891  20.70121527777778 24.549612403100774  19.678472222222226 25.47906976744186  C 16.841666666666672 28.045736434108527  11.698090277777784 28.03720930232558  8.838888888888896 25.334108527131786  C 7.831076388888896 24.379069767441866  6.352951388888895 24.575193798449614  5.322743055555562 25.504651162790697  C 4.1656250000000075 26.544961240310077  2.635243055555563 27.218604651162792  1.0152777777777848 27.41472868217054  C 0.42552083333334023 27.482945736434107  0 28.07984496124031  0 28.75348837209302  L 0 31.499224806201553  C 0 32.275193798449614  0.5673611111111181 32.93178294573644  1.246701388888896 32.86356589147287  C 3.396701388888896 32.65038759689922  5.434722222222229 31.891472868217058  7.1741319444444525 30.65503875968992  C 11.392013888888895 33.60542635658915  17.401562500000008 33.562790697674416  21.50746527777779 30.65503875968992  C 25.72534722222223 33.60542635658915  31.734895833333344 33.562790697674416  35.84079861111112 30.65503875968992  C 37.58020833333334 31.865891472868213  39.64062500000001 32.64186046511628  41.745833333333344 32.85503875968992  C 42.42517361111112 32.92325581395349  42.99253472222224 32.266666666666666  42.99253472222224 31.490697674418605  L 42.99253472222224 28.79612403100775  Z M 42.99253472222224 16.51705426356589  C 43.00000000000002 15.834883720930232  42.567013888888894 15.203875968992248  41.96232638888889 15.127131782945733  C 40.35729166666666 14.922480620155039  38.81944444444444 14.231782945736432  37.63993055555556 13.17441860465116  C 36.58732638888889 12.227906976744183  35.08680555555556 12.210852713178292  34.04166666666667 13.17441860465116  C 31.212326388888894 15.766666666666664  26.03888888888889 15.766666666666664  23.16475694444445 13.046511627906975  C 22.15694444444445 12.091472868217052  20.70121527777778 12.270542635658913  19.678472222222226 13.2  C 16.841666666666672 15.766666666666664  11.698090277777784 15.75813953488372  8.838888888888896 13.055038759689921  C 7.831076388888896 12.100000000000003  6.352951388888895 12.296124031007752  5.322743055555562 13.225581395348836  C 4.1656250000000075 14.265891472868217  2.635243055555563 14.939534883720928  1.0152777777777848 15.135658914728682  C 0.42552083333334023 15.20387596899225  0 15.800775193798449  0 16.474418604651163  L 0 19.220155038759685  C 0 19.996124031007753  0.5673611111111181 20.652713178294572  1.246701388888896 20.584496124031006  C 3.396701388888896 20.371317829457364  5.434722222222229 19.612403100775193  7.1741319444444525 18.375968992248062  C 11.392013888888895 21.326356589147288  17.401562500000008 21.28372093023256  21.50746527777779 18.375968992248062  C 25.72534722222223 21.326356589147288  31.734895833333344 21.28372093023256  35.84079861111112 18.375968992248062  C 37.58020833333334 19.586821705426352  39.64062500000001 20.362790697674416  41.745833333333344 20.57596899224806  C 42.42517361111112 20.644186046511635  42.99253472222224 19.987596899224812  42.99253472222224 19.21162790697674  L 42.99253472222224 16.51705426356589  Z M 42.992534722222224 4.237984496124034  C 43.00000000000001 3.5558139534883746  42.56701388888889 2.9248062015503895  41.96232638888889 2.848062015503875  C 40.35729166666666 2.634883720930234  38.81944444444444 1.9527131782945748  37.63993055555555 0.8953488372093032  C 36.58732638888889 -0.05116279069767355  35.08680555555556 -0.06821705426356497  34.041666666666664 0.8953488372093032  C 31.21232638888889 3.4875968992248074  26.038888888888888 3.4875968992248074  23.16475694444444 0.7674418604651163  C 22.15694444444444 -0.18759689922480552  20.701215277777777 -0.008527131782945023  19.678472222222226 0.9209302325581403  C 16.841666666666665 3.4875968992248074  11.698090277777778 3.4790697674418603  8.83888888888889 0.7759689922480634  C 7.831076388888891 -0.1790697674418605  6.352951388888892 0.017054263565892094  5.322743055555558 0.9465116279069774  C 4.165625000000002 1.9868217054263577  2.6352430555555584 2.66046511627907  1.0152777777777804 2.8565891472868223  C 0.42552083333333607 2.924806201550388  0 3.5217054263565903  0 4.195348837209304  L 0 6.941085271317829  C 0 7.717054263565893  0.5673611111111139 8.373643410852717  1.2467013888888916 8.305426356589148  C 3.396701388888892 8.092248062015504  5.4347222222222245 7.333333333333335  7.174131944444448 6.096899224806202  C 11.392013888888892 9.047286821705425  17.401562500000004 9.004651162790697  21.50746527777778 6.096899224806202  C 25.725347222222226 9.047286821705425  31.734895833333333 9.004651162790697  35.84079861111111 6.096899224806202  C 37.58020833333334 7.307751937984497  39.640625 8.083720930232559  41.74583333333333 8.296899224806204  C 42.42517361111111 8.36511627906977  42.992534722222224 7.708527131782946  42.992534722222224 6.932558139534885  L 42.992534722222224 4.237984496124034  Z " fill-rule="nonzero" fill="#dad4d0" stroke="none" transform="matrix(1 0 0 1 13 9 )" />
  </g>
</svg>