<?xml version="1.0" encoding="utf-8"?>
<svg version="1.1" xmlns:xlink="http://www.w3.org/1999/xlink" width="20px" height="16px" xmlns="http://www.w3.org/2000/svg">
  <g>
    <path d="M 2.8571428571428568 5.333333333333334  L 2.8571428571428568 13.333333333333334  L 17.142857142857142 13.333333333333334  L 17.142857142857142 5.333333333333334  L 2.8571428571428568 5.333333333333334  Z M 19.475446428571427 0.4895833333333339  C 19.82514880952381 0.8159722222222214  20 1.208333333333334  20 1.666666666666666  L 20 14.333333333333334  C 20 14.791666666666666  19.82514880952381 15.184027777777779  19.475446428571427 15.510416666666666  C 19.12574404761905 15.836805555555555  18.705357142857146 16  18.214285714285715 16  L 1.7857142857142858 16  C 1.2946428571428572 16  0.8742559523809524 15.836805555555555  0.5245535714285714 15.510416666666666  C 0.17485119047619047 15.184027777777779  0 14.791666666666666  0 14.333333333333334  L 0 1.666666666666666  C 0 1.208333333333334  0.17485119047619047 0.8159722222222214  0.5245535714285714 0.4895833333333339  C 0.8742559523809524 0.16319444444444287  1.2946428571428572 0  1.7857142857142858 0  L 18.214285714285715 0  C 18.705357142857146 0  19.12574404761905 0.16319444444444287  19.475446428571427 0.4895833333333339  Z " fill-rule="nonzero" fill="#206cf5" stroke="none" />
  </g>
</svg>