<?xml version="1.0" encoding="utf-8"?>
<svg version="1.1" xmlns:xlink="http://www.w3.org/1999/xlink" width="20px" height="30px" xmlns="http://www.w3.org/2000/svg">
  <g transform="matrix(1 0 0 1 -447 -353 )">
    <path d="M 13.53515625 13.53515625  C 14.51171875 12.558593749999998  15 11.380208333333334  15 10.000000000000002  C 15 8.619791666666664  14.51171875 7.44140625  13.53515625 6.464843749999999  C 12.55859375 5.488281250000001  11.380208333333336 4.999999999999999  10 4.999999999999999  C 8.619791666666668 4.999999999999999  7.44140625 5.488281250000001  6.46484375 6.464843749999999  C 5.48828125 7.44140625  5 8.619791666666664  5 10.000000000000002  C 5 11.380208333333334  5.48828125 12.558593749999998  6.46484375 13.53515625  C 7.44140625 14.511718750000002  8.619791666666668 15  10 15  C 11.380208333333336 15  12.55859375 14.511718750000002  13.53515625 13.53515625  Z M 17.0703125 2.9296875  C 19.0234375 4.882812499999999  20 7.2395833333333295  20 10.000000000000002  C 20 11.419270833333332  19.78515625 12.584635416666666  19.35546875 13.496093749999998  L 12.24609375 28.61328125  C 12.037760416666668 29.04296875  11.728515625 29.381510416666664  11.318359375 29.62890625  C 10.908203125 29.876302083333336  10.46875 30  10 30  C 9.53125 30  9.091796875 29.876302083333336  8.681640625 29.62890625  C 8.271484375 29.381510416666664  7.96875 29.04296875  7.7734375 28.61328125  L 0.64453125 13.496093749999998  C 0.21484375 12.584635416666666  0 11.419270833333332  0 10.000000000000002  C 0 7.2395833333333295  0.9765625 4.882812499999999  2.9296875 2.9296875  C 4.882812500000001 0.9765625000000011  7.239583333333334 0  10 0  C 12.760416666666668 0  15.1171875 0.9765625000000011  17.0703125 2.9296875  Z " fill-rule="nonzero" fill="#ff3d3d" stroke="none" transform="matrix(1 0 0 1 447 353 )" />
  </g>
</svg>