<?xml version="1.0" encoding="utf-8"?>
<svg version="1.1" xmlns:xlink="http://www.w3.org/1999/xlink" width="20px" height="15px" xmlns="http://www.w3.org/2000/svg">
  <g transform="matrix(1 0 0 1 -595 -238 )">
    <path d="M 10 10.514937106918248  C 11.111509433962262 10.514937106918248  12.012578616352199 11.453550838574435  12.012578616352199 12.611373165618456  C 12.012578616352199 13.769195492662476  11.111509433962262 14.70780922431866  10 14.70780922431866  C 8.88849056603774 14.70780922431866  7.987421383647803 13.769195492662476  7.987421383647803 12.611373165618456  C 7.987421383647803 11.453550838574435  8.88849056603774 10.514937106918248  10 10.514937106918248  Z M 15.240660377358495 9.648945230607968  L 16.31003144654087 8.535017033542971  C 16.51333333333332 8.323244234800834  16.50641509433963 7.976022012578621  16.29229559748428 7.776139937106923  C 12.713899371069193 4.4354363207547225  7.282044025157234 4.4392361111111  3.707704402515719 7.776139937106923  C 3.4935849056603727 7.976022012578621  3.486666666666679 8.323244234800834  3.6899685534591296 8.535017033542971  L 4.759339622641505 9.648945230607968  C 4.945723270440249 9.84309486373166  5.2456289308176105 9.855968291404622  5.443899371069188 9.67501965408805  C 8.050188679245275 7.296580188679252  11.95566037735848 7.301886792452828  14.556100628930812 9.67501965408805  C 14.754371069182389 9.855968291404622  15.054276729559753 9.843127620545076  15.240660377358495 9.648945230607968  Z M 18.76735849056604 5.922595649895186  L 19.83550314465408 4.809977725366869  C 20.036289308176105 4.600825471698116  20.032169811320752 4.259139150943389  19.82449685534591 4.05745545073375  C 14.297201257861637 -1.310075995807125  5.700786163522002 -1.3081105870021048  0.17553459119496892 4.05745545073375  C -0.032138364779871156 4.259139150943389  -0.03625786163522662 4.600858228511531  0.16452830188679854 4.809977725366869  L 1.232641509433961 5.922595649895186  C 1.424308176100635 6.1222484276729485  1.7323584905660483 6.126703354297689  1.9315094339622645 5.935141509433967  C 6.483805031446536 1.5566037735849154  13.515031446540888 1.55549004192873  18.068490566037735 5.935141509433967  C 18.26764150943395 6.126703354297689  18.575691823899366 6.1222484276729485  18.76735849056604 5.922595649895186  Z " fill-rule="nonzero" fill="#3166fc" stroke="none" transform="matrix(1 0 0 1 595 238 )" />
  </g>
</svg>