<?xml version="1.0" encoding="utf-8"?>
<svg version="1.1" xmlns:xlink="http://www.w3.org/1999/xlink" width="20px" height="20px" xmlns="http://www.w3.org/2000/svg">
  <g>
    <path d="M 5.546875 0.044642857142858094  C 5.598958333333334 0.014880952380953438  5.654761904761906 0  5.7142857142857135 0  C 5.811011904761906 0  5.894717261904763 0.03534226190476275  5.9654017857142865 0.10602678571428603  C 6.03608630952381 0.1767113095238093  6.071428571428571 0.2604166666666652  6 0.3571428571428581  L 6 16.785714285714285  C 6.071428571428571 16.93452380952381  6.008184523809525 17.038690476190478  5.881696428571429 17.098214285714285  L 0.5245535714285714 19.955357142857142  C 0.47247023809523814 19.985119047619047  0.41666666666666674 20  0.3571428571428571 20  C 0.2604166666666667 20  0.17671130952380953 19.964657738095237  0.10602678571428573 19.893973214285715  C 0.035342261904761904 19.82328869047619  0 19.739583333333336  0 19.642857142857142  L 0 3.214285714285714  C 0 3.0654761904761885  0.06324404761904762 2.9613095238095233  0.18973214285714285 2.901785714285714  L 5.546875 0.044642857142858094  Z M 19.475446428571427 0.044642857142858094  C 19.527529761904766 0.014880952380953438  19.583333333333336 0  19.642857142857142 0  C 19.739583333333336 0  19.823288690476193 0.03534226190476275  19.893973214285715 0.10602678571428603  C 19.96465773809524 0.1767113095238093  20 0.2604166666666652  20 0.3571428571428581  L 20 16.785714285714285  C 20 16.93452380952381  19.936755952380953 17.038690476190478  19.810267857142858 17.098214285714285  L 14.453125 19.955357142857142  C 14.401041666666668 19.985119047619047  14.345238095238098 20  14.285714285714286 20  C 14.188988095238098 20  14.105282738095239 19.964657738095237  14.034598214285714 19.893973214285715  C 13.96391369047619 19.82328869047619  13.928571428571427 19.739583333333336  14 19.642857142857142  L 14 3.214285714285714  C 13.928571428571427 3.0654761904761885  13.991815476190476 2.9613095238095233  14.118303571428573 2.901785714285714  L 19.475446428571427 0.044642857142858094  Z M 6.891741071428571 0.10602678571428603  C 6.962425595238095 0.03534226190476275  7.0461309523809526 0  7.142857142857143 0  C 7.2023809523809526 0  7.2544642857142865 0.011160714285713969  7.299107142857143 0.033482142857141906  L 13.013392857142858 2.890625  C 13.147321428571427 2.9650297619047605  13.214285714285714 3.072916666666665  13 3.214285714285714  L 13 19.642857142857142  C 13.214285714285714 19.739583333333336  13.178943452380953 19.82328869047619  13.108258928571427 19.893973214285715  C 13.037574404761905 19.964657738095237  12.95386904761905 20  12.857142857142858 20  C 12.79761904761905 20  12.745535714285714 19.988839285714285  12.700892857142858 19.966517857142858  L 6.986607142857143 17.109375  C 6.852678571428571 17.034970238095237  6.7857142857142865 16.927083333333336  7 16.785714285714285  L 7 0.3571428571428581  C 6.7857142857142865 0.2604166666666652  6.821056547619049 0.1767113095238093  6.891741071428571 0.10602678571428603  Z " fill-rule="nonzero" fill="#d4d4d4" stroke="none" />
  </g>
</svg>