<?xml version="1.0" encoding="utf-8"?>
<svg version="1.1" xmlns:xlink="http://www.w3.org/1999/xlink" width="20px" height="16px" xmlns="http://www.w3.org/2000/svg">
  <g>
    <path d="M 8.774038461538462 9.15909090909091  C 9.07852564102564 9.446969696969695  9.230769230769232 9.787878787878787  9.230769230769232 10.181818181818182  L 9.230769230769232 14.545454545454545  C 9.230769230769232 14.939393939393941  9.07852564102564 15.280303030303031  8.774038461538462 15.568181818181818  C 8.469551282051283 15.856060606060606  8.10897435897436 16  7.6923076923076925 16  L 1.5384615384615385 16  C 1.121794871794872 16  0.7612179487179488 15.856060606060606  0.4567307692307692 15.568181818181818  C 0.15224358974358973 15.280303030303031  0 14.939393939393941  0 14.545454545454545  L 0 10.181818181818182  C 0 9.787878787878787  0.15224358974358973 9.446969696969695  0.4567307692307692 9.15909090909091  C 0.7612179487179488 8.871212121212121  1.121794871794872 8.727272727272727  1.5384615384615385 8.727272727272727  L 7.6923076923076925 8.727272727272727  C 8.10897435897436 8.727272727272727  8.469551282051283 8.871212121212121  8.774038461538462 9.15909090909091  Z M 8.774038461538462 0.43181818181818166  C 9.07852564102564 0.7196969696969688  9.230769230769232 1.0606060606060606  9.230769230769232 1.454545454545455  L 9.230769230769232 5.818181818181818  C 9.230769230769232 6.212121212121211  9.07852564102564 6.553030303030303  8.774038461538462 6.840909090909092  C 8.469551282051283 7.128787878787879  8.10897435897436 7.272727272727273  7.6923076923076925 7.272727272727273  L 1.5384615384615385 7.272727272727273  C 1.121794871794872 7.272727272727273  0.7612179487179488 7.128787878787879  0.4567307692307692 6.840909090909092  C 0.15224358974358973 6.553030303030303  0 6.212121212121211  0 5.818181818181818  L 0 1.454545454545455  C 0 1.0606060606060606  0.15224358974358973 0.7196969696969688  0.4567307692307692 0.43181818181818166  C 0.7612179487179488 0.1439393939393927  1.121794871794872 0  1.5384615384615385 0  L 7.6923076923076925 0  C 8.10897435897436 0  8.469551282051283 0.1439393939393927  8.774038461538462 0.43181818181818166  Z M 19.54326923076923 9.15909090909091  C 19.847756410256412 9.446969696969695  20 9.787878787878787  20 10.181818181818182  L 20 14.545454545454545  C 20 14.939393939393941  19.847756410256412 15.280303030303031  19.54326923076923 15.568181818181818  C 19.23878205128205 15.856060606060606  18.87820512820513 16  18.461538461538463 16  L 12.307692307692308 16  C 11.891025641025642 16  11.53044871794872 15.856060606060606  11.225961538461537 15.568181818181818  C 10.92147435897436 15.280303030303031  10.769230769230768 14.939393939393941  10.769230769230768 14.545454545454545  L 10.769230769230768 10.181818181818182  C 10.769230769230768 9.787878787878787  10.92147435897436 9.446969696969695  11.225961538461537 9.15909090909091  C 11.53044871794872 8.871212121212121  11.891025641025642 8.727272727272727  12.307692307692308 8.727272727272727  L 18.461538461538463 8.727272727272727  C 18.87820512820513 8.727272727272727  19.23878205128205 8.871212121212121  19.54326923076923 9.15909090909091  Z M 19.54326923076923 0.43181818181818166  C 19.847756410256412 0.7196969696969688  20 1.0606060606060606  20 1.454545454545455  L 20 5.818181818181818  C 20 6.212121212121211  19.847756410256412 6.553030303030303  19.54326923076923 6.840909090909092  C 19.23878205128205 7.128787878787879  18.87820512820513 7.272727272727273  18.461538461538463 7.272727272727273  L 12.307692307692308 7.272727272727273  C 11.891025641025642 7.272727272727273  11.53044871794872 7.128787878787879  11.225961538461537 6.840909090909092  C 10.92147435897436 6.553030303030303  10.769230769230768 6.212121212121211  10.769230769230768 5.818181818181818  L 10.769230769230768 1.454545454545455  C 10.769230769230768 1.0606060606060606  10.92147435897436 0.7196969696969688  11.225961538461537 0.43181818181818166  C 11.53044871794872 0.1439393939393927  11.891025641025642 0  12.307692307692308 0  L 18.461538461538463 0  C 18.87820512820513 0  19.23878205128205 0.1439393939393927  19.54326923076923 0.43181818181818166  Z " fill-rule="nonzero" fill="#d4d4d4" stroke="none" />
  </g>
</svg>