<?xml version="1.0" encoding="utf-8"?>
<svg version="1.1" xmlns:xlink="http://www.w3.org/1999/xlink" width="50px" height="38px" xmlns="http://www.w3.org/2000/svg">
  <g transform="matrix(1 0 0 1 -77 -33 )">
    <path d="M 24.0966796875 27.448567708333336  C 24.698893229166668 26.747612847222214  25 25.86935763888889  25 24.813802083333336  C 25 23.758246527777775  24.9267578125 22.78927951388889  24.7802734375 21.906901041666664  C 24.6337890625 21.02452256944444  24.393717447916668 20.175130208333336  24.06005859375 19.358723958333336  C 23.726399739583336 18.542317708333332  23.234049479166668 17.899088541666668  22.5830078125 17.429036458333332  C 21.931966145833336 16.958984375  21.142578125000004 16.723958333333332  20.21484375 16.723958333333332  C 20.117187500000004 16.789930555555557  19.873046875000004 16.938368055555557  19.482421875 17.169270833333332  C 19.091796875000004 17.400173611111107  18.786621093750004 17.577473958333332  18.56689453125 17.701171875  C 18.34716796875 17.824869791666668  18.058268229166668 17.969184027777775  17.7001953125 18.134114583333332  C 17.342122395833336 18.29904513888889  16.9921875 18.418619791666668  16.650390625 18.492838541666668  C 16.30859375 18.567057291666668  15.966796875 18.604166666666668  15.625 18.604166666666668  C 15.283203125 18.604166666666668  14.94140625 18.567057291666668  14.599609375 18.492838541666668  C 14.2578125 18.418619791666668  13.907877604166668 18.29904513888889  13.5498046875 18.134114583333332  C 13.191731770833334 17.969184027777775  12.90283203125 17.824869791666668  12.68310546875 17.701171875  C 12.46337890625 17.577473958333332  12.158203125 17.400173611111107  11.767578125 17.169270833333332  C 11.376953125 16.938368055555557  11.1328125 16.789930555555557  11.03515625 16.723958333333332  C 10.107421875 16.723958333333332  9.318033854166668 16.958984375  8.6669921875 17.429036458333332  C 8.015950520833334 17.899088541666668  7.523600260416667 18.542317708333332  7.18994140625 19.358723958333336  C 6.856282552083334 20.175130208333336  6.6162109375 21.02452256944444  6.4697265625 21.906901041666664  C 6.3232421875 22.78927951388889  6.25 23.758246527777775  6.25 24.813802083333336  C 6.25 25.86935763888889  6.551106770833334 26.747612847222214  7.1533203125 27.448567708333336  C 7.755533854166667 28.14952256944444  8.49609375 28.5  9.375 28  L 21.875 28  C 22.75390625 28.5  23.494466145833336 28.14952256944444  24.0966796875 27.448567708333336  Z M 19.54345703125 15.919921875  C 20.625813802083336 14.823133680555552  21.166992187500004 13.49956597222222  21.1669921875 11.94921875  C 21.166992187500004 10.398871527777775  20.625813802083336 9.075303819444445  19.54345703125 7.978515625  C 18.461100260416668 6.881727430555552  17.154947916666668 6.333333333333332  15.625 6.333333333333332  C 14.095052083333334 6.333333333333332  12.788899739583334 6.881727430555552  11.70654296875 7.978515625  C 10.624186197916668 9.075303819444445  10.0830078125 10.398871527777775  10.0830078125 11.94921875  C 10.0830078125 13.49956597222222  10.624186197916668 14.823133680555552  11.70654296875 15.919921875  C 12.788899739583334 17.016710069444443  14.095052083333334 17.565104166666668  15.625 17.565104166666668  C 17.154947916666668 17.565104166666668  18.461100260416668 17.016710069444443  19.54345703125 15.919921875  Z M 43.5302734375 25.110677083333336  C 43.6767578125 24.962239583333336  43.75 24.77256944444444  43.75 24.541666666666664  L 43.75 22.958333333333336  C 43.75 22.72743055555555  43.6767578125 22.537760416666664  43.5302734375 22.389322916666664  C 43.3837890625 22.240885416666664  43.196614583333336 22.166666666666664  42.96875 22  L 28.90625 22  C 28.678385416666668 22.166666666666664  28.4912109375 22.240885416666664  28.3447265625 22.389322916666664  C 28.1982421875 22.537760416666664  28.125 22.72743055555555  28.125 22.958333333333336  L 28.125 24.541666666666664  C 28.125 24.77256944444444  28.1982421875 24.962239583333336  28.3447265625 25.110677083333336  C 28.4912109375 25.259114583333336  28.678385416666668 25.333333333333336  28.90625 25  L 42.96875 25  C 43.196614583333336 25.333333333333336  43.3837890625 25.259114583333336  43.5302734375 25.110677083333336  Z M 43.49365234375 18.740234375  C 43.66455078125 18.567057291666668  43.75 18.356770833333332  43.75 18.109375  L 43.75 16.723958333333332  C 43.75 16.4765625  43.66455078125 16.266276041666668  43.49365234375 16.093098958333332  C 43.32275390625 15.919921875  43.115234375 15.833333333333332  42.87109375 16  L 29.00390625 16  C 28.759765625 15.833333333333332  28.55224609375 15.919921875  28.38134765625 16.093098958333332  C 28.21044921875 16.266276041666668  28.125 16.4765625  28.125 16.723958333333332  L 28.125 18.109375  C 28.125 18.356770833333332  28.21044921875 18.567057291666668  28.38134765625 18.740234375  C 28.55224609375 18.913411458333332  28.759765625 19  29.00390625 19  L 42.87109375 19  C 43.115234375 19  43.32275390625 18.913411458333332  43.49365234375 18.740234375  Z M 43.5302734375 12.444010416666668  C 43.6767578125 12.295572916666668  43.75 12.105902777777775  43.75 11.875  L 43.75 10.291666666666668  C 43.75 10.060763888888884  43.6767578125 9.87109375  43.5302734375 9.72265625  C 43.3837890625 9.57421875  43.196614583333336 9.5  42.96875 10  L 28.90625 10  C 28.678385416666668 9.5  28.4912109375 9.57421875  28.3447265625 9.72265625  C 28.1982421875 9.87109375  28.125 10.060763888888884  28.125 10.291666666666668  L 28.125 11.875  C 28.125 12.105902777777775  28.1982421875 12.295572916666668  28.3447265625 12.444010416666668  C 28.4912109375 12.592447916666668  28.678385416666668 12.666666666666668  28.90625 13  L 42.96875 13  C 43.196614583333336 12.666666666666668  43.3837890625 12.592447916666668  43.5302734375 12.444010416666668  Z M 48.8525390625 1.162760416666668  C 49.617513020833336 1.937934027777776  50 2.869791666666668  50 3.958333333333332  L 50 34.04166666666667  C 50 35.13020833333333  49.617513020833336 36.06206597222222  48.8525390625 36.83723958333333  C 48.08756510416667 37.61241319444444  47.16796875 38  46.09375 38  L 37.5 38  L 37.5 35.625  C 37.5 35.39409722222222  37.4267578125 35.20442708333333  37.2802734375 35.05598958333333  C 37.1337890625 34.90755208333333  36.946614583333336 34.83333333333333  36.71875 34.83333333333333  L 35.15625 34.83333333333333  C 34.92838541666667 34.83333333333333  34.7412109375 34.90755208333333  34.5947265625 35.05598958333333  C 34.4482421875 35.20442708333333  34.375 35.39409722222222  34.375 35.625  L 34.375 38  L 15.625 38  L 15.625 35.625  C 15.625 35.39409722222222  15.5517578125 35.20442708333333  15.4052734375 35.05598958333333  C 15.2587890625 34.90755208333333  15.071614583333334 34.83333333333333  14.84375 34.83333333333333  L 13.28125 34.83333333333333  C 13.053385416666668 34.83333333333333  12.8662109375 34.90755208333333  12.7197265625 35.05598958333333  C 12.5732421875 35.20442708333333  12.5 35.39409722222222  12.5 35.625  L 12.5 38  L 3.90625 38  C 2.83203125 38  1.9124348958333335 37.61241319444444  1.1474609375 36.83723958333333  C 0.38248697916666663 36.06206597222222  0 35.13020833333333  0 34.04166666666667  L 0 3.958333333333332  C 0 2.869791666666668  0.38248697916666663 1.937934027777776  1.1474609375 1.162760416666668  C 1.9124348958333335 0.3875868055555518  2.83203125 0  3.90625 0  L 46.09375 0  C 47.16796875 0  48.08756510416667 0.3875868055555518  48.8525390625 1.162760416666668  Z " fill-rule="nonzero" fill="#000000" stroke="none" transform="matrix(1 0 0 1 77 33 )" />
  </g>
</svg>