<?xml version="1.0" encoding="utf-8"?>
<svg version="1.1" xmlns:xlink="http://www.w3.org/1999/xlink" width="33px" height="50px" xmlns="http://www.w3.org/2000/svg">
  <g transform="matrix(1 0 0 1 -85 -21 )">
    <path d="M 22.51025390625 11.653645833333332  C 23.31591796875 12.47829861111111  23.71875 13.45486111111111  23.71875 14.583333333333332  C 23.71875 14.865451388888884  23.61669921875 15.109592013888884  23.41259765625 15.315755208333332  C 23.208496093750004 15.521918402777773  22.966796875000004 15.625  22.6875 15.625  C 22.408203125 15.625  22.16650390625 15.521918402777773  21.96240234375 15.315755208333332  C 21.758300781250004 15.109592013888884  21.65625 14.865451388888884  21.65625 14.583333333333332  C 21.65625 13.585069444444443  21.076171875 12.814670138888884  19.916015625 12.272135416666668  C 18.755859375 11.729600694444443  17.617187500000004 11.458333333333332  16.5 11.458333333333332  C 16.220703125 11.458333333333332  15.979003906250002 11.35525173611111  15.77490234375 11.149088541666668  C 15.570800781250002 10.942925347222216  15.468750000000002 10.698784722222216  15.46875 10.416666666666668  C 15.468750000000002 10.13454861111111  15.570800781250002 9.89040798611111  15.77490234375 9.684244791666668  C 15.979003906250002 9.478081597222216  16.220703125 9.375  16.5 9.375  C 17.57421875 9.375  18.64306640625 9.54861111111111  19.70654296875 9.895833333333332  C 20.77001953125 10.243055555555552  21.70458984375 10.828993055555552  22.51025390625 11.653645833333332  Z M 26.68359375 20.442708333333332  C 28.14453125 18.72829861111111  28.875 16.77517361111111  28.875 14.583333333333332  C 28.875 13.020833333333332  28.50439453125 11.566840277777773  27.76318359375 10.221354166666668  C 27.02197265625 8.875868055555552  26.05517578125 7.774522569444442  24.86279296875 6.917317708333331  C 23.67041015625 6.060112847222215  22.34912109375 5.387369791666669  20.89892578125 4.899088541666669  C 19.44873046875 4.410807291666669  17.982421875 4.166666666666669  16.5 4.166666666666669  C 15.017578125 4.166666666666669  13.55126953125 4.410807291666669  12.10107421875 4.899088541666669  C 10.65087890625 5.387369791666669  9.32958984375 6.060112847222215  8.13720703125 6.917317708333331  C 6.94482421875 7.774522569444442  5.97802734375 8.875868055555552  5.23681640625 10.221354166666668  C 4.49560546875 11.566840277777773  4.125 13.020833333333332  4.125 14.583333333333332  C 4.125 16.77517361111111  4.855468750000001 18.72829861111111  6.31640625 20.442708333333332  C 6.531250000000001 20.68142361111111  6.85888671875 21.039496527777775  7.29931640625 21.516927083333332  C 7.739746093750001 21.99435763888889  8.0673828125 22.352430555555554  8.2822265625 22.591145833333332  C 11.032226562500002 25.911458333333336  12.546875000000002 29.14496527777778  12.826171875 32.291666666666664  L 20.173828125 32.291666666666664  C 20.453125000000004 29.14496527777778  21.967773437500004 25.911458333333336  24.7177734375 22.591145833333332  C 24.932617187500004 22.352430555555554  25.260253906250004 21.99435763888889  25.70068359375 21.516927083333332  C 26.141113281250004 21.039496527777775  26.46875 20.68142361111111  26.68359375 20.442708333333332  Z M 31.56591796875 8.577473958333332  C 32.52197265625 10.432942708333332  33 12.434895833333332  33 14.583333333333332  C 33 17.94704861111111  31.893554687500004 20.85503472222222  29.6806640625 23.307291666666668  C 28.713867187500004 24.37065972222222  27.913574218750004 25.314670138888886  27.27978515625 26.139322916666664  C 26.64599609375 26.963975694444443  26.0068359375 28.000217013888886  25.3623046875 29.248046875  C 24.7177734375 30.495876736111104  24.352539062500004 31.662326388888886  24.2666015625 32.747395833333336  C 25.2763671875 33.35503472222222  25.78125 34.244791666666664  25.78125 35.416666666666664  C 25.78125 36.21961805555555  25.512695312500004 36.9140625  24.9755859375 37.5  C 25.512695312500004 38.0859375  25.78125 38.78038194444444  25.78125 39.58333333333333  C 25.78125 40.71180555555556  25.2978515625 41.59071180555556  24.3310546875 42.22005208333333  C 24.6103515625 42.71918402777777  24.75 43.22916666666667  24.75 43.75  C 24.75 44.74826388888889  24.41162109375 45.51866319444444  23.73486328125 46.06119791666667  C 23.05810546875 46.60373263888889  22.225585937500004 46.875  21.2373046875 46.875  C 20.807617187500004 47.82986111111111  20.163085937500004 48.58940972222223  19.3037109375 49.15364583333333  C 18.4443359375 49.71788194444444  17.509765625 50  16.5 50  C 15.490234375000002 50  14.555664062500002 49.71788194444444  13.6962890625 49.15364583333333  C 12.836914062500002 48.58940972222223  12.192382812500002 47.82986111111111  11.7626953125 46.875  C 10.774414062500002 46.875  9.94189453125 46.60373263888889  9.26513671875 46.06119791666667  C 8.58837890625 45.51866319444444  8.25 44.74826388888889  8.25 43.75  C 8.25 43.22916666666667  8.389648437500002 42.71918402777777  8.6689453125 42.22005208333333  C 7.7021484375 41.59071180555556  7.21875 40.71180555555556  7.21875 39.58333333333333  C 7.21875 38.78038194444444  7.4873046875 38.0859375  8.0244140625 37.5  C 7.4873046875 36.9140625  7.21875 36.21961805555555  7.21875 35.416666666666664  C 7.21875 34.244791666666664  7.723632812500001 33.35503472222222  8.7333984375 32.747395833333336  C 8.647460937500002 31.662326388888886  8.2822265625 30.495876736111104  7.6376953125 29.248046875  C 6.993164062500001 28.000217013888886  6.354003906250001 26.963975694444443  5.72021484375 26.139322916666664  C 5.08642578125 25.314670138888886  4.2861328125 24.37065972222222  3.3193359375 23.307291666666668  C 1.1064453124999998 20.85503472222222  0 17.94704861111111  0 14.583333333333332  C 0 12.434895833333332  0.47802734374999994 10.432942708333332  1.43408203125 8.577473958333332  C 2.39013671875 6.722005208333331  3.64697265625 5.181206597222215  5.20458984375 3.955078125  C 6.762207031250001 2.7289496527777732  8.52392578125 1.7632378472222154  10.48974609375 1.0579427083333315  C 12.455566406250002 0.352647569444442  14.458984375000002 0  16.5 0  C 18.541015625 0  20.54443359375 0.352647569444442  22.51025390625 1.0579427083333315  C 24.47607421875 1.7632378472222154  26.237792968750004 2.7289496527777732  27.79541015625 3.955078125  C 29.35302734375 5.181206597222215  30.60986328125 6.722005208333331  31.56591796875 8.577473958333332  Z " fill-rule="nonzero" fill="#000000" stroke="none" transform="matrix(1 0 0 1 85 21 )" />
  </g>
</svg>