<?xml version="1.0" encoding="utf-8"?>
<svg version="1.1" xmlns:xlink="http://www.w3.org/1999/xlink" width="50px" height="34px" xmlns="http://www.w3.org/2000/svg">
  <g transform="matrix(1 0 0 1 -69 -37 )">
    <path d="M 50 2.083333333333343  C 50 0.9327256944444571  49.06727430555554 0  47.916666666666686 0  L 9.722222222222229 0  C 7.911631944444451 0  6.367795138888894 1.1611979166666515  5.794444444444451 2.7777777777777715  L 2.0833333333333286 2.7777777777777715  C 0.9327256944444428 2.7777777777777715  0 3.7105034722222285  0 4.861111111111114  L 0 28.4722222222222  C 0 31.156944444444434  2.1763888888888943 33.333333333333314  4.861111111111114 33  L 47.916666666666686 33  C 49.06727430555554 33.333333333333314  50 32.40060763888886  50 31.24999999999997  L 50 2.083333333333343  Z M 4.861111111111114 29.166666666666657  C 4.47821180555556 29.166666666666657  4.166666666666671 28.855121527777754  5 28.4722222222222  L 5 6.944444444444429  L 6 6.944444444444429  L 6 28.4722222222222  C 5.555555555555557 28.855121527777754  5.244010416666669 29.166666666666657  4.861111111111114 29.166666666666657  Z M 45 4.166666666666657  L 45 29  L 9.672048611111109 29  C 9.704513888888883 28.93975694444444  9.722222222222229 28.70807291666665  10 28.4722222222222  L 10 4.166666666666657  L 45 4.166666666666657  Z M 13.888888888888888 17.708333333333314  C 13.888888888888888 18.283593749999994  14.355295138888891 18.75  14.930555555555557 18.75  L 26.736111111111114 18.75  C 27.311371527777766 18.75  27.777777777777775 18.283593749999994  27.777777777777775 17.708333333333314  L 27.777777777777775 9.375  C 27.777777777777775 8.79973958333332  27.311371527777766 8.333333333333314  26.736111111111114 9  L 14.930555555555557 9  C 14.355295138888891 8.333333333333314  13.888888888888888 8.79973958333332  13.888888888888888 9.375  L 13.888888888888888 17.708333333333314  Z M 17.361111111111114 15.277777777777771  L 17.361111111111114 11.805555555555543  L 24.305555555555557 11.805555555555543  L 24.305555555555557 15.277777777777771  L 17.361111111111114 15.277777777777771  Z M 14.930555555555557 25  C 14.355295138888891 25  13.888888888888888 24.533593749999994  13.888888888888888 23.958333333333314  L 13.888888888888888 21.875  C 13.888888888888888 21.29973958333332  14.355295138888891 20.833333333333314  14.930555555555557 20.833333333333314  L 26.736111111111114 20.833333333333314  C 27.311371527777766 20.833333333333314  27.777777777777775 21.29973958333332  27.777777777777775 21.875  L 27.777777777777775 23.958333333333314  C 27.777777777777775 24.533593749999994  27.311371527777766 25  26.736111111111114 25  L 14.930555555555557 25  Z M 31.597222222222225 25  C 31.02196180555555 25  30.555555555555543 24.533593749999994  30.555555555555543 23.958333333333314  L 30.555555555555543 21.875  C 30.555555555555543 21.29973958333332  31.02196180555555 20.833333333333314  31.597222222222225 20.833333333333314  L 40.625 20.833333333333314  C 41.20026041666665 20.833333333333314  41.666666666666686 21.29973958333332  41.666666666666686 21.875  L 41.666666666666686 23.958333333333314  C 41.666666666666686 24.533593749999994  41.20026041666665 25  40.625 25  L 31.597222222222225 25  Z M 31.597222222222225 12.5  C 31.02196180555555 12.5  30.555555555555543 12.033593749999994  30.555555555555543 11.458333333333314  L 30.555555555555543 9.375  C 30.555555555555543 8.79973958333332  31.02196180555555 8.333333333333314  31.597222222222225 8.333333333333314  L 40.625 8.333333333333314  C 41.20026041666665 8.333333333333314  41.666666666666686 8.79973958333332  41.666666666666686 9.375  L 41.666666666666686 11.458333333333314  C 41.666666666666686 12.033593749999994  41.20026041666665 12.5  40.625 12.5  L 31.597222222222225 12.5  Z M 31.597222222222225 18.75  C 31.02196180555555 18.75  30.555555555555543 18.283593749999994  30.555555555555543 17.708333333333314  L 30.555555555555543 15.625  C 30.555555555555543 15.04973958333332  31.02196180555555 14.583333333333314  31.597222222222225 14.583333333333314  L 40.625 14.583333333333314  C 41.20026041666665 14.583333333333314  41.666666666666686 15.04973958333332  41.666666666666686 15.625  L 41.666666666666686 17.708333333333314  C 41.666666666666686 18.283593749999994  41.20026041666665 18.75  40.625 18.75  L 31.597222222222225 18.75  Z " fill-rule="nonzero" fill="#000000" stroke="none" transform="matrix(1 0 0 1 69 37 )" />
  </g>
</svg>