<?xml version="1.0" encoding="utf-8"?>
<svg version="1.1" xmlns:xlink="http://www.w3.org/1999/xlink" width="27px" height="20px" xmlns="http://www.w3.org/2000/svg">
  <defs>
    <linearGradient gradientUnits="userSpaceOnUse" x1="13.5" y1="0" x2="13.5" y2="20" id="LinearGradient1337">
      <stop id="Stop1338" stop-color="#f73d3d" offset="0" />
      <stop id="Stop1339" stop-color="#000000" offset="1" />
    </linearGradient>
  </defs>
  <g>
    <path d="M 1.35 8.75  C 0.60328125 8.75  0 9.30859375  0 10  L 0 15  C 0 15.69140625  0.60328125 16.25  1.35 16.25  L 2.7 16.25  L 2.7 8.75  L 1.35 8.75  Z M 23 6.875  C 22.95 5.1484375  21.4396875 3.75  19.575 3.75  L 14.850000000000001 3.75  L 14.850000000000001 1.25  C 14.850000000000001 0.55859375  14.246718750000001 0  13.5 0  C 12.75328125 0  12.15 0.55859375  12.15 1.25  L 12.15 3.75  L 7.425000000000001 3.75  C 5.5603125 3.75  4.05 5.1484375  4 6.875  L 4 17.5  C 4.05 18.87890625  5.26078125 20  6.75 20  L 20.25 20  C 21.73921875 20  22.95 18.87890625  23 17.5  L 23 6.875  Z M 10.8 15  L 10.8 16.25  L 8.1 16.25  L 8.1 15  L 10.8 15  Z M 11.1375 10  C 11.1375 10.86328125  10.38234375 11.5625  9.45 11.5625  C 8.51765625 11.5625  7.762499999999999 10.86328125  7.762499999999999 10  C 7.762499999999999 9.13671875  8.51765625 8.4375  9.45 8.4375  C 10.38234375 8.4375  11.1375 9.13671875  11.1375 10  Z M 14.850000000000001 15  L 14.850000000000001 16.25  L 12.15 16.25  L 12.15 15  L 14.850000000000001 15  Z M 18.9 15  L 18.9 16.25  L 16.2 16.25  L 16.2 15  L 18.9 15  Z M 19.2375 10  C 19.2375 10.86328125  18.482343750000002 11.5625  17.55 11.5625  C 16.61765625 11.5625  15.8625 10.86328125  15.8625 10  C 15.8625 9.13671875  16.61765625 8.4375  17.55 8.4375  C 18.482343750000002 8.4375  19.2375 9.13671875  19.2375 10  Z M 27 10  C 27 9.30859375  26.39671875 8.75  25.65 8.75  L 24.3 8.75  L 24.3 16.25  L 25.65 16.25  C 26.39671875 16.25  27 15.69140625  27 15  L 27 10  Z " fill-rule="nonzero" fill="url(#LinearGradient1337)" stroke="none" />
  </g>
</svg>