<?xml version="1.0" encoding="utf-8"?>
<svg version="1.1" xmlns:xlink="http://www.w3.org/1999/xlink" width="567px" height="182px" xmlns="http://www.w3.org/2000/svg">
  <g transform="matrix(1 0 0 1 -567 -307 )">
    <path d="M 567.5 311  A 3.5 3.5 0 0 1 571 307.5 L 1130 307.5  A 3.5 3.5 0 0 1 1133.5 311 L 1133.5 485  A 3.5 3.5 0 0 1 1130 488.5 L 571 488.5  A 3.5 3.5 0 0 1 567.5 485 L 567.5 311  Z " fill-rule="nonzero" fill="#ffffff" stroke="none" />
    <path d="M 567.5 311  A 3.5 3.5 0 0 1 571 307.5 L 1130 307.5  A 3.5 3.5 0 0 1 1133.5 311 L 1133.5 485  A 3.5 3.5 0 0 1 1130 488.5 L 571 488.5  A 3.5 3.5 0 0 1 567.5 485 L 567.5 311  Z " stroke-width="1" stroke="#cccccc" fill="none" />
  </g>
</svg>