<?xml version="1.0" encoding="utf-8"?>
<svg version="1.1" xmlns:xlink="http://www.w3.org/1999/xlink" width="20px" height="21px" xmlns="http://www.w3.org/2000/svg">
  <g transform="matrix(1 0 0 1 -389 -327 )">
    <path d="M 15 9.19275  L 15 11.809000000000001  L 11.249166666666666 11.809000000000001  L 11.249166666666666 15.7325  L 8.749166666666666 15.7325  L 8.749166666666666 11.809000000000001  L 5 11.809000000000001  L 5 9.19275  L 8.75 9.19275  L 8.75 5.268375000000001  L 11.250833333333333 5.268375000000001  L 11.250833333333333 9.19275  L 15 9.19275  Z M 20 2.652125  C 19.9925 1.206625  18.87666666666667 0.038500000000000034  17.5 0  L 2.5 0  C 1.1233333333333335 0.037625  0.006666666666666666 1.206625  0 2.652125  L 0 18.349625  C 0.006666666666666666 19.793374999999997  1.1233333333333335 20.962375  2.5 21  L 17.5 21  C 18.875833333333333 20.962375  19.9925 19.793374999999997  20 18.349625  L 20 2.652125  Z " fill-rule="nonzero" fill="#797979" stroke="none" transform="matrix(1 0 0 1 389 327 )" />
  </g>
</svg>