<?xml version="1.0" encoding="utf-8"?>
<svg version="1.1" xmlns:xlink="http://www.w3.org/1999/xlink" width="38px" height="50px" xmlns="http://www.w3.org/2000/svg">
  <g transform="matrix(1 0 0 1 -42 -57 )">
    <path d="M 24.21875 16  C 22.929687500000004 15.625  21.875 14.570312499999998  21.875 13.28125  L 21.875 0  L 2.34375 0  C 1.044921875 0  0 1.044921875  0 2.34375  L 0 47.65625  C 0 48.955078125  1.044921875 50  2.34375 50  L 35.15625 50  C 36.455078125 50  37.5 48.955078125  37 47.65625  L 37 16  L 24.21875 16  Z M 29.338867187499996 31.704101562499996  C 30.330078125 32.6875  29.634765625 34.3759765625  28.240234375 34.3759765625  L 21.875 34.3759765625  L 21.875 42.1884765625  C 21.875 43.0517578125  21.17578125 43.7509765625  20.3125 43.7509765625  L 17.1875 43.7509765625  C 16.32421875 43.7509765625  15.624999999999998 43.0517578125  15.624999999999998 42.1884765625  L 15.624999999999998 34.3759765625  L 9.259765625 34.3759765625  C 7.865234375 34.3759765625  7.1689453125 32.6875  8.1591796875 31.704101562499996  L 17.5751953125 22.3583984375  C 18.224609375 21.712890625  19.2734375 21.712890625  19.9228515625 22.3583984375  L 29.338867187499996 31.704101562499996  Z M 37.5 11.904296875  C 37.5 11.2890625  37.255859375 10.693359375  36.81640625 10.25390625  L 27.255859375 0.68359375  C 26.81640625 0.244140625  26.220703125 0  25.595703125 0  L 25 0  L 25 13  L 37.5 13  L 37.5 11.904296875  Z " fill-rule="nonzero" fill="#000000" stroke="none" transform="matrix(1 0 0 1 42 57 )" />
  </g>
</svg>