<?xml version="1.0" encoding="utf-8"?>
<svg version="1.1" xmlns:xlink="http://www.w3.org/1999/xlink" width="29px" height="29px" xmlns="http://www.w3.org/2000/svg">
  <g transform="matrix(1 0 0 1 -57 -184 )">
    <path d="M 29 14.858875000000001  C 29 6.851250000000001  22.507624999999997 0.3588750000000007  14.5 0.35887499999999994  C 6.4887500000000005 0.35887499999999994  0 6.851249999999999  0 14.858875000000001  C 0 21.26666666666667  4.15425 26.700541666666666  9.914375 28.615750000000002  C 10.639375 28.752291666666668  10.905208333333333 28.304000000000002  10.905208333333333 27.91854166666667  C 10.905208333333333 27.574166666666674  10.893125000000001 26.661875000000006  10.887083333333333 25.453541666666673  C 6.853666666666666 26.328375000000005  6.003 23.508125000000007  6.003 23.508125000000007  C 5.34325 21.834583333333335  4.389875 21.3875  4.389875 21.3875  C 3.0764166666666672 20.488500000000002  4.491375000000001 20.506625  4.491375000000001 20.506625  C 5.947416666666667 20.608124999999998  6.712291666666666 22.000125  6.712291666666666 22.000125  C 8.005208333333334 24.21741666666667  10.1065 23.577  10.935416666666669 23.206041666666668  C 11.065916666666668 22.268375000000002  11.439291666666668 21.62916666666667  11.85375 21.26666666666667  C 8.633541666666668 20.904166666666665  5.2490000000000006 19.65716666666667  5.2490000000000006 14.101250000000002  C 5.2490000000000006 12.518333333333334  5.810875 11.22541666666667  6.741291666666667 10.210416666666667  C 6.578166666666667 9.844291666666667  6.088791666666667 8.370125000000002  6.868166666666668 6.372750000000001  C 6.868166666666668 6.372750000000001  8.082541666666668 5.983666666666668  10.855666666666668 7.859000000000002  C 12.01566666666667 7.5363750000000005  13.24816666666667 7.376875000000002  14.480666666666668 7.369625000000001  C 15.713166666666668 7.376875000000002  16.945666666666668 7.5363750000000005  18.105666666666668 7.859000000000002  C 20.86066666666667 5.983666666666669  22.075041666666667 6.372750000000001  22.075041666666667 6.372750000000001  C 22.85441666666667 8.370125000000002  22.365041666666666 9.844291666666669  22.22004166666667 10.210416666666667  C 23.14441666666667 11.225416666666668  23.706291666666672 12.518333333333334  23.706291666666672 14.101250000000002  C 23.706291666666672 19.671666666666667  20.31691666666667 20.898125  17.09066666666667 21.254583333333336  C 17.59816666666667 21.68958333333334  18.069416666666672 22.57891666666667  18.069416666666672 23.937083333333337  C 18.069416666666672 25.877666666666673  18.05129166666667 27.43641666666667  18.05129166666667 27.90766666666667  C 18.05129166666667 28.288291666666673  18.30504166666667 28.741416666666673  19.04816666666667 28.596416666666673  C 24.849375000000002 26.694499999999998  29 21.256999999999998  29 14.858875000000001  Z " fill-rule="nonzero" fill="#181717" stroke="none" transform="matrix(1 0 0 1 57 184 )" />
  </g>
</svg>