<?xml version="1.0" encoding="utf-8"?>
<svg version="1.1" xmlns:xlink="http://www.w3.org/1999/xlink" width="25px" height="25px" xmlns="http://www.w3.org/2000/svg">
  <g transform="matrix(1 0 0 1 -57 -135 )">
    <path d="M 25 1.8024553571428612  C 25 0.8091517857142776  24.19642857142857 0  23.214285714285722 0  L 1.7801339285714306 0  C 0.7979910714285695 0  0 0.8091517857142776  0 1.8024553571428612  L 0 23.19754464285714  C 0 24.190848214285722  0.7979910714285695 25  1.7801339285714306 25  L 23.214285714285722 25  C 24.19642857142857 25  25 24.190848214285722  25 23.19754464285714  L 25 1.8024553571428612  Z M 8 21.428571428571416  L 7.555803571428569 21.428571428571416  L 4 21.428571428571416  L 4 9.497767857142861  L 8 9.497767857142861  L 8 21.428571428571416  Z M 7.851562500000001 5.719866071428584  C 7.851562500000001 6.908482142857139  6.891741071428569 7.868303571428584  5.703125 7.868303571428584  C 4.514508928571431 7.868303571428584  3.5546875 6.902901785714278  3.5546875 5.719866071428584  C 3.5546875 4.536830357142861  4.514508928571431 3.5714285714285836  5.703125 3.5714285714285836  C 6.886160714285708 3.5714285714285836  7.851562500000001 4.536830357142861  7.851562500000001 5.719866071428584  Z M 21.4453125 14.888392857142863  L 21.4453125 21.428571428571416  L 17.73995535714286 21.428571428571416  L 17.73995535714286 15.625  C 17.73995535714286 14.241071428571416  17.71205357142857 12.4609375  15.814732142857139 12.4609375  C 13.88392857142857 12.4609375  13.588169642857139 13.967633928571416  13.588169642857139 15.524553571428584  L 13.588169642857139 21.428571428571416  L 10 21.428571428571416  L 10 9.497767857142861  L 13.4375 9.497767857142861  L 13.4375 11.127232142857139  L 13.487723214285708 11.127232142857139  C 13.984374999999998 10.189732142857139  15.1953125 9.202008928571416  16.99776785714286 9.202008928571416  C 20.74776785714286 9.202008928571416  21.4453125 11.674107142857139  21.4453125 14.888392857142863  Z " fill-rule="nonzero" fill="#000000" stroke="none" transform="matrix(1 0 0 1 57 135 )" />
  </g>
</svg>