<?xml version="1.0" encoding="utf-8"?>
<svg version="1.1" xmlns:xlink="http://www.w3.org/1999/xlink" width="317px" height="49px" xmlns="http://www.w3.org/2000/svg">
  <defs>
    <mask fill="white" id="clip1186">
      <path d="M 0 44  L 0 5  C 0 2.1999999999999886  2.1999999999999886 0  5 0  L 312 0  C 314.79999999999995 0  317 2.1999999999999886  317 5  L 317 44  C 317 46.80000000000001  314.79999999999995 49  312 49  L 199.8688524590176 49  L 5 49  C 2.1999999999999886 49  0 46.80000000000001  0 44  Z " fill-rule="evenodd" />
    </mask>
  </defs>
  <g transform="matrix(1 0 0 1 -365 -370 )">
    <path d="M 0 44  L 0 5  C 0 2.1999999999999886  2.1999999999999886 0  5 0  L 312 0  C 314.79999999999995 0  317 2.1999999999999886  317 5  L 317 44  C 317 46.80000000000001  314.79999999999995 49  312 49  L 199.8688524590176 49  L 5 49  C 2.1999999999999886 49  0 46.80000000000001  0 44  Z " fill-rule="nonzero" fill="#ffffff" stroke="none" transform="matrix(1 0 0 1 365 370 )" />
    <path d="M 0 44  L 0 5  C 0 2.1999999999999886  2.1999999999999886 0  5 0  L 312 0  C 314.79999999999995 0  317 2.1999999999999886  317 5  L 317 44  C 317 46.80000000000001  314.79999999999995 49  312 49  L 199.8688524590176 49  L 5 49  C 2.1999999999999886 49  0 46.80000000000001  0 44  Z " stroke-width="2" stroke="#cccccc" fill="none" transform="matrix(1 0 0 1 365 370 )" mask="url(#clip1186)" />
  </g>
</svg>