<?xml version="1.0" encoding="utf-8"?>
<svg version="1.1" xmlns:xlink="http://www.w3.org/1999/xlink" width="15px" height="15px" xmlns="http://www.w3.org/2000/svg">
  <g transform="matrix(1 0 0 1 -262 -198 )">
    <path d="M 14.775682704811443 6.183355006501951  L 13.429778933680103 7.5  L 14.775682704811443 8.81664499349805  C 14.97074122236671 8.998699609882964  15.035760728218465 9.226267880364109  14.97074122236671 9.499349804941483  C 14.892717815344604 9.765929778933678  14.72366710013004 9.931729518855656  14.463589076723016 9.996749024707412  L 12.630039011703511 10.464889466840052  L 13.146944083224968 12.278933680104032  C 13.224967490247074 12.545513654096228  13.163198959687907 12.773081924577374  12.961638491547465 12.961638491547465  C 12.773081924577374 13.163198959687907  12.545513654096231 13.224967490247074  12.278933680104032 13.146944083224968  L 10.464889466840052 12.630039011703511  L 9.99674902470741 14.463589076723016  C 9.931729518855658 14.72366710013004  9.765929778933682 14.892717815344604  9.499349804941483 14.97074122236671  C 9.421326397919376 14.98374512353706  9.35955786736021 14.990247074122236  9.31404421326398 14.990247074122236  C 9.112483745123537 14.990247074122236  8.946684005201561 14.918725617685308  8.81664499349805 14.775682704811443  L 7.5 13.429778933680103  L 6.183355006501951 14.775682704811443  C 6.001300390117036 14.97074122236671  5.773732119635891 15.035760728218465  5.500650195058517 14.97074122236671  C 5.234070221066321 14.89921976592978  5.068270481144344 14.730169050715215  5.0032509752925876 14.463589076723016  L 4.535110533159949 12.630039011703511  L 2.721066319895969 13.146944083224968  C 2.454486345903771 13.224967490247074  2.226918075422627 13.163198959687907  2.0383615084525357 12.961638491547465  C 1.8368010403120938 12.773081924577374  1.7750325097529258 12.545513654096228  1.8530559167750325 12.278933680104032  L 2.369960988296489 10.464889466840052  L 0.5364109232769831 9.996749024707412  C 0.276332899869961 9.931729518855656  0.10728218465539661 9.765929778933678  0.029258777633289986 9.499349804941483  C -0.03576072821846554 9.226267880364109  0.02925877763328998 8.998699609882964  0.22431729518855656 8.81664499349805  L 1.5702210663198959 7.5  L 0.22431729518855656 6.183355006501951  C 0.02925877763328998 6.001300390117034  -0.03576072821846554 5.773732119635891  0.029258777633289986 5.500650195058517  C 0.10728218465539661 5.23407022106632  0.276332899869961 5.068270481144344  0.5364109232769831 5.003250975292588  L 2.369960988296489 4.535110533159949  L 1.8530559167750325 2.7210663198959684  C 1.7750325097529258 2.454486345903769  1.8368010403120938 2.226918075422626  2.0383615084525357 2.0383615084525353  C 2.226918075422627 1.8368010403120927  2.454486345903771 1.7750325097529256  2.721066319895969 1.8530559167750327  L 4.535110533159949 2.3699609882964894  L 5.0032509752925876 0.5364109232769831  C 5.068270481144344 0.2698309492847839  5.234070221066321 0.10403120936280763  5.500650195058517 0.03901170351105265  C 5.767230169050716 -0.03901170351105265  5.994798439531861 0.022756827048114325  6.183355006501951 0.22431729518855692  L 7.5 1.579973992197659  L 8.81664499349805 0.22431729518855692  C 9.00520156046814 0.029258777633290323  9.232769830949286 -0.03250975292587999  9.499349804941483 0.03901170351105265  C 9.765929778933682 0.10403120936280763  9.931729518855658 0.2698309492847839  9.99674902470741 0.5364109232769831  L 10.464889466840052 2.3699609882964894  L 12.278933680104032 1.8530559167750327  C 12.545513654096231 1.7750325097529256  12.773081924577374 1.8368010403120927  12.961638491547465 2.0383615084525353  C 13.163198959687907 2.226918075422626  13.224967490247074 2.454486345903769  13.146944083224968 2.7210663198959684  L 12.630039011703511 4.535110533159949  L 14.463589076723016 5.003250975292588  C 14.72366710013004 5.068270481144344  14.892717815344604 5.23407022106632  14.97074122236671 5.500650195058517  C 15.035760728218465 5.773732119635891  14.97074122236671 6.001300390117034  14.775682704811443 6.183355006501951  Z " fill-rule="nonzero" fill="#000000" stroke="none" transform="matrix(1 0 0 1 262 198 )" />
  </g>
</svg>