<?xml version="1.0" encoding="utf-8"?>
<svg version="1.1" xmlns:xlink="http://www.w3.org/1999/xlink" width="25px" height="38px" xmlns="http://www.w3.org/2000/svg">
  <g transform="matrix(1 0 0 1 -31 -6 )">
    <path d="M 24.16557312011718 14.54873046875  C 24.870834350585945 13.36367968749999  23.991012573242188 11.875  22.580947875976555 11.875  L 13.776550292968759 11.875  L 16.417694091796875 2.2402187499999955  C 16.727447509765625 1.1100156250000044  15.850524902343732 0  14.6484375 0  L 4.2724609375 0  C 3.354721069335942 0  2.5787353515625 0.66091796875  2.457504272460942 1.5458281249999912  L 0.0164031982421875 19.35832812499999  C -0.13000488281249556 20.426261718750006  0.7250976562499956 21.375  1.8313598632812456 21.375  L 10.887527465820312 21.375  L 7.373504638671879 35.808023437500005  C 7.099151611328125 36.93488671874999  7.984848022460933 38  9.154663085937509 38  C 9.791717529296884 38  10.404052734374991 37.6753671875  10.739898681640625 37.111007812500006  L 24.16557312011718 14.54873046875  Z " fill-rule="nonzero" fill="#f05f40" stroke="none" transform="matrix(1 0 0 1 31 6 )" />
  </g>
</svg>