<?xml version="1.0" encoding="utf-8"?>
<svg version="1.1" xmlns:xlink="http://www.w3.org/1999/xlink" width="12px" height="10px" xmlns="http://www.w3.org/2000/svg">
  <g transform="matrix(1 0 0 1 -12 -124 )">
    <path d="M 11.783225806451613 1.3804713804713808  C 11.927741935483873 1.5375982042648706  12.000000000000004 1.728395061728395  12 1.9528619528619529  C 12.000000000000004 2.1773288439955096  11.927741935483873 2.368125701459034  11.783225806451613 2.525252525252525  L 6.178064516129033 8.61952861952862  L 5.1251612903225805 9.764309764309765  C 4.980645161290323 9.921436588103255  4.805161290322582 10  4.598709677419355 10  C 4.392258064516129 10  4.216774193548387 9.921436588103255  4.072258064516129 9.764309764309765  L 3.019354838709677 8.61952861952862  L 0.21677419354838712 5.572390572390573  C 0.07225806451612911 5.415263748597081  0 5.224466891133557  0 5  C 0 4.775533108866442  0.07225806451612911 4.5847362514029175  0.21677419354838712 4.427609427609428  L 1.2696774193548386 3.282828282828283  C 1.4141935483870969 3.125701459034792  1.589677419354839 3.047138047138046  1.7961290322580648 3.047138047138047  C 2.0025806451612906 3.047138047138046  2.1780645161290324 3.125701459034792  2.32258064516129 3.282828282828283  L 4.598709677419355 5.765993265993266  L 9.677419354838708 0.23569023569023573  C 9.82193548387097 0.07856341189674487  9.997419354838712 0  10.203870967741935 0  C 10.410322580645161 0  10.585806451612903 0.07856341189674487  10.730322580645161 0.23569023569023573  L 11.783225806451613 1.3804713804713808  Z " fill-rule="nonzero" fill="#000000" stroke="none" transform="matrix(1 0 0 1 12 124 )" />
  </g>
</svg>