<?xml version="1.0" encoding="utf-8"?>
<svg version="1.1" xmlns:xlink="http://www.w3.org/1999/xlink" width="76px" height="133px" xmlns="http://www.w3.org/2000/svg">
  <defs>
    <mask fill="white" id="clip1222">
      <path d="M 75.40625 0  C 75.6043700274173 0  75.80229087076225 0.0007369212525240122  76 0.002208254199396899  L 76 77.78890655361246  L 24.315955497435247 132.46608977494512  C 22.733003219468223 131.00866640878988  21.213590005973707 129.48267401019694  19.761908930228806 127.89234342787822  C 7.441687042150612 114.39542184025672  0 96.26442134034241  0 76.08558558558559  C 0 54.944724058165946  8.168165982452074 36.051613366212145  21.556995846806487 22.380309683251845  C 35.15241622976591 8.49805689223032  54.1308538352106 0  75.40625 0  Z " fill-rule="evenodd" />
    </mask>
  </defs>
  <g transform="matrix(1 0 0 1 -744 -63 )">
    <path d="M 75.40625 0  C 75.6043700274173 0  75.80229087076225 0.0007369212525240122  76 0.002208254199396899  L 76 77.78890655361246  L 24.315955497435247 132.46608977494512  C 22.733003219468223 131.00866640878988  21.213590005973707 129.48267401019694  19.761908930228806 127.89234342787822  C 7.441687042150612 114.39542184025672  0 96.26442134034241  0 76.08558558558559  C 0 54.944724058165946  8.168165982452074 36.051613366212145  21.556995846806487 22.380309683251845  C 35.15241622976591 8.49805689223032  54.1308538352106 0  75.40625 0  Z " fill-rule="nonzero" fill="#ffffff" stroke="none" transform="matrix(1 0 0 1 744 63 )" />
    <path d="M 75.40625 0  C 75.6043700274173 0  75.80229087076225 0.0007369212525240122  76 0.002208254199396899  L 76 77.78890655361246  L 24.315955497435247 132.46608977494512  C 22.733003219468223 131.00866640878988  21.213590005973707 129.48267401019694  19.761908930228806 127.89234342787822  C 7.441687042150612 114.39542184025672  0 96.26442134034241  0 76.08558558558559  C 0 54.944724058165946  8.168165982452074 36.051613366212145  21.556995846806487 22.380309683251845  C 35.15241622976591 8.49805689223032  54.1308538352106 0  75.40625 0  Z " stroke-width="18" stroke="#eaecf3" fill="none" transform="matrix(1 0 0 1 744 63 )" mask="url(#clip1222)" />
  </g>
</svg>