<?xml version="1.0" encoding="utf-8"?>
<svg version="1.1" xmlns:xlink="http://www.w3.org/1999/xlink" width="126px" height="150px" xmlns="http://www.w3.org/2000/svg">
  <defs>
    <mask fill="white" id="clip1341">
      <path d="M 52 76.6790180639185  L 52 0.0021767420616186422  C 73.04355587723312 0.15922238690574714  91.92912665734141 8.804369782429358  105.33231853372962 22.79071976863085  C 118.1879534942695 36.2056892409184  126 54.534370113718815  126 75  C 126 94.65194079326197  118.79679984796002 112.3334796633511  106.84160063322908 125.58606283673583  C 93.24622587152798 140.65681419492083  73.50552295490486 150  51.22429906542056 150  C 31.518065918687896 150  13.79908015001774 142.69156929140286  0.5612235870530937 130.57606912919192  L 52 76.6790180639185  Z " fill-rule="evenodd" />
    </mask>
  </defs>
  <g transform="matrix(1 0 0 1 -767 -63 )">
    <path d="M 52 76.6790180639185  L 52 0.0021767420616186422  C 73.04355587723312 0.15922238690574714  91.92912665734141 8.804369782429358  105.33231853372962 22.79071976863085  C 118.1879534942695 36.2056892409184  126 54.534370113718815  126 75  C 126 94.65194079326197  118.79679984796002 112.3334796633511  106.84160063322908 125.58606283673583  C 93.24622587152798 140.65681419492083  73.50552295490486 150  51.22429906542056 150  C 31.518065918687896 150  13.79908015001774 142.69156929140286  0.5612235870530937 130.57606912919192  L 52 76.6790180639185  Z " fill-rule="nonzero" fill="#ffffff" stroke="none" transform="matrix(1 0 0 1 767 63 )" />
    <path d="M 52 76.6790180639185  L 52 0.0021767420616186422  C 73.04355587723312 0.15922238690574714  91.92912665734141 8.804369782429358  105.33231853372962 22.79071976863085  C 118.1879534942695 36.2056892409184  126 54.534370113718815  126 75  C 126 94.65194079326197  118.79679984796002 112.3334796633511  106.84160063322908 125.58606283673583  C 93.24622587152798 140.65681419492083  73.50552295490486 150  51.22429906542056 150  C 31.518065918687896 150  13.79908015001774 142.69156929140286  0.5612235870530937 130.57606912919192  L 52 76.6790180639185  Z " stroke-width="18" stroke="#206cf5" fill="none" transform="matrix(1 0 0 1 767 63 )" mask="url(#clip1341)" />
  </g>
</svg>