<?xml version="1.0" encoding="utf-8"?>
<svg version="1.1" xmlns:xlink="http://www.w3.org/1999/xlink" width="15px" height="15px" xmlns="http://www.w3.org/2000/svg">
  <g transform="matrix(1 0 0 1 -696 -5 )">
    <path d="M 10.998883928571429 2.7146912704045425  C 11.523437500000002 3.5521646557842423  11.785714285714285 4.46415897799858  11.785714285714285 5.450674237047551  C 11.785714285714285 6.437189496096521  11.523437500000002 7.349183818310857  10.998883928571429 8.186657203690562  C 10.47433035714286 9.02413058907026  9.758649553571429 9.68594748048261  8.851841517857144 10.172107877927608  C 7.945033482142858 10.658268275372603  6.958705357142858 10.901348474095103  5.892857142857142 10.901348474095103  C 5.41294642857143 10.901348474095103  4.921875 10.844570617459189  4.419642857142858 10.731014904187369  C 3.727678571428572 11.3555713271824  2.952008928571429 11.809794180269694  2.092633928571429 12.093683463449254  C 1.8917410714285714 12.157558552164657  1.6517857142857144 12.214336408800566  1.372767857142857 12.26401703335699  L 1.34765625 12.26401703335699  C 1.2862723214285716 12.26401703335699  1.2290736607142858 12.235628105039035  1.176060267857143 12.178850248403123  C 1.123046875 12.122072391767212  1.0909598214285716 12.047551454932577  1.079799107142857 11.95528743789922  C 1.0742187500000002 11.933995741660752  1.0714285714285714 11.910929737402412  1.0714285714285714 11.886089425124203  C 1.0714285714285714 11.861249112845991  1.072823660714286 11.838183108587652  1.0756138392857144 11.816891412349182  C 1.0784040178571428 11.795599716110717  1.083984375 11.774308019872251  1.0923549107142856 11.753016323633783  L 1.11328125 11.699787083037616  C 1.11328125 11.699787083037616  1.123046875 11.680269694819021  1.142578125 11.64123491838183  C 1.1621093750000002 11.60220014194464  1.1732700892857144 11.58445706174592  1.176060267857143 11.588005677785665  C 1.1788504464285716 11.591554293825407  1.1914062500000002 11.573811213626687  1.2137276785714286 11.534776437189496  C 1.2360491071428574 11.495741660752305  1.2472098214285714 11.479772888573457  1.2472098214285714 11.486870120652945  C 1.2751116071428572 11.44428672817601  1.3392857142857144 11.355571327182398  1.439732142857143 11.220723917672107  C 1.5401785714285714 11.085876508161816  1.6127232142857144 10.981192334989355  1.6573660714285714 10.906671398154721  C 1.7020089285714286 10.832150461320087  1.7647879464285716 10.729240596167493  1.845703125 10.597941802696948  C 1.9266183035714288 10.4666430092264  1.9963727678571428 10.330021291696237  2.054966517857143 10.18807665010646  C 2.113560267857143 10.046132008516677  2.170758928571429 9.889992902767922  2.2265625 9.719659332860184  C 1.534598214285714 9.208658623136976  0.9905133928571429 8.5805535841022  0.5943080357142857 7.835344215755855  C 0.19810267857142855 7.0901348474095105  0 6.295244854506741  0 5.450674237047551  C 0 4.46415897799858  0.2622767857142857 3.5521646557842423  0.7868303571428572 2.7146912704045425  C 1.3113839285714286 1.8772178850248389  2.027064732142857 1.2154009936124894  2.933872767857143 0.7292405961674953  C 3.840680803571429 0.24308019872249786  4.82700892857143 0  5.892857142857142 0  C 6.958705357142858 0  7.945033482142858 0.24308019872249786  8.851841517857144 0.7292405961674953  C 9.758649553571429 1.2154009936124894  10.47433035714286 1.8772178850248389  10.998883928571429 2.7146912704045425  Z M 14.372209821428571 5.727466288147623  C 14.790736607142856 6.486870120652944  15 7.30305180979418  15 8.176011355571328  C 15 9.027679205110006  14.801897321428573 9.824343506032646  14.405691964285715 10.566004258339246  C 14.00948660714286 11.307665010645849  13.465401785714288 11.933995741660752  12.7734375 12.444996451383961  C 12.829241071428571 12.615330021291696  12.886439732142856 12.771469127040454  12.945033482142856 12.913413768630233  C 13.00362723214286 13.055358410220014  13.073381696428573 13.19198012775018  13.154296875 13.323278921220725  C 13.235212053571429 13.454577714691268  13.297991071428573 13.55748757984386  13.342633928571429 13.632008516678495  C 13.387276785714288 13.706529453513129  13.45982142857143 13.811213626685593  13.560267857142856 13.946061036195884  C 13.660714285714286 14.080908445706175  13.724888392857144 14.169623846699787  13.752790178571429 14.21220723917672  C 13.758370535714288 14.219304471256212  13.769531250000002 14.235273243435062  13.786272321428571 14.260113555713273  C 13.803013392857146 14.284953867991483  13.815569196428573 14.302696948190206  13.823939732142856 14.313342796309438  C 13.832310267857146 14.323988644428672  13.84347098214286 14.341731724627396  13.857421875 14.366572036905607  C 13.871372767857142 14.391412349183817  13.881138392857144 14.410929737402412  13.88671875 14.42512420156139  L 13.907645089285715 14.478353442157559  C 13.907645089285715 14.478353442157559  13.913225446428573 14.499645138396025  13.924386160714285 14.54222853087296  C 13.935546875 14.584811923349893  13.936941964285715 14.607877927608234  13.928571428571429 14.611426543647976  C 13.920200892857144 14.61497515968772  13.917410714285715 14.638041163946061  13.920200892857144 14.680624556422995  C 13.903459821428571 14.77998580553584  13.867187500000002 14.85805535841022  13.811383928571429 14.914833215046132  C 13.75558035714286 14.971611071682043  13.694196428571429 14.996451383960256  13.627232142857144 14.989354151880766  C 13.348214285714288 14.939673527324343  13.10825892857143 14.88289567068843  12.907366071428571 14.819020581973032  C 12.047991071428573 14.53513129879347  11.272321428571429 14.080908445706175  10.580357142857144 13.456352022711142  C 10.078125 13.569907735982968  9.587053571428573 13.626685592618879  9.107142857142856 13.626685592618879  C 7.594866071428571 13.626685592618879  6.277901785714286 13.158268275372604  5.15625 12.221433640880058  C 5.479910714285714 12.249822569198013  5.725446428571428 12.26401703335699  5.892857142857142 12.26401703335699  C 6.791294642857143 12.26401703335699  7.653459821428571 12.104329311568488  8.479352678571429 11.784953867991483  C 9.305245535714286 11.46557842441448  10.041852678571429 11.007806955287439  10.689174107142856 10.411639460610363  C 11.38671875 9.758694109297373  11.922433035714288 9.00638750887154  12.296316964285715 8.15471965933286  C 12.67020089285714 7.30305180979418  12.857142857142856 6.401703335699076  12.857142857142856 5.450674237047551  C 12.857142857142856 4.904187366926898  12.792968749999998 4.364797728885734  12.664620535714285 3.8325053229240593  C 13.384486607142856 4.336408800567778  13.953683035714285 4.968062455642299  14.372209821428571 5.727466288147623  Z " fill-rule="nonzero" fill="#797979" stroke="none" transform="matrix(1 0 0 1 696 5 )" />
  </g>
</svg>