<?xml version="1.0" encoding="utf-8"?>
<svg version="1.1" xmlns:xlink="http://www.w3.org/1999/xlink" width="20px" height="15px" xmlns="http://www.w3.org/2000/svg">
  <g transform="matrix(1 0 0 1 -52 -573 )">
    <path d="M 19.893973214285715 9.748883928571429  C 19.96465773809524 9.81956845238095  20 9.90327380952381  20 10.000000000000002  L 20 12.142857142857142  C 20 12.239583333333336  19.96465773809524 12.323288690476192  19.893973214285715 12.393973214285714  C 19.823288690476193 12.464657738095237  19.739583333333336 12.5  19.642857142857142 12.5  L 4.285714285714286 12.5  L 4.285714285714286 14.642857142857142  C 4.285714285714286 14.739583333333334  4.250372023809524 14.82328869047619  4.1796875 14.893973214285715  C 4.109002976190476 14.964657738095237  4.0252976190476195 15  3.9285714285714284 15  C 3.8392857142857144 15  3.75 14.962797619047619  3.6607142857142856 14.888392857142858  L 0.10044642857142858 11.316964285714285  C 0.033482142857142856 11.25  0 11.168154761904761  0 11.071428571428573  C 0 10.967261904761902  0.033482142857142856 10.881696428571429  0.10044642857142858 10.814732142857142  L 3.671875 7.243303571428571  C 3.7388392857142856 7.1763392857142865  3.8244047619047623 7.142857142857142  3.9285714285714284 7.142857142857142  C 4.0252976190476195 7.142857142857142  4.109002976190476 7.178199404761905  4.1796875 7.248883928571429  C 4.250372023809524 7.319568452380952  4.285714285714286 7.403273809523808  4.285714285714286 7.5  L 4.285714285714286 9.642857142857142  L 19.642857142857142 9.642857142857142  C 19.739583333333336 9.642857142857142  19.823288690476193 9.678199404761905  19.893973214285715 9.748883928571429  Z M 19.899553571428573 3.6718749999999996  C 19.966517857142858 3.7388392857142847  20 3.824404761904762  20 3.928571428571428  C 20 4.032738095238094  19.966517857142858 4.118303571428571  19.899553571428573 4.185267857142857  L 16.328125 7.756696428571429  C 16.261160714285715 7.8236607142857135  16.17559523809524 7.857142857142858  16.071428571428573 7.857142857142858  C 15.974702380952383 7.857142857142858  15.890997023809526 7.821800595238095  15.8203125 7.751116071428571  C 15.749627976190476 7.680431547619047  15.714285714285714 7.59672619047619  15.714285714285714 7.5  L 15.714285714285714 5.357142857142857  L 0.3571428571428571 5.357142857142857  C 0.2604166666666667 5.357142857142857  0.17671130952380953 5.321800595238096  0.10602678571428573 5.251116071428571  C 0.035342261904761904 5.1804315476190474  0 5.096726190476191  0 5.000000000000001  L 0 2.8571428571428568  C 0 2.760416666666665  0.035342261904761904 2.676711309523809  0.10602678571428573 2.606026785714286  C 0.17671130952380953 2.53534226190476  0.2604166666666667 2.4999999999999996  0.3571428571428571 2.4999999999999996  L 15.714285714285714 2.4999999999999996  L 15.714285714285714 0.35714285714285754  C 15.714285714285714 0.2529761904761896  15.747767857142858 0.16741071428571452  15.814732142857142 0.10044642857142905  C 15.881696428571427 0.03348214285714357  15.967261904761905 0  16.071428571428573 0  C 16.160714285714285 0  16.25 0.03720238095238082  16.339285714285715 0.11160714285714246  L 19.899553571428573 3.6718749999999996  Z " fill-rule="nonzero" fill="#d4d4d4" stroke="none" transform="matrix(1 0 0 1 52 573 )" />
  </g>
</svg>