<?xml version="1.0" encoding="utf-8"?>
<svg version="1.1" xmlns:xlink="http://www.w3.org/1999/xlink" width="20px" height="19px" xmlns="http://www.w3.org/2000/svg">
  <g transform="matrix(1 0 0 1 -52 -434 )">
    <path d="M 5.333333333333333 6.785714285714285  C 5.333333333333333 7.768229166666666  5.614583333333333 8.672991071428571  6.177083333333333 9.5  C 5.052083333333334 9.535342261904763  4.131944444444445 9.987723214285714  3.416666666666667 10.857142857142856  L 2.0208333333333335 10.857142857142856  C 1.4513888888888888 10.857142857142856  0.9722222222222223 10.714006696428571  0.5833333333333334 10.427734375  C 0.19444444444444442 10.141462053571429  0 9.72265625  0 9.171316964285715  C 0 6.676153273809523  0.43055555555555547 5.428571428571428  1.2916666666666667 5.428571428571428  C 1.3333333333333333 5.428571428571428  1.484375 5.502790178571428  1.7447916666666665 5.651227678571428  C 2.0052083333333335 5.799665178571428  2.34375 5.949869791666666  2.760416666666667 6.101841517857143  C 3.177083333333333 6.253813244047619  3.5902777777777777 6.329799107142857  4 6.329799107142857  C 4.465277777777778 6.329799107142857  4.927083333333334 6.248511904761903  5.385416666666667 6.0859375  C 5.350694444444445 6.3474702380952355  5.333333333333333 6.580729166666666  5.333333333333333 6.785714285714285  Z M 17.296875 15.156529017857144  C 17.321180555555557 15.513485863095237  17.333333333333336 15.879278273809526  17.333333333333336 16.25390625  C 17.333333333333336 17.102120535714285  17.07986111111111 17.771856398809526  16.572916666666664 18.263113839285715  C 16.065972222222225 18.754371279761905  15.392361111111112 19  14.552083333333334 19  L 5.447916666666667 19  C 4.607638888888889 19  3.9340277777777786 18.754371279761905  3.4270833333333335 18.263113839285715  C 2.9201388888888893 17.771856398809526  2.6666666666666665 17.102120535714285  2.6666666666666665 16.25390625  C 2.6666666666666665 15.879278273809526  2.6788194444444446 15.513485863095237  2.703125 15.156529017857144  C 2.7274305555555562 14.799572172619047  2.7760416666666665 14.414341517857144  2.8489583333333335 14.000837053571429  C 2.921875 13.587332589285714  3.0138888888888893 13.203869047619047  3.125 12.850446428571429  C 3.236111111111111 12.497023809523807  3.385416666666667 12.15243675595238  3.572916666666667 11.816685267857144  C 3.7604166666666665 11.480933779761903  3.9756944444444446 11.194661458333332  4.21875 10.957868303571429  C 4.461805555555555 10.721075148809526  4.758680555555556 10.531994047619047  5.109375 10.390625  C 5.4600694444444455 10.24925595238095  5.847222222222222 10.178571428571429  6.270833333333333 10.178571428571429  C 6.340277777777779 10.178571428571429  6.489583333333333 10.254557291666666  6.71875 10.406529017857144  C 6.947916666666667 10.558500744047619  7.201388888888889 10.728143601190474  7.479166666666667 10.915457589285714  C 7.7569444444444455 11.10277157738095  8.128472222222223 11.272414434523807  8.59375 11.424386160714286  C 9.059027777777779 11.576357886904763  9.527777777777779 11.65234375  10 11.65234375  C 10.472222222222223 11.65234375  10.940972222222223 11.576357886904763  11.40625 11.424386160714286  C 11.871527777777779 11.272414434523807  12.243055555555557 11.10277157738095  12.520833333333334 10.915457589285714  C 12.79861111111111 10.728143601190474  13.052083333333332 10.558500744047619  13.28125 10.406529017857144  C 13.510416666666668 10.254557291666666  13.659722222222223 10.178571428571429  13.729166666666666 10.178571428571429  C 14.152777777777779 10.178571428571429  14.539930555555557 10.24925595238095  14.890625 10.390625  C 15.241319444444446 10.531994047619047  15.538194444444445 10.721075148809526  15.78125 10.957868303571429  C 16.024305555555557 11.194661458333332  16.239583333333336 11.480933779761903  16.427083333333336 11.816685267857144  C 16.614583333333332 12.15243675595238  16.763888888888893 12.497023809523807  16.875 12.850446428571429  C 16.986111111111114 13.203869047619047  17.078125 13.587332589285714  17.151041666666668 14.000837053571429  C 17.223958333333332 14.414341517857144  17.272569444444446 14.799572172619047  17.296875 15.156529017857144  Z M 5.885416666666666 0.7952008928571435  C 6.40625 1.3253348214285716  6.666666666666666 1.96502976190476  6.666666666666666 2.7142857142857153  C 6.666666666666666 3.463541666666666  6.40625 4.103236607142857  5.885416666666666 4.633370535714285  C 5.364583333333334 5.163504464285715  4.736111111111112 5.428571428571428  4 5.428571428571428  C 3.2638888888888893 5.428571428571428  2.635416666666667 5.163504464285715  2.1145833333333335 4.633370535714285  C 1.59375 4.103236607142857  1.3333333333333333 3.463541666666666  1.3333333333333333 2.7142857142857153  C 1.3333333333333333 1.96502976190476  1.59375 1.3253348214285716  2.1145833333333335 0.7952008928571435  C 2.635416666666667 0.2650669642857152  3.2638888888888893 0  4 0  C 4.736111111111112 0  5.364583333333334 0.2650669642857152  5.885416666666666 0.7952008928571435  Z M 12.828125 3.9070870535714284  C 13.609375 4.702287946428572  14 5.661830357142857  14 6.785714285714285  C 14 7.909598214285715  13.609375 8.869140625  12.828125 9.664341517857144  C 12.046875 10.459542410714286  11.104166666666666 10.857142857142856  10 10.857142857142856  C 8.895833333333336 10.857142857142856  7.953125000000001 10.459542410714286  7.171875 9.664341517857144  C 6.390625 8.869140625  6 7.909598214285715  6 6.785714285714285  C 6 5.661830357142857  6.390625 4.702287946428572  7.171875 3.9070870535714284  C 7.953125000000001 3.1118861607142847  8.895833333333336 2.7142857142857153  10 2.7142857142857153  C 11.104166666666666 2.7142857142857153  12.046875 3.1118861607142847  12.828125 3.9070870535714284  Z M 18.708333333333332 5.428571428571428  C 19.56944444444445 5.428571428571428  20.000000000000004 6.676153273809523  20 9.171316964285715  C 20.000000000000004 9.72265625  19.805555555555557 10.141462053571429  19.416666666666668 10.427734375  C 19.02777777777778 10.714006696428571  18.548611111111114 10.857142857142856  17.979166666666664 10.857142857142856  L 16.583333333333336 10.857142857142856  C 15.868055555555557 9.987723214285714  14.947916666666668 9.535342261904763  13.822916666666668 9.5  C 14.385416666666666 8.672991071428571  14.666666666666666 7.768229166666666  14.666666666666666 6.785714285714285  C 14.666666666666666 6.580729166666666  14.649305555555557 6.3474702380952355  14.614583333333332 6.0859375  C 15.072916666666668 6.248511904761903  15.534722222222223 6.329799107142857  16 6.329799107142857  C 16.40972222222222 6.329799107142857  16.822916666666668 6.253813244047619  17.239583333333332 6.101841517857143  C 17.65625 5.949869791666666  17.994791666666668 5.799665178571428  18.255208333333332 5.651227678571428  C 18.515625 5.502790178571428  18.666666666666668 5.428571428571428  18.708333333333332 5.428571428571428  Z M 17.885416666666668 0.7952008928571435  C 18.40625 1.3253348214285716  18.666666666666668 1.96502976190476  18.666666666666668 2.7142857142857153  C 18.666666666666668 3.463541666666666  18.40625 4.103236607142857  17.885416666666668 4.633370535714285  C 17.364583333333336 5.163504464285715  16.73611111111111 5.428571428571428  16 5.428571428571428  C 15.26388888888889 5.428571428571428  14.635416666666668 5.163504464285715  14.114583333333332 4.633370535714285  C 13.59375 4.103236607142857  13.333333333333332 3.463541666666666  13.333333333333332 2.7142857142857153  C 13.333333333333332 1.96502976190476  13.59375 1.3253348214285716  14.114583333333332 0.7952008928571435  C 14.635416666666668 0.2650669642857152  15.26388888888889 0  16 0  C 16.73611111111111 0  17.364583333333336 0.2650669642857152  17.885416666666668 0.7952008928571435  Z " fill-rule="nonzero" fill="#d4d4d4" stroke="none" transform="matrix(1 0 0 1 52 434 )" />
  </g>
</svg>