<?xml version="1.0" encoding="utf-8"?>
<svg version="1.1" xmlns:xlink="http://www.w3.org/1999/xlink" width="20px" height="16px" xmlns="http://www.w3.org/2000/svg">
  <g transform="matrix(1 0 0 1 -52 -505 )">
    <path d="M 18.883928571428573 6.147727272727273  C 19.308035714285715 5.852272727272727  19.680059523809526 5.522727272727273  20 5.159090909090908  L 20 14.181818181818182  C 20 14.681818181818182  19.82514880952381 15.109848484848486  19.475446428571427 15.465909090909092  C 19.12574404761905 15.821969696969695  18.705357142857146 16  18.214285714285715 16  L 1.7857142857142858 16  C 1.2946428571428572 16  0.8742559523809524 15.821969696969695  0.5245535714285715 15.465909090909092  C 0.17485119047619055 15.109848484848486  0 14.681818181818182  0 14.181818181818182  L 0 5.159090909090908  C 0.32738095238095244 5.530303030303029  0.7031250000000001 5.859848484848483  1.1272321428571428 6.147727272727273  C 3.8206845238095246 8.011363636363637  5.669642857142857 9.318181818181818  6.674107142857143 10.068181818181818  C 7.0982142857142865 10.386363636363637  7.44233630952381 10.634469696969695  7.7064732142857135 10.8125  C 7.9706101190476195 10.990530303030301  8.32217261904762 11.172348484848484  8.761160714285714 11.357954545454547  C 9.20014880952381 11.543560606060606  9.609375 11.636363636363637  9.988839285714286 11.636363636363637  L 10 11.636363636363637  L 10.011160714285714 11.636363636363637  C 10.390625000000002 11.636363636363637  10.79985119047619 11.543560606060606  11.238839285714286 11.357954545454547  C 11.677827380952383 11.172348484848484  12.029389880952383 10.990530303030301  12.293526785714286 10.8125  C 12.55766369047619 10.634469696969695  12.901785714285714 10.386363636363637  13.325892857142858 10.068181818181818  C 14.590773809523812 9.136363636363637  16.443452380952383 7.829545454545455  18.883928571428573 6.147727272727273  Z M 19.469866071428573 0.5340909090909083  C 19.82328869047619 0.8901515151515138  20 1.3181818181818183  20 1.8181818181818183  C 20 2.4166666666666643  19.817708333333336 2.9886363636363633  19.453125 3.5340909090909083  C 19.088541666666668 4.079545454545455  18.63467261904762 4.545454545454545  18.091517857142858 4.931818181818182  C 15.293898809523812 6.909090909090908  13.552827380952383 8.140151515151516  12.868303571428573 8.625  C 12.793898809523812 8.678030303030303  12.63578869047619 8.793560606060606  12.393973214285714 8.97159090909091  C 12.152157738095239 9.149621212121211  11.951264880952383 9.293560606060606  11.791294642857142 9.40340909090909  C 11.631324404761905 9.513257575757574  11.437872023809526 9.636363636363637  11.2109375 9.772727272727273  C 10.984002976190476 9.90909090909091  10.770089285714286 10.011363636363637  10.569196428571427 10.079545454545453  C 10.368303571428573 10.147727272727273  10.182291666666668 10.181818181818182  10.011160714285714 10.181818181818182  L 10 10.181818181818182  L 9.988839285714286 10.181818181818182  C 9.817708333333334 10.181818181818182  9.631696428571429 10.147727272727273  9.430803571428571 10.079545454545453  C 9.229910714285714 10.011363636363637  9.015997023809524 9.90909090909091  8.7890625 9.772727272727273  C 8.562127976190476 9.636363636363637  8.368675595238095 9.513257575757574  8.208705357142858 9.40340909090909  C 8.04873511904762 9.293560606060606  7.847842261904763 9.149621212121211  7.6060267857142865 8.97159090909091  C 7.36421130952381 8.793560606060606  7.206101190476192 8.678030303030303  7.131696428571429 8.625  C 6.454613095238095 8.140151515151516  5.4799107142857135 7.448863636363637  4.207589285714286 6.551136363636363  C 2.9352678571428568 5.65340909090909  2.172619047619048 5.1136363636363615  1.9196428571428572 4.931818181818182  C 1.4583333333333335 4.6136363636363615  1.0230654761904765 4.176136363636363  0.6138392857142858 3.6193181818181817  C 0.20461309523809532 3.0625  0 2.545454545454545  0 2.0681818181818183  C 0 1.4772727272727266  0.15438988095238101 0.9848484848484826  0.46316964285714296 0.5909090909090917  C 0.7719494047619049 0.19696969696969546  1.2127976190476193 0  1.7857142857142858 0  L 18.214285714285715 0  C 18.697916666666668 0  19.116443452380953 0.17803030303030098  19.469866071428573 0.5340909090909083  Z " fill-rule="nonzero" fill="#d4d4d4" stroke="none" transform="matrix(1 0 0 1 52 505 )" />
  </g>
</svg>