<?xml version="1.0" encoding="utf-8"?>
<svg version="1.1" xmlns:xlink="http://www.w3.org/1999/xlink" width="13px" height="13px" xmlns="http://www.w3.org/2000/svg">
  <g transform="matrix(1 0 0 1 -580 -95 )">
    <path d="M 4.015950520833333 10.515950520833334  C 4.2275390625 10.304361979166666  4.333333333333333 10.04904513888889  4.333333333333333 9.75  C 4.333333333333333 9.45095486111111  4.2275390625 9.195638020833332  4.015950520833333 8.984049479166668  C 3.804361979166667 8.7724609375  3.5490451388888893 8.666666666666668  3.25 8.666666666666668  C 2.950954861111111 8.666666666666668  2.6956380208333335 8.7724609375  2.4840494791666665 8.984049479166668  C 2.2724609375 9.195638020833332  2.1666666666666665 9.45095486111111  2.1666666666666665 9.75  C 2.1666666666666665 10.04904513888889  2.2724609375 10.304361979166666  2.4840494791666665 10.515950520833334  C 2.6956380208333335 10.7275390625  2.950954861111111 10.833333333333334  3.25 10.833333333333334  C 3.5490451388888893 10.833333333333334  3.804361979166667 10.7275390625  4.015950520833333 10.515950520833334  Z M 7.227864583333334 10.748697916666666  C 7.284288194444445 10.692274305555555  7.309678819444445 10.624565972222221  7.304036458333334 10.545572916666666  C 7.230685763888888 9.230902777777777  6.732747395833334 8.1123046875  5.810221354166667 7.189778645833332  C 4.8876953125 6.267252604166666  3.7690972222222223 5.769314236111112  2.4544270833333335 5.695963541666666  C 2.3754340277777777 5.690321180555555  2.3077256944444446 5.715711805555555  2.2513020833333335 5.772135416666666  C 2.1948784722222223 5.828559027777778  2.1666666666666665 5.893446180555555  2.1666666666666665 5.966796875  L 2.1666666666666665 7.050130208333332  C 2.1666666666666665 7.123480902777778  2.1906467013888893 7.185546875  2.2386067708333335 7.236328125  C 2.2865668402777777 7.287109375  2.3472222222222223 7.315321180555555  2.4205729166666665 7.320963541666668  C 3.289496527777778 7.3830295138888875  4.034288194444445 7.72439236111111  4.654947916666667 8.345052083333332  C 5.275607638888889 8.965711805555555  5.616970486111112 9.710503472222223  5.679036458333333 10.579427083333334  C 5.684678819444445 10.652777777777779  5.712890625 10.713433159722221  5.763671875 10.761393229166666  C 5.814453125 10.80935329861111  5.876519097222222 10.833333333333334  5.949869791666667 10.833333333333334  L 7.033203125 10.833333333333334  C 7.106553819444445 10.833333333333334  7.171440972222222 10.805121527777779  7.227864583333334 10.748697916666666  Z M 10.477864583333334 10.748697916666666  C 10.539930555555557 10.697916666666666  10.565321180555557 10.63302951388889  10.554036458333334 10.554036458333334  C 10.525824652777779 9.685112847222223  10.367838541666666 8.845811631944443  10.080078125 8.0361328125  C 9.792317708333334 7.226453993055555  9.398763020833334 6.492947048611112  8.8994140625 5.835611979166666  C 8.400065104166668 5.178276909722221  7.821723090277779 4.599934895833334  7.164388020833334 4.1005859375  C 6.507052951388888 3.601236979166666  5.773546006944445 3.207682291666666  4.9638671875 2.919921875  C 4.154188368055555 2.632161458333334  3.314887152777778 2.474175347222221  2.4459635416666665 2.445963541666666  C 2.366970486111111 2.440321180555555  2.3020833333333335 2.465711805555555  2.2513020833333335 2.522135416666666  C 2.1948784722222223 2.578559027777776  2.1666666666666665 2.643446180555555  2.1666666666666665 2.716796875  L 2.1666666666666665 3.800130208333334  C 2.1666666666666665 3.873480902777776  2.1920572916666665 3.935546875  2.2428385416666665 3.986328125  C 2.2936197916666665 4.037109375  2.3556857638888893 4.065321180555555  2.4290364583333335 4.070963541666666  C 3.580078125 4.110460069444444  4.646484375 4.425021701388888  5.628255208333333 5.0146484375  C 6.610026041666666 5.604275173611112  7.395724826388888 6.389973958333334  7.9853515625 7.371744791666668  C 8.57497829861111 8.353515625  8.889539930555557 9.419921875  8.929036458333334 10.570963541666666  C 8.934678819444445 10.64431423611111  8.962890625 10.706380208333334  9.013671875 10.757161458333334  C 9.064453125 10.807942708333334  9.126519097222223 10.833333333333334  9.199869791666666 10.833333333333334  L 10.283203125 10.833333333333334  C 10.356553819444445 10.833333333333334  10.421440972222223 10.805121527777779  10.477864583333334 10.748697916666666  Z M 12.284830729166666 0.7151692708333338  C 12.761610243055555 1.191948784722221  13 1.766059027777776  13 2.4375  L 13 10.5625  C 13 11.233940972222221  12.761610243055555 11.808051215277779  12.284830729166666 12.284830729166666  C 11.808051215277779 12.761610243055555  11.233940972222223 13  10.5625 13  L 2.4375 13  C 1.766059027777778 13  1.1919487847222223 12.761610243055555  0.7151692708333334 12.284830729166666  C 0.23838975694444442 11.808051215277779  0 11.233940972222221  0 10.5625  L 0 2.4375  C 0 1.766059027777776  0.23838975694444442 1.191948784722221  0.7151692708333334 0.7151692708333338  C 1.1919487847222223 0.23838975694444364  1.766059027777778 0  2.4375 0  L 10.5625 0  C 11.233940972222223 0  11.808051215277779 0.23838975694444364  12.284830729166666 0.7151692708333338  Z " fill-rule="nonzero" fill="#ffffff" stroke="none" transform="matrix(1 0 0 1 580 95 )" />
  </g>
</svg>