<?xml version="1.0" encoding="utf-8"?>
<svg version="1.1" xmlns:xlink="http://www.w3.org/1999/xlink" width="20px" height="16px" xmlns="http://www.w3.org/2000/svg">
  <g transform="matrix(1 0 0 1 -52 -819 )">
    <path d="M 8.137755102040817 14.63125  C 8.129251700680273 14.677083333333334  8.137755102040817 14.733333333333334  8.16326530612245 14.8  C 8.16326530612245 14.833333333333334  8.167517006802722 14.916666666666666  8.176020408163264 15.05  C 8.18452380952381 15.183333333333334  8.186649659863946 15.29375  8.182397959183675 15.38125  C 8.178146258503403 15.46875  8.165391156462587 15.566666666666666  8.144132653061224 15.675  C 8.122874149659864 15.783333333333335  8.080357142857142 15.864583333333334  8.016581632653061 15.91875  C 7.95280612244898 15.972916666666666  7.865646258503403 16  7.755102040816326 16  L 3.673469387755102 16  C 2.6615646258503407 16  1.796343537414966 15.647916666666665  1.0778061224489797 14.94375  C 0.35926870748299317 14.239583333333334  0 13.391666666666666  0 12.4  L 0 3.5999999999999996  C 0 2.6083333333333307  0.35926870748299317 1.760416666666666  1.0778061224489797 1.0562500000000004  C 1.796343537414966 0.3520833333333311  2.6615646258503407 0  3.673469387755102 0  L 7.755102040816326 0  C 7.865646258503403 0  7.961309523809525 0.03958333333333108  8.042091836734693 0.11875000000000036  C 8.122874149659864 0.19791666666666607  8.16326530612245 0.2916666666666661  8.16326530612245 0.40000000000000036  C 8.16326530612245 0.4333333333333318  8.167517006802722 0.5166666666666657  8.176020408163264 0.6500000000000004  C 8.18452380952381 0.7833333333333314  8.186649659863946 0.8937500000000007  8.182397959183675 0.9812499999999993  C 8.178146258503403 1.0687499999999996  8.165391156462587 1.166666666666666  8.144132653061224 1.2750000000000004  C 8.122874149659864 1.383333333333331  8.080357142857142 1.4645833333333318  8.016581632653061 1.5187500000000007  C 7.95280612244898 1.572916666666666  7.865646258503403 1.5999999999999996  7.755102040816326 1.5999999999999996  L 3.673469387755102 1.5999999999999996  C 3.112244897959184 1.5999999999999996  2.631802721088436 1.7958333333333307  2.232142857142857 2.1875  C 1.8324829931972793 2.5791666666666657  1.6326530612244896 3.0500000000000007  1.6326530612244896 3.5999999999999996  L 1.6326530612244896 12.4  C 1.6326530612244896 12.95  1.8324829931972793 13.42083333333333  2.232142857142857 13.8125  C 2.631802721088436 14.204166666666666  3.112244897959184 14.4  3.673469387755102 14.4  L 7.346938775510204 14.4  L 7.487244897959183 14.4  L 7.653061224489796 14.4  C 7.653061224489796 14.4  7.701955782312925 14.404166666666665  7.799744897959183 14.4125  C 7.897534013605442 14.420833333333334  7.946428571428571 14.433333333333334  7.946428571428571 14.45  C 7.946428571428571 14.466666666666665  7.980442176870749 14.489583333333334  8.048469387755102 14.51875  C 8.116496598639456 14.547916666666666  8.146258503401361 14.585416666666665  8.137755102040817 14.63125  Z M 19.757653061224488 7.4375  C 19.91921768707483 7.595833333333333  20 7.783333333333333  20 8  C 20 8.216666666666665  19.91921768707483 8.404166666666665  19.757653061224488 8.5625  L 12.818877551020408 15.3625  C 12.657312925170068 15.520833333333334  12.465986394557824 15.6  12.244897959183675 15.6  C 12.023809523809526 15.6  11.83248299319728 15.520833333333334  11.670918367346939 15.3625  C 11.5093537414966 15.204166666666666  11.428571428571427 15.016666666666666  11.428571428571427 14.8  L 11.428571428571427 11.2  L 5.7142857142857135 11.2  C 5.493197278911564 11.2  5.30187074829932 11.120833333333334  5.14030612244898 10.9625  C 4.978741496598639 10.804166666666665  4.8979591836734695 10.616666666666665  4.8979591836734695 10.4  L 4.8979591836734695 5.6  C 4.8979591836734695 5.383333333333331  4.978741496598639 5.195833333333331  5.14030612244898 5.0375  C 5.30187074829932 4.879166666666666  5.493197278911564 4.800000000000001  5.7142857142857135 4.800000000000001  L 11.428571428571427 4.800000000000001  L 11.428571428571427 1.1999999999999993  C 11.428571428571427 0.9833333333333307  11.5093537414966 0.7958333333333307  11.670918367346939 0.6374999999999993  C 11.83248299319728 0.4791666666666661  12.023809523809526 0.40000000000000036  12.244897959183675 0.40000000000000036  C 12.465986394557824 0.40000000000000036  12.657312925170068 0.4791666666666661  12.818877551020408 0.6374999999999993  L 19.757653061224488 7.4375  Z " fill-rule="nonzero" fill="#d4d4d4" stroke="none" transform="matrix(1 0 0 1 52 819 )" />
  </g>
</svg>