<?xml version="1.0" encoding="utf-8"?>
<svg version="1.1" xmlns:xlink="http://www.w3.org/1999/xlink" width="10px" height="15px" xmlns="http://www.w3.org/2000/svg">
  <g transform="matrix(1 0 0 1 -1440 -94 )">
    <path d="M 9.828178694158074 7.154308617234469  C 9.942726231386027 7.254509018036072  10 7.369739478957915  10 7.5  C 10 7.630260521042083  9.942726231386027 7.745490981963926  9.828178694158074 7.845691382765531  L 1.8213058419243986 14.849699398797595  C 1.7067583046964492 14.9498997995992  1.575028636884307 15  1.4261168384879723 15  C 1.2772050400916382 15  1.1454753722794961 14.9498997995992  1.0309278350515463 14.849699398797595  L 0.1718213058419244 14.098196392785573  C 0.05727376861397484 13.997995991983966  0 13.882765531062125  0 13.75250501002004  C 0 13.622244488977955  0.05727376861397484 13.507014028056114  0.1718213058419244 13.40681362725451  L 6.9243986254295535 7.5  L 0.1718213058419244 1.593186372745491  C 0.05727376861397484 1.4929859719438872  0 1.3777555110220434  0 1.2474949899799603  C 0 1.1172344689378737  0.05727376861397484 1.0020040080160304  0.1718213058419244 0.9018036072144281  L 1.0309278350515463 0.15030060120240496  C 1.1454753722794961 0.0501002004008011  1.2772050400916382 0  1.4261168384879723 0  C 1.575028636884307 0  1.7067583046964492 0.0501002004008011  1.8213058419243986 0.15030060120240496  L 9.828178694158074 7.154308617234469  Z " fill-rule="nonzero" fill="#ffffff" stroke="none" transform="matrix(1 0 0 1 1440 94 )" />
  </g>
</svg>