<?xml version="1.0" encoding="utf-8"?>
<svg version="1.1" xmlns:xlink="http://www.w3.org/1999/xlink" width="107px" height="127px" xmlns="http://www.w3.org/2000/svg">
  <defs>
    <mask fill="white" id="clip1511">
      <path d="M 44 64.921568627451  L 44 0.0018429749455037836  C 62.02905141955512 0.13480828758019925  78.06679803440898 7.45436641579019  89.4488736754688 19.29614273744079  C 100.36596050703838 30.65415022397758  107 46.172433362948595  107 63.5  C 107 80.1386432049618  100.8829966962835 95.10901278163726  90.73056561710723 106.32953320176966  C 79.18528704963092 119.08943601836631  62.421356795038264 127  43.5 127  C 26.765341692854008 127  11.718266476602366 120.81219533338776  0.47659463344984937 110.55440519604917  L 44 64.921568627451  Z " fill-rule="evenodd" />
    </mask>
  </defs>
  <g transform="matrix(1 0 0 1 -1003 -513 )">
    <path d="M 44 64.921568627451  L 44 0.0018429749455037836  C 62.02905141955512 0.13480828758019925  78.06679803440898 7.45436641579019  89.4488736754688 19.29614273744079  C 100.36596050703838 30.65415022397758  107 46.172433362948595  107 63.5  C 107 80.1386432049618  100.8829966962835 95.10901278163726  90.73056561710723 106.32953320176966  C 79.18528704963092 119.08943601836631  62.421356795038264 127  43.5 127  C 26.765341692854008 127  11.718266476602366 120.81219533338776  0.47659463344984937 110.55440519604917  L 44 64.921568627451  Z " fill-rule="nonzero" fill="#ffffff" stroke="none" transform="matrix(1 0 0 1 1003 513 )" />
    <path d="M 44 64.921568627451  L 44 0.0018429749455037836  C 62.02905141955512 0.13480828758019925  78.06679803440898 7.45436641579019  89.4488736754688 19.29614273744079  C 100.36596050703838 30.65415022397758  107 46.172433362948595  107 63.5  C 107 80.1386432049618  100.8829966962835 95.10901278163726  90.73056561710723 106.32953320176966  C 79.18528704963092 119.08943601836631  62.421356795038264 127  43.5 127  C 26.765341692854008 127  11.718266476602366 120.81219533338776  0.47659463344984937 110.55440519604917  L 44 64.921568627451  Z " stroke-width="26" stroke="#3066fc" fill="none" transform="matrix(1 0 0 1 1003 513 )" mask="url(#clip1511)" />
  </g>
</svg>