<?xml version="1.0" encoding="utf-8"?>
<svg version="1.1" xmlns:xlink="http://www.w3.org/1999/xlink" width="64px" height="111px" xmlns="http://www.w3.org/2000/svg">
  <defs>
    <mask fill="white" id="clip1510">
      <path d="M 63.5 0  C 63.66683791782509 0  63.83350810169452 0.0006150245039862057  64 0.0018429790686695922  L 64 64.921568627451  L 20.476594103103366 110.55440575202186  C 19.143581658499556 109.33805993515546  17.864075794504174 108.0644873318185  16.64160752019268 106.73721895108633  C 6.266683824968936 95.47287085916162  0 80.3409832238948  0 63.50000000000001  C 0 45.856123086138496  6.878455564170167 30.088188598868783  18.15325966046862 18.678303570232742  C 29.602034719802873 7.09236327095914  45.58387691386156 0  63.5 0  Z " fill-rule="evenodd" />
    </mask>
  </defs>
  <g transform="matrix(1 0 0 1 -983 -513 )">
    <path d="M 63.5 0  C 63.66683791782509 0  63.83350810169452 0.0006150245039862057  64 0.0018429790686695922  L 64 64.921568627451  L 20.476594103103366 110.55440575202186  C 19.143581658499556 109.33805993515546  17.864075794504174 108.0644873318185  16.64160752019268 106.73721895108633  C 6.266683824968936 95.47287085916162  0 80.3409832238948  0 63.50000000000001  C 0 45.856123086138496  6.878455564170167 30.088188598868783  18.15325966046862 18.678303570232742  C 29.602034719802873 7.09236327095914  45.58387691386156 0  63.5 0  Z " fill-rule="nonzero" fill="#ffffff" stroke="none" transform="matrix(1 0 0 1 983 513 )" />
    <path d="M 63.5 0  C 63.66683791782509 0  63.83350810169452 0.0006150245039862057  64 0.0018429790686695922  L 64 64.921568627451  L 20.476594103103366 110.55440575202186  C 19.143581658499556 109.33805993515546  17.864075794504174 108.0644873318185  16.64160752019268 106.73721895108633  C 6.266683824968936 95.47287085916162  0 80.3409832238948  0 63.50000000000001  C 0 45.856123086138496  6.878455564170167 30.088188598868783  18.15325966046862 18.678303570232742  C 29.602034719802873 7.09236327095914  45.58387691386156 0  63.5 0  Z " stroke-width="24" stroke="#d7e3f6" fill="none" transform="matrix(1 0 0 1 983 513 )" mask="url(#clip1510)" />
  </g>
</svg>