<?xml version="1.0" encoding="utf-8"?>
<svg version="1.1" xmlns:xlink="http://www.w3.org/1999/xlink" width="15px" height="15px" xmlns="http://www.w3.org/2000/svg">
  <g transform="matrix(1 0 0 1 -1333 -239 )">
    <path d="M 15 7.5  C 15 3.356854838709677  11.643145161290324 0  7.5 0  C 3.356854838709677 0  0 3.356854838709677  0 7.5  C 0 11.643145161290324  3.356854838709677 15  7.5 15  C 11.643145161290324 15  15 11.643145161290324  15 7.5  Z M 9.734879032258062 10.50907258064517  C 9.61693548387097 10.669354838709678  9.390120967741938 10.705645161290324  9.22681451612903 10.587701612903231  L 6.559475806451616 8.649193548387093  C 6.465725806451616 8.579637096774185  6.411290322580646 8.470766129032262  6.411290322580646 8.355846774193555  L 6.411290322580646 3.2661290322580614  C 6.411290322580646 3.0665322580645236  6.574596774193545 2.9032258064516157  6.774193548387092 2.9032258064516157  L 8.225806451612907 2.9032258064516157  C 8.425403225806447 2.9032258064516157  8.588709677419354 3.0665322580645236  8.588709677419354 3.2661290322580614  L 8.588709677419354 7.430443548387092  L 10.50907258064517 8.82762096774194  C 10.672379032258062 8.94556451612903  10.705645161290324 9.17237903225806  10.587701612903231 9.33568548387097  L 9.734879032258062 10.50907258064517  Z " fill-rule="nonzero" fill="#4675fb" stroke="none" transform="matrix(1 0 0 1 1333 239 )" />
  </g>
</svg>