<?xml version="1.0" encoding="utf-8"?>
<svg version="1.1" xmlns:xlink="http://www.w3.org/1999/xlink" width="50px" height="33px" xmlns="http://www.w3.org/2000/svg">
  <g transform="matrix(1 0 0 1 -593 -134 )">
    <path d="M 3.537326388888889 9.582031250000002  L 2.5824652777777777 11.902343750000002  L 4.513888888888888 11.902343750000002  L 3.537326388888889 9.582031250000002  Z M 12.608506944444445 23.203125  L 16.05902777777778 23.203125  L 17.664930555555554 21.505859374999996  L 16.145833333333336 19.808593750000004  L 12.608506944444445 19.808593750000004  L 12.608506944444445 20.861328124999996  L 15.690104166666666 20.861328124999996  L 15.690104166666666 22.04296875  L 12.608506944444445 22.04296875  L 12.608506944444445 23.203125  Z M 21.63628472222222 19.228515625000004  L 19.48784722222222 21.52734375  L 21.63628472222222 23.890624999999996  L 21.63628472222222 19.228515625000004  Z M 24.84809027777778 21.291015625000004  C 25.441261574074076 21.291015625000004  25.73784722222222 21.033203125000004  25.73784722222222 20.517578125000004  C 25.73784722222222 20.044921875  25.448495370370374 19.808593750000004  24.869791666666664 19.808593750000004  L 23.046875 19.808593750000004  L 23.046875 21.291015625000004  L 24.84809027777778 21.291015625000004  Z M 31.07638888888889 21.119140624999996  C 31.698495370370374 21.119140624999996  32.00954861111111 20.889973958333332  32.00954861111111 20.431640625  C 32.00954861111111 20.016276041666664  31.705729166666668 19.808593750000004  31.09809027777778 19.808593750000004  L 29.31857638888889 19.808593750000004  L 29.31857638888889 21.119140624999996  L 31.07638888888889 21.119140624999996  Z M 25.04340277777778 11.0859375  C 25.665509259259263 11.0859375  25.9765625 10.863932291666663  25.9765625 10.419921875000002  C 25.9765625 10.004557291666664  25.672743055555557 9.796875  25.065104166666668 9.796875  L 23.28559027777778 9.796875  L 23.28559027777778 11.0859375  L 25.04340277777778 11.0859375  Z M 36.9140625 9.582031250000002  L 35.9375 11.902343750000002  L 37.86892361111111 11.902343750000002  L 36.9140625 9.582031250000002  Z M 12.825520833333334 8.572265625  L 15.169270833333334 8.572265625  L 15.169270833333334 14.394531249999998  L 13.736979166666666 14.394531249999998  L 13.736979166666666 9.839843750000002  L 11.69704861111111 14.394531249999998  L 10.460069444444445 14.394531249999998  L 8.42013888888889 9.839843750000002  L 8.42013888888889 14.394531249999998  L 5.555555555555555 14.394531249999998  L 5.013020833333334 13.105468749999998  L 2.083333333333333 13.105468749999998  L 1.5407986111111112 14.394531249999998  L 0.021701388888888888 14.394531249999998  L 2.5390625 8.572265625  L 4.622395833333334 8.572265625  L 7.009548611111111 14.093750000000002  L 7.009548611111111 8.572265625  L 9.309895833333332 8.572265625  L 11.15451388888889 12.525390624999998  L 12.825520833333334 8.572265625  Z M 24.869791666666664 18.605468749999996  C 26.446759259259263 18.605468749999996  27.235243055555557 19.242838541666664  27.235243055555557 20.517578125000004  C 27.235243055555557 20.80403645833333  27.19545717592593 21.054687499999996  27.115885416666668 21.26953125  C 27.036313657407412 21.484375000000004  26.935040509259263 21.663411458333332  26.81206597222222 21.806640625000004  C 26.689091435185187 21.949869791666664  26.526331018518523 22.06803385416666  26.32378472222222 22.161132812500004  C 26.12123842592593 22.25423177083333  25.93315972222222 22.32584635416666  25.75954861111111 22.375976562499996  C 25.5859375 22.426106770833336  25.358072916666668 22.458333333333336  25.07595486111111 22.472656249999996  C 24.793836805555554 22.48697916666666  24.56597222222222 22.494140625  24.39236111111111 22.494140625  C 24.21875 22.494140625  23.983651620370374 22.490559895833336  23.68706597222222 22.483398437500004  C 23.39048032407408 22.476236979166664  23.177083333333336 22.472656249999996  23.046875 22.472656249999996  L 23.046875 24.427734375  L 20.3125 24.427734375  L 18.57638888888889 22.494140625  L 16.77517361111111 24.427734375  L 11.219618055555555 24.427734375  L 11.219618055555555 18.605468749999996  L 16.861979166666664 18.605468749999996  L 18.59809027777778 20.517578125000004  L 20.377604166666664 18.605468749999996  L 24.869791666666664 18.605468749999996  Z M 17.62152777777778 13.191406250000002  L 20.92013888888889 13.191406250000002  L 20.92013888888889 14.394531249999998  L 16.2109375 14.394531249999998  L 16.2109375 8.572265625  L 20.92013888888889 8.572265625  L 20.92013888888889 9.796875  L 17.62152777777778 9.796875  L 17.62152777777778 10.849609374999998  L 20.833333333333336 10.849609374999998  L 20.833333333333336 12.031250000000002  L 17.62152777777778 12.031250000000002  L 17.62152777777778 13.191406250000002  Z M 47.93836805555556 25.56640625  C 48.80642361111111 25.56640625  49.49363425925927 25.444661458333332  50 25.201171875  L 50 30.12109375  C 50 30.908854166666668  49.721498842592595 31.585611979166668  49.16449652777778 32.1513671875  C 48.60749421296296 32.71712239583333  47.93113425925927 33  47.13541666666667 33  L 2.864583333333333 33  C 2.068865740740741 33  1.392505787037037 32.71712239583333  0.8355034722222222 32.1513671875  C 0.2785011574074074 31.585611979166668  0 30.908854166666668  0 30.12109375  L 0 15.554687499999998  L 2.408854166666667 15.554687499999998  L 2.951388888888889 14.244140625  L 4.144965277777778 14.244140625  L 4.6875 15.554687499999998  L 9.418402777777777 15.554687499999998  L 9.418402777777777 14.56640625  L 9.830729166666668 15.554687499999998  L 12.28298611111111 15.554687499999998  L 12.71701388888889 14.544921875000002  L 12.71701388888889 16  L 24.45746527777778 16  L 24.45746527777778 13.427734374999998  L 24.674479166666664 13.40625  C 24.81915509259259 13.40625  24.891493055555554 13.506510416666666  24.891493055555554 13.707031250000002  L 24.891493055555554 15.554687499999998  L 30.946180555555557 15.554687499999998  L 30.946180555555557 15.060546875000002  C 31.278935185185187 15.232421874999998  31.67679398148148 15.361328124999998  32.13975694444444 15.447265625000002  C 32.60271990740741 15.533203125  32.98249421296296 15.579752604166668  33.27907986111111 15.586914062499998  C 33.57566550925927 15.59407552083333  34.03139467592593 15.590494791666664  34.64626736111111 15.576171875000002  C 35.261140046296305 15.56184895833333  35.63368055555556 15.554687499999998  35.76388888888889 15.554687499999998  L 36.30642361111111 14.244140625  L 37.52170138888889 14.244140625  L 38.06423611111111 15.554687499999998  L 42.99045138888889 15.554687499999998  L 42.99045138888889 14.30859375  L 43.72829861111111 15.554687499999998  L 47.67795138888889 15.554687499999998  L 47.67795138888889 7.433593749999999  L 43.77170138888889 7.433593749999999  L 43.77170138888889 8.37890625  L 43.22916666666667 7.433593749999999  L 39.21440972222222 7.433593749999999  L 39.21440972222222 8.37890625  L 38.71527777777778 7.433593749999999  L 33.31163194444444 7.433593749999999  C 32.31336805555556 7.433593749999999  31.524884259259263 7.591145833333333  30.946180555555557 7.906250000000001  L 30.946180555555557 7.433593749999999  L 27.213541666666668 7.433593749999999  L 27.213541666666668 7.906250000000001  C 26.866319444444443 7.591145833333333  26.338252314814813 7.433593749999999  25.62934027777778 8  L 12.000868055555555 8  L 11.067708333333332 9.517578125000002  L 10.13454861111111 7.433593749999999  L 5.837673611111112 7.433593749999999  L 5.837673611111112 8.37890625  L 5.360243055555555 7.433593749999999  L 1.6927083333333333 7.433593749999999  L 0 11.279296875  L 0 2.8789062500000013  C 0 2.0911458333333304  0.2785011574074074 1.4143880208333304  0.8355034722222222 0.8486328125000012  C 1.392505787037037 0.28287760416666463  2.068865740740741 0  2.864583333333333 0  L 47.13541666666667 0  C 47.93113425925927 0  48.60749421296296 0.28287760416666463  49.16449652777778 0.8486328125000012  C 49.721498842592595 1.4143880208333304  50 2.0911458333333304  50 2.8789062500000013  L 50 17.445312499999996  L 47.39583333333333 17.445312499999996  C 46.65798611111111 17.445312499999996  46.07204861111111 17.602864583333332  45.63802083333333 17.91796875  L 45.63802083333333 17.445312499999996  L 41.796875 17.445312499999996  C 41.00115740740741 17.445312499999996  40.436921296296305 17.602864583333332  40.10416666666667 17.91796875  L 40.10416666666667 17.445312499999996  L 33.24652777777778 17.445312499999996  L 33.24652777777778 17.91796875  C 32.79803240740741 17.602864583333332  32.16869212962963 17.445312499999996  31.358506944444443 17.445312499999996  L 26.822916666666668 17.445312499999996  L 26.822916666666668 17.91796875  C 26.49016203703704 17.602864583333332  25.831886574074076 17.445312499999996  24.84809027777778 17.445312499999996  L 19.76996527777778 17.445312499999996  L 18.59809027777778 18.69140625  L 17.513020833333336 17.445312499999996  L 9.93923611111111 17.445312499999996  L 9.93923611111111 25.56640625  L 17.3828125 25.56640625  L 18.57638888888889 24.298828125  L 19.70486111111111 25.56640625  L 24.283854166666664 25.56640625  L 24.283854166666664 23.654296875  L 24.739583333333336 23.654296875  C 25.5931712962963 23.654296875  26.244212962962965 23.561197916666664  26.692708333333332 23.374999999999996  L 26.692708333333332 25.56640625  L 30.46875 25.56640625  L 30.46875 23.439453124999996  L 30.64236111111111 23.439453124999996  C 30.758101851851855 23.439453124999996  30.830439814814813 23.45377604166666  30.859375 23.482421875000004  C 30.888310185185187 23.51106770833333  30.90277777777778 23.58268229166666  30.90277777777778 23.697265624999996  L 30.90277777777778 25  L 42.3828125 25  C 43.207465277777786 25.56640625  43.844039351851855 25.39453125  44.29253472222222 25.05078125  L 44.29253472222222 25.56640625  L 47.93836805555556 25.56640625  Z M 32.92100694444444 18.927734374999996  C 33.34056712962963 19.142578125  33.55034722222222 19.557942708333336  33.55034722222222 20.173828125  C 33.55034722222222 20.503255208333332  33.46354166666667 20.81119791666666  33.28993055555556 21.097656250000004  C 33.11631944444444 21.38411458333333  32.870370370370374 21.591796875  32.55208333333333 21.720703125  C 32.91377314814815 21.849609375  33.15972222222222 22.03580729166666  33.28993055555556 22.279296874999996  C 33.42013888888889 22.522786458333336  33.48524305555556 22.852213541666664  33.48524305555556 23.267578125  L 33.48524305555556 24.427734375  L 32.07465277777778 24.427734375  L 32.07465277777778 23.4609375  C 32.07465277777778 22.988281249999996  31.98784722222222 22.676757812500004  31.81423611111111 22.5263671875  C 31.640625 22.375976562499996  31.307870370370374 22.30078125  30.81597222222222 22.30078125  L 29.31857638888889 22.30078125  L 29.31857638888889 24.427734375  L 27.90798611111111 24.427734375  L 27.90798611111111 18.605468749999996  L 31.25 18.605468749999996  C 31.944444444444443 18.605468749999996  32.50144675925926 18.712890625000004  32.92100694444444 18.927734374999996  Z M 26.90972222222222 8.905273437500002  C 27.329282407407412 9.112955729166664  27.5390625 9.524739583333332  27.5390625 10.140624999999998  C 27.5390625 10.484375000000002  27.4486400462963 10.799479166666663  27.26779513888889 11.0859375  C 27.08695023148148 11.37239583333333  26.844618055555557 11.580078125000002  26.54079861111111 11.708984375000002  C 26.916956018518523 11.837890625000002  27.166521990740744 12.0205078125  27.28949652777778 12.256835937500002  C 27.412471064814813 12.493164062499998  27.473958333333332 12.826171875  27.473958333333332 13.255859375000002  L 27.473958333333332 14.394531249999998  L 26.063368055555557 14.394531249999998  C 26.063368055555557 14.265624999999998  26.066984953703702 14.075846354166664  26.07421875 13.8251953125  C 26.0814525462963 13.574544270833332  26.0814525462963 13.395507812499998  26.07421875 13.288085937500002  C 26.066984953703702 13.1806640625  26.045283564814813 13.04817708333333  26.009114583333332 12.890625  C 25.972945601851855 12.733072916666663  25.911458333333332 12.618489583333332  25.82465277777778 12.546875000000002  C 25.73784722222222 12.475260416666666  25.61125578703704 12.414388020833332  25.44487847222222 12.364257812499998  C 25.278501157407412 12.314127604166666  25.065104166666668 12.289062500000002  24.8046875 12.289062500000002  L 23.28559027777778 12.289062500000002  L 23.28559027777778 14.394531249999998  L 21.89670138888889 14.394531249999998  L 21.89670138888889 8.572265625  L 25.21701388888889 8.593749999999998  C 25.92592592592593 8.593749999999998  26.49016203703704 8.69759114583333  26.90972222222222 8.905273437500002  Z M 35.7421875 23.203125  L 39.01909722222222 23.224609375000004  L 39.01909722222222 24.427734375  L 34.33159722222222 24.427734375  L 34.33159722222222 18.605468749999996  L 39.01909722222222 18.605468749999996  L 39.01909722222222 19.808593750000004  L 35.7421875 19.808593750000004  L 35.7421875 20.861328124999996  L 38.95399305555556 20.861328124999996  L 38.95399305555556 22.04296875  L 35.7421875 22.04296875  L 35.7421875 23.203125  Z M 28.34201388888889 8.572265625  L 29.774305555555557 8.572265625  L 29.774305555555557 14.394531249999998  L 28.34201388888889 14.394531249999998  L 28.34201388888889 8.572265625  Z M 44.43359375 21.409179687499996  C 44.68677662037038 21.67415364583333  44.81336805555556 22.064453125000004  44.81336805555556 22.580078125000004  C 44.81336805555556 23.811848958333336  44.07552083333333 24.427734375  42.59982638888889 24.427734375  L 39.86545138888889 24.427734375  L 39.86545138888889 23.181640624999996  L 42.59982638888889 23.181640624999996  C 43.09172453703704 23.181640624999996  43.33767361111111 23.00260416666666  43.33767361111111 22.644531250000004  C 43.33767361111111 22.41536458333333  43.214699074074076 22.264973958333336  42.96875 22.193359375000004  C 42.72280092592593 22.121744791666664  42.42259837962963 22.085937499999996  42.06814236111111 22.085937499999996  C 41.713686342592595 22.085937499999996  41.35561342592593 22.06087239583333  40.99392361111111 22.0107421875  C 40.632233796296305 21.960611979166664  40.328414351851855 21.799479166666664  40.08246527777778 21.52734375  C 39.83651620370371 21.25520833333333  39.71354166666667 20.861328124999996  39.71354166666667 20.345703124999996  C 39.71354166666667 19.787109375  39.90162037037038 19.357421875000004  40.27777777777778 19.056640624999996  C 40.65393518518518 18.755859375  41.13136574074075 18.605468749999996  41.71006944444444 18.605468749999996  L 44.53125 18.605468749999996  L 44.53125 19.830078124999996  L 41.94878472222222 19.830078124999996  C 41.42795138888889 19.830078124999996  41.16753472222222 20.009114583333336  41.16753472222222 20.3671875  C 41.16753472222222 20.596354166666664  41.29412615740741 20.743164062500004  41.54730902777778 20.807617187500004  C 41.80049189814816 20.872070312500004  42.104311342592595 20.90071614583333  42.45876736111111 20.893554687499996  C 42.81322337962963 20.886393229166664  43.16767939814815 20.904296875000004  43.52213541666667 20.947265625  C 43.87659143518518 20.990234374999996  44.18041087962963 21.144205729166664  44.43359375 21.409179687499996  Z M 48.77387152777778 20.947265625  C 49.34534143518518 20.990234374999996  49.75405092592593 21.176432291666664  50 21.505859374999996  L 50 23.675781250000004  C 49.65277777777778 24.177083333333332  49.01620370370371 24.427734375  48.09027777777778 24.427734375  L 45.37760416666667 24.427734375  L 45.37760416666667 23.181640624999996  L 48.09027777777778 23.181640624999996  C 48.56770833333333 23.181640624999996  48.80642361111111 23.00260416666666  48.80642361111111 22.644531250000004  C 48.80642361111111 22.458333333333336  48.71600115740741 22.322265625000004  48.53515625 22.236328125  C 48.354311342592595 22.150390624999996  48.13006365740741 22.111002604166664  47.86241319444444 22.118164062499996  C 47.59476273148149 22.12532552083333  47.30541087962963 22.111002604166664  46.99435763888889 22.0751953125  C 46.68330439814816 22.039388020833336  46.393952546296305 21.982096354166664  46.12630208333333 21.903320312500004  C 45.85865162037038 21.824544270833332  45.63440393518518 21.652669270833336  45.45355902777778 21.387695312500004  C 45.27271412037038 21.122721354166664  45.18229166666667 20.775390625000004  45.18229166666667 20.345703124999996  C 45.18229166666667 19.787109375  45.373987268518526 19.357421875000004  45.75737847222222 19.056640624999996  C 46.14076967592593 18.755859375  46.62181712962963 18.605468749999996  47.20052083333333 18.605468749999996  L 50 18.605468749999996  L 50 19.830078124999996  L 47.43923611111111 19.830078124999996  C 46.91840277777778 19.830078124999996  46.65798611111111 20.009114583333336  46.65798611111111 20.3671875  C 46.65798611111111 20.653645833333336  46.86776620370371 20.81119791666666  47.28732638888889 20.839843750000004  C 47.706886574074076 20.86848958333333  48.20240162037038 20.904296875000004  48.77387152777778 20.947265625  Z M 44.98697916666667 8.593749999999998  L 46.41927083333333 8.593749999999998  L 46.41927083333333 14.394531249999998  L 44.42274305555556 14.394531249999998  L 41.77517361111111 10.033203125000002  L 41.77517361111111 14.394531249999998  L 38.91059027777778 14.394531249999998  L 38.34635416666667 13.105468749999998  L 35.43836805555556 13.105468749999998  L 34.89583333333333 14.394531249999998  L 33.26822916666667 14.394531249999998  C 31.40190972222222 14.394531249999998  30.46875 13.442057291666666  30.46875 11.537109375  C 30.46875 9.560546874999998  31.430844907407412 8.572265625  33.35503472222222 8.572265625  L 34.72222222222222 8.572265625  L 34.72222222222222 9.839843750000002  C 34.620949074074076 9.839843750000002  34.418402777777786 9.832682291666663  34.11458333333333 9.818359374999998  C 33.81076388888889 9.804036458333332  33.60460069444445 9.800455729166663  33.49609375 9.807617187500002  C 33.38758680555556 9.814778645833332  33.22120949074074 9.8291015625  32.99696180555556 9.850585937499998  C 32.772714120370374 9.872070312500002  32.6171875 9.918619791666664  32.53038194444444 9.990234375  C 32.44357638888889 10.061848958333332  32.338686342592595 10.158528645833332  32.21571180555556 10.2802734375  C 32.092737268518526 10.402018229166664  32.00954861111111 10.56673177083333  31.966145833333332 10.774414062500002  C 31.922743055555557 10.982096354166664  31.901041666666668 11.222005208333332  31.901041666666668 11.494140624999998  C 31.901041666666668 12.038411458333332  31.998697916666668 12.453776041666668  32.19401041666667 12.740234375000002  C 32.38932291666667 13.026692708333332  32.74739583333333 13.169921874999998  33.26822916666667 13.169921874999998  L 33.89756944444444 13.169921874999998  L 35.89409722222222 8.593749999999998  L 37.99913194444444 8.593749999999998  L 40.36458333333333 14.093750000000002  L 40.36458333333333 8.593749999999998  L 42.51302083333333 8.593749999999998  L 44.98697916666667 12.6328125  L 44.98697916666667 8.593749999999998  Z " fill-rule="nonzero" fill="#7f7f7f" stroke="none" transform="matrix(1 0 0 1 593 134 )" />
  </g>
</svg>