<?xml version="1.0" encoding="utf-8"?>
<svg version="1.1" xmlns:xlink="http://www.w3.org/1999/xlink" width="50px" height="33px" xmlns="http://www.w3.org/2000/svg">
  <g transform="matrix(1 0 0 1 -470 -134 )">
    <path d="M 20.43185763888889 10.269531249999998  C 21.119068287037038 8.006510416666664  22.403067129629633 6.108723958333333  24.283854166666664 4.576171875  C 22.432002314814817 3.3587239583333317  20.399305555555554 2.7500000000000013  18.18576388888889 2.7500000000000013  C 16.69560185185185 2.7500000000000013  15.266927083333334 3.0400390625000013  13.899739583333334 3.6201171875000013  C 12.532552083333334 4.200195312500001  11.357060185185187 4.977213541666663  10.37326388888889 5.951171874999999  C 9.389467592592593 6.92513020833333  8.604600694444445 8.08528645833333  8.018663194444445 9.431640624999998  C 7.432725694444445 10.777994791666664  7.139756944444445 12.188802083333332  7.139756944444445 13.6640625  C 7.139756944444445 15.153645833333332  7.432725694444445 16.571614583333332  8.018663194444445 17.91796875  C 8.604600694444445 19.264322916666668  9.389467592592593 20.42447916666666  10.37326388888889 21.3984375  C 11.357060185185187 22.372395833333332  12.528935185185187 23.149414062499996  13.88888888888889 23.729492187499996  C 15.248842592592593 24.309570312499996  16.681134259259263 24.599609374999996  18.18576388888889 24.599609374999996  C 20.399305555555554 24.599609374999996  22.432002314814817 23.990885416666664  24.283854166666664 22.773437500000004  C 22.388599537037038 21.240885416666664  21.100983796296298 19.339518229166664  20.421006944444446 17.069335937500004  C 19.74103009259259 14.799153645833332  19.744646990740744 12.53255208333333  20.43185763888889 10.269531249999998  Z M 28.73263888888889 10.452148437500002  C 28.067129629629633 8.296549479166664  26.822916666666668 6.509765625  25 5.091796875  C 23.177083333333336 6.509765625  21.932870370370374 8.296549479166664  21.26736111111111 10.452148437500002  C 20.60185185185185 12.607747395833332  20.598234953703706 14.759765624999996  21.256510416666664 16.908203125000004  C 21.91478587962963 19.056640624999996  23.162615740740744 20.839843750000004  25 22.257812500000004  C 26.837384259259263 20.839843750000004  28.085214120370374 19.056640624999996  28.743489583333332 16.908203125000004  C 29.4017650462963 14.759765624999996  29.398148148148152 12.607747395833332  28.73263888888889 10.452148437500002  Z M 31.81423611111111 2.7500000000000013  C 29.600694444444443 2.7500000000000013  27.567997685185187 3.3587239583333317  25.716145833333332 4.576171875  C 27.596932870370374 6.108723958333333  28.880931712962965 8.010091145833332  29.56814236111111 10.2802734375  C 30.255353009259263 12.550455729166664  30.258969907407412 14.82063802083333  29.578993055555557 17.090820312499996  C 28.899016203703702 19.361002604166668  27.611400462962965 21.25520833333333  25.716145833333332 22.773437500000004  C 27.567997685185187 23.990885416666664  29.600694444444443 24.599609374999996  31.81423611111111 24.599609374999996  C 33.31886574074075 24.599609374999996  34.75115740740741 24.309570312499996  36.11111111111111 23.729492187499996  C 37.47106481481482 23.149414062499996  38.64293981481482 22.372395833333332  39.62673611111111 21.3984375  C 40.61053240740741 20.42447916666666  41.39539930555556 19.264322916666668  41.98133680555556 17.91796875  C 42.56727430555556 16.571614583333332  42.86024305555556 15.153645833333332  42.86024305555556 13.6640625  C 42.86024305555556 12.188802083333332  42.56727430555556 10.777994791666664  41.98133680555556 9.431640624999998  C 41.39539930555556 8.08528645833333  40.61053240740741 6.92513020833333  39.62673611111111 5.951171874999999  C 38.64293981481482 4.977213541666663  37.46744791666667 4.200195312500001  36.10026041666667 3.6201171875000013  C 34.73307291666667 3.0400390625000013  33.30439814814816 2.7500000000000013  31.81423611111111 2.7500000000000013  Z M 41.796875 20.453125000000004  L 41.796875 20.087890624999996  L 41.94878472222222 20.087890624999996  L 41.94878472222222 20.023437499999996  L 41.57986111111111 20.023437499999996  L 41.57986111111111 20.087890624999996  L 41.73177083333333 20.087890624999996  L 41.73177083333333 20.453125000000004  L 41.796875 20.453125000000004  Z M 42.42621527777778 20.130859375000004  L 42.42621527777778 20.453125000000004  L 42.51302083333333 20.453125000000004  L 42.51302083333333 20.023437499999996  L 42.40451388888889 20.023437499999996  L 42.27430555555556 20.302734375  L 42.14409722222222 20.023437499999996  L 42.03559027777778 20.023437499999996  L 42.03559027777778 20.453125000000004  L 42.10069444444444 20.453125000000004  L 42.10069444444444 20.130859375000004  L 42.23090277777778 20.410156249999996  L 42.31770833333333 20.410156249999996  L 42.42621527777778 20.130859375000004  Z M 42.25260416666667 29.884765625  L 42.25260416666667 29.90625  L 42.25260416666667 29.94921875  L 42.20920138888889 29.94921875  L 42.14409722222222 29.94921875  L 42.14409722222222 29.884765625  L 42.20920138888889 29.884765625  L 42.25260416666667 29.884765625  Z M 42.16579861111111 29.9921875  L 42.25260416666667 30.099609375  L 42.31770833333333 30.099609375  L 42.23090277777778 29.9921875  L 42.27430555555556 29.9921875  L 42.29600694444444 29.970703125  C 42.310474537037045 29.956380208333332  42.317708333333336 29.934895833333332  42.31770833333333 29.90625  C 42.317708333333336 29.877604166666668  42.310474537037045 29.856119791666668  42.29600694444444 29.841796875  L 42.27430555555556 29.8203125  L 42.20920138888889 29.8203125  L 42.07899305555556 29.8203125  L 42.07899305555556 30.099609375  L 42.14409722222222 30.099609375  L 42.14409722222222 29.9921875  L 42.16579861111111 29.9921875  Z M 15.104166666666666 29.3046875  C 14.94502314814815 29.1328125  14.86545138888889 28.910807291666668  14.86545138888889 28.638671875  C 14.86545138888889 28.366536458333332  14.94502314814815 28.14453125  15.104166666666666 27.97265625  C 15.263310185185187 27.80078125  15.480324074074076 27.71484375  15.755208333333334 27.71484375  C 16.015625 27.71484375  16.22540509259259 27.804361979166668  16.38454861111111 27.9833984375  C 16.54369212962963 28.162434895833332  16.62326388888889 28.380859375  16.62326388888889 28.638671875  C 16.62326388888889 28.910807291666668  16.54369212962963 29.1328125  16.38454861111111 29.3046875  C 16.22540509259259 29.4765625  16.015625 29.5625  15.755208333333334 29.5625  C 15.480324074074076 29.5625  15.263310185185187 29.4765625  15.104166666666666 29.3046875  Z M 24.37065972222222 28.380859375  C 24.44299768518519 27.922526041666668  24.696180555555554 27.693359375  25.130208333333332 27.693359375  C 25.56423611111111 27.693359375  25.81741898148148 27.922526041666668  25.889756944444443 28.380859375  L 24.37065972222222 28.380859375  Z M 33.09461805555556 29.3046875  C 32.93547453703704 29.1328125  32.85590277777778 28.910807291666668  32.85590277777778 28.638671875  C 32.85590277777778 28.366536458333332  32.93547453703704 28.14453125  33.09461805555556 27.97265625  C 33.25376157407407 27.80078125  33.46354166666667 27.71484375  33.72395833333333 27.71484375  C 33.98437500000001 27.71484375  34.19777199074075 27.804361979166668  34.36414930555556 27.9833984375  C 34.530526620370374 28.162434895833332  34.61371527777778 28.380859375  34.61371527777778 28.638671875  C 34.61371527777778 28.910807291666668  34.534143518518526 29.1328125  34.375 29.3046875  C 34.21585648148148 29.4765625  33.998842592592595 29.5625  33.72395833333333 29.5625  C 33.46354166666667 29.5625  33.25376157407407 29.4765625  33.09461805555556 29.3046875  Z M 39.00824652777778 29.2939453125  C 38.84186921296296 29.114908854166668  38.75868055555556 28.896484375  38.75868055555556 28.638671875  C 38.75868055555556 28.380859375  38.84186921296296 28.162434895833332  39.00824652777778 27.9833984375  C 39.174623842592595 27.804361979166668  39.388020833333336 27.71484375  39.6484375 27.71484375  C 39.90885416666667 27.71484375  40.12225115740741 27.804361979166668  40.28862847222222 27.9833984375  C 40.45500578703704 28.162434895833332  40.53819444444444 28.380859375  40.53819444444444 28.638671875  C 40.53819444444444 28.910807291666668  40.45500578703704 29.1328125  40.28862847222222 29.3046875  C 40.12225115740741 29.4765625  39.90885416666667 29.5625  39.6484375 29.5625  C 39.388020833333336 29.5625  39.174623842592595 29.472981770833332  39.00824652777778 29.2939453125  Z M 42.27430555555556 30.1640625  C 42.25983796296296 30.178385416666668  42.230902777777786 30.185546875  42.1875 30.185546875  C 42.15856481481482 30.185546875  42.12962962962963 30.178385416666668  42.10069444444444 30.1640625  C 42.086226851851855 30.1640625  42.06452546296296 30.149739583333332  42.03559027777778 30.12109375  C 42.006655092592595 30.092447916666668  41.99218750000001 30.070963541666668  41.9921875 30.056640625  C 41.97771990740741 30.027994791666668  41.97048611111111 29.999348958333332  41.97048611111111 29.970703125  C 41.97048611111111 29.927734375  41.97771990740741 29.899088541666668  41.9921875 29.884765625  C 41.99218750000001 29.856119791666668  42.006655092592595 29.827473958333332  42.03559027777778 29.798828125  L 42.05729166666667 29.77734375  C 42.086226851851855 29.77734375  42.10069444444444 29.770182291666668  42.10069444444444 29.755859375  C 42.12962962962963 29.741536458333332  42.15856481481482 29.734375  42.1875 29.734375  C 42.230902777777786 29.734375  42.25983796296296 29.741536458333332  42.27430555555556 29.755859375  L 42.36111111111111 29.798828125  L 42.40451388888889 29.884765625  L 42.40451388888889 29.90625  C 42.41898148148148 29.934895833333332  42.42621527777778 29.956380208333332  42.42621527777778 29.970703125  L 42.40451388888889 29.9921875  L 42.40451388888889 30.056640625  C 42.40451388888889 30.056640625  42.397280092592595 30.063802083333332  42.3828125 30.078125  L 42.36111111111111 30.12109375  C 42.33217592592593 30.149739583333332  42.30324074074075 30.1640625  42.27430555555556 30.1640625  Z M 12.999131944444445 28.48828125  L 12.999131944444445 30.099609375  L 13.65017361111111 30.099609375  L 13.65017361111111 28.2734375  C 13.65017361111111 27.9296875  13.545283564814817 27.653971354166668  13.335503472222221 27.4462890625  C 13.125723379629632 27.238606770833332  12.839988425925927 27.127604166666668  12.47829861111111 27.11328125  C 12.015335648148149 27.11328125  11.675347222222223 27.28515625  11.458333333333332 27.62890625  C 11.25578703703704 27.28515625  10.930266203703704 27.11328125  10.481770833333332 27.11328125  C 10.134548611111112 27.11328125  9.852430555555557 27.256510416666668  9.635416666666668 27.54296875  L 9.635416666666668 27.19921875  L 8.984375 27.19921875  L 8.984375 30.099609375  L 9.635416666666668 30.099609375  L 9.635416666666668 28.48828125  C 9.635416666666668 27.97265625  9.874131944444446 27.71484375  10.3515625 27.71484375  C 10.785590277777779 27.71484375  11.002604166666668 27.97265625  11.002604166666668 28.48828125  L 11.002604166666668 30.099609375  L 11.631944444444445 30.099609375  L 11.631944444444445 28.48828125  C 11.631944444444445 27.97265625  11.870659722222223 27.71484375  12.348090277777777 27.71484375  C 12.782118055555555 27.71484375  12.999131944444445 27.97265625  12.999131944444445 28.48828125  Z M 16.6015625 29.734375  L 16.6015625 30.099609375  L 17.23090277777778 30.099609375  L 17.23090277777778 28.638671875  L 17.23090277777778 27.19921875  L 16.6015625 27.19921875  L 16.6015625 27.54296875  C 16.355613425925927 27.256510416666668  16.044560185185187 27.11328125  15.668402777777779 27.11328125  C 15.248842592592593 27.11328125  14.901620370370372 27.256510416666668  14.62673611111111 27.54296875  C 14.351851851851851 27.829427083333332  14.214409722222221 28.194661458333332  14.214409722222221 28.638671875  C 14.214409722222221 29.082682291666668  14.351851851851851 29.447916666666668  14.62673611111111 29.734375  C 14.901620370370372 30.020833333333332  15.248842592592593 30.1640625  15.668402777777779 30.1640625  C 16.073495370370374 30.1640625  16.38454861111111 30.020833333333332  16.6015625 29.734375  Z M 20.106336805555554 29.90625  C 20.345052083333336 29.734375  20.46440972222222 29.505208333333332  20.46440972222222 29.21875  C 20.46440972222222 28.731770833333332  20.124421296296298 28.4453125  19.444444444444446 28.359375  L 19.140625 28.31640625  C 18.807870370370374 28.259114583333332  18.641493055555554 28.158854166666668  18.641493055555554 28.015625  C 18.641493055555554 27.80078125  18.822337962962965 27.693359375  19.18402777777778 27.693359375  C 19.51678240740741 27.693359375  19.827835648148152 27.772135416666668  20.1171875 27.9296875  L 20.377604166666664 27.4140625  C 20.05931712962963 27.213541666666668  19.661458333333336 27.11328125  19.18402777777778 27.11328125  C 18.807870370370374 27.11328125  18.511284722222225 27.19921875  18.294270833333336 27.37109375  C 18.077256944444446 27.54296875  17.968750000000004 27.772135416666668  17.96875 28.05859375  C 17.968750000000004 28.53125  18.308738425925927 28.810546875  18.98871527777778 28.896484375  L 19.270833333333336 28.939453125  C 19.618055555555557 28.996744791666668  19.791666666666668 29.097005208333332  19.791666666666664 29.240234375  C 19.791666666666668 29.483723958333332  19.56741898148148 29.60546875  19.11892361111111 29.60546875  C 18.757233796296298 29.60546875  18.431712962962965 29.505208333333332  18.14236111111111 29.3046875  L 17.860243055555554 29.798828125  C 18.221932870370374 30.042317708333332  18.641493055555554 30.1640625  19.11892361111111 30.1640625  C 19.538483796296298 30.1640625  19.86762152777778 30.078125  20.106336805555554 29.90625  Z M 22.50434027777778 30.1640625  C 22.80815972222222 30.1640625  23.06857638888889 30.092447916666668  23.28559027777778 29.94921875  L 23.111979166666664 29.412109375  C 22.923900462962965 29.512369791666668  22.735821759259263 29.5625  22.547743055555554 29.5625  C 22.272858796296298 29.5625  22.135416666666668 29.404947916666668  22.135416666666664 29.08984375  L 22.135416666666664 27.779296875  L 23.177083333333336 27.779296875  L 23.177083333333336 27.19921875  L 22.135416666666664 27.19921875  L 22.135416666666664 26.318359375  L 21.484375 26.318359375  L 21.484375 27.19921875  L 20.87673611111111 27.19921875  L 20.87673611111111 27.779296875  L 21.484375 27.779296875  L 21.484375 29.08984375  C 21.484375000000004 29.805989583333332  21.824363425925927 30.1640625  22.50434027777778 30.1640625  Z M 26.15017361111111 27.5322265625  C 25.889756944444443 27.2529296875  25.557002314814813 27.11328125  25.15190972222222 27.11328125  C 24.732349537037038 27.11328125  24.385127314814817 27.256510416666668  24.110243055555554 27.54296875  C 23.835358796296298 27.829427083333332  23.697916666666664 28.194661458333332  23.697916666666664 28.638671875  C 23.697916666666664 29.097005208333332  23.838975694444446 29.4658203125  24.12109375 29.7451171875  C 24.403211805555554 30.0244140625  24.76128472222222 30.1640625  25.1953125 30.1640625  C 25.672743055555557 30.1640625  26.070601851851855 30.027994791666668  26.38888888888889 29.755859375  L 26.085069444444443 29.283203125  C 25.82465277777778 29.498046875  25.54253472222222 29.60546875  25.23871527777778 29.60546875  C 24.746817129629633 29.60546875  24.45023148148148 29.369140625  24.348958333333336 28.896484375  L 26.54079861111111 28.896484375  L 26.54079861111111 28.638671875  C 26.54079861111111 28.180338541666668  26.41059027777778 27.8115234375  26.15017361111111 27.5322265625  Z M 29.05815972222222 27.19921875  C 28.92795138888889 27.141927083333332  28.776041666666668 27.11328125  28.602430555555557 27.11328125  C 28.26967592592593 27.11328125  28.016493055555557 27.256510416666668  27.842881944444443 27.54296875  L 27.842881944444443 27.19921875  L 27.19184027777778 27.19921875  L 27.19184027777778 30.099609375  L 27.842881944444443 30.099609375  L 27.842881944444443 28.466796875  C 27.842881944444443 27.965494791666668  28.05266203703704 27.71484375  28.47222222222222 27.71484375  C 28.616898148148152 27.71484375  28.74710648148148 27.743489583333332  28.86284722222222 27.80078125  L 29.05815972222222 27.19921875  Z M 29.676649305555557 27.54296875  C 29.39453125 27.829427083333332  29.25347222222222 28.194661458333332  29.25347222222222 28.638671875  C 29.25347222222222 29.082682291666668  29.39453125 29.447916666666668  29.676649305555557 29.734375  C 29.95876736111111 30.020833333333332  30.338541666666668 30.1640625  30.81597222222222 30.1640625  C 31.235532407407412 30.1640625  31.582754629629633 30.049479166666668  31.85763888888889 29.8203125  L 31.553819444444443 29.3046875  C 31.29340277777778 29.490885416666668  31.040219907407412 29.576822916666668  30.794270833333332 29.5625  C 30.533854166666668 29.5625  30.32045717592593 29.4765625  30.15407986111111 29.3046875  C 29.9877025462963 29.1328125  29.90451388888889 28.910807291666668  29.90451388888889 28.638671875  C 29.90451388888889 28.366536458333332  29.9877025462963 28.14453125  30.15407986111111 27.97265625  C 30.32045717592593 27.80078125  30.533854166666668 27.71484375  30.794270833333332 27.71484375  C 31.06915509259259 27.71484375  31.322337962962965 27.80078125  31.553819444444443 27.97265625  L 31.85763888888889 27.45703125  C 31.56828703703704 27.227864583333332  31.221064814814813 27.11328125  30.81597222222222 27.11328125  C 30.338541666666668 27.11328125  29.95876736111111 27.256510416666668  29.676649305555557 27.54296875  Z M 34.5703125 29.734375  L 34.5703125 30.099609375  L 35.22135416666667 30.099609375  L 35.22135416666667 28.638671875  L 35.22135416666667 27.19921875  L 34.5703125 27.19921875  L 34.5703125 27.54296875  C 34.353298611111114 27.256510416666668  34.04947916666667 27.11328125  33.65885416666667 27.11328125  C 33.23929398148148 27.11328125  32.88845486111111 27.256510416666668  32.60633680555556 27.54296875  C 32.32421875 27.829427083333332  32.18315972222222 28.194661458333332  32.18315972222222 28.638671875  C 32.18315972222222 29.082682291666668  32.32421875 29.447916666666668  32.60633680555556 29.734375  C 32.88845486111111 30.020833333333332  33.23929398148148 30.1640625  33.65885416666667 30.1640625  C 34.06394675925926 30.1640625  34.3677662037037 30.020833333333332  34.5703125 29.734375  Z M 37.91232638888889 27.19921875  C 37.79658564814815 27.141927083333332  37.64467592592593 27.11328125  37.45659722222222 27.11328125  C 37.123842592592595 27.11328125  36.87065972222222 27.256510416666668  36.69704861111111 27.54296875  L 36.69704861111111 27.19921875  L 36.06770833333333 27.19921875  L 36.06770833333333 30.099609375  L 36.69704861111111 30.099609375  L 36.69704861111111 28.466796875  C 36.69704861111111 27.965494791666668  36.9068287037037 27.71484375  37.32638888888889 27.71484375  C 37.47106481481482 27.71484375  37.60127314814815 27.743489583333332  37.71701388888889 27.80078125  L 37.91232638888889 27.19921875  Z M 40.49479166666667 29.734375  L 40.49479166666667 30.099609375  L 41.12413194444444 30.099609375  L 41.12413194444444 28.638671875  L 41.12413194444444 26.017578125  L 40.49479166666667 26.017578125  L 40.49479166666667 27.54296875  C 40.277777777777786 27.256510416666668  39.966724537037045 27.11328125  39.56163194444444 27.11328125  C 39.156539351851855 27.11328125  38.81293402777778 27.260091145833332  38.53081597222222 27.5537109375  C 38.24869791666667 27.847330729166668  38.10763888888889 28.208984375  38.10763888888889 28.638671875  C 38.10763888888889 29.068359375  38.24869791666667 29.430013020833332  38.53081597222222 29.7236328125  C 38.81293402777778 30.017252604166668  39.156539351851855 30.1640625  39.56163194444444 30.1640625  C 39.98119212962963 30.1640625  40.292245370370374 30.020833333333332  40.49479166666667 29.734375  Z M 42.25260416666667 29.6806640625  C 42.22366898148148 29.673502604166668  42.201967592592595 29.669921875  42.1875 29.669921875  L 42.14409722222222 29.69140625  L 42.07899305555556 29.69140625  C 42.050057870370374 29.705729166666668  42.02112268518518 29.727213541666668  41.9921875 29.755859375  C 41.94878472222223 29.770182291666668  41.927083333333336 29.798828125  41.92708333333333 29.841796875  C 41.91261574074075 29.870442708333332  41.90538194444444 29.913411458333332  41.90538194444444 29.970703125  C 41.90538194444444 30.013671875  41.91261574074075 30.049479166666668  41.92708333333333 30.078125  C 41.927083333333336 30.106770833333332  41.94878472222223 30.135416666666668  41.9921875 30.1640625  C 42.02112268518518 30.192708333333332  42.050057870370374 30.214192708333332  42.07899305555556 30.228515625  C 42.10792824074075 30.242838541666668  42.14409722222223 30.25  42.1875 30.25  C 42.245370370370374 30.25  42.28877314814815 30.242838541666668  42.31770833333333 30.228515625  C 42.317708333333336 30.214192708333332  42.33217592592593 30.199869791666668  42.36111111111111 30.185546875  L 42.40451388888889 30.1640625  C 42.41898148148148 30.149739583333332  42.440682870370374 30.12109375  42.46961805555556 30.078125  C 42.48408564814815 30.049479166666668  42.49131944444444 30.013671875  42.49131944444444 29.970703125  C 42.49131944444444 29.913411458333332  42.48408564814815 29.870442708333332  42.46961805555556 29.841796875  C 42.45515046296296 29.827473958333332  42.433449074074076 29.798828125  42.40451388888889 29.755859375  C 42.40451388888889 29.741536458333332  42.390046296296305 29.727213541666668  42.36111111111111 29.712890625  L 42.31770833333333 29.69140625  C 42.30324074074075 29.69140625  42.281539351851855 29.687825520833332  42.25260416666667 29.6806640625  Z M 49.17534722222222 0.8164062500000012  C 49.72511574074075 1.3606770833333317  50 2.0052083333333317  50 2.7500000000000013  L 50 30.25  C 50 30.994791666666668  49.72511574074075 31.639322916666668  49.17534722222222 32.18359375  C 48.62557870370371 32.727864583333336  47.974537037037045 33  47.22222222222222 33  L 2.7777777777777777 33  C 2.0254629629629632 33  1.3744212962962963 32.727864583333336  0.8246527777777778 32.18359375  C 0.27488425925925924 31.639322916666668  0 30.994791666666668  0 30.25  L 0 2.7500000000000013  C 0 2.0052083333333317  0.27488425925925924 1.3606770833333317  0.8246527777777778 0.8164062500000012  C 1.3744212962962963 0.2721354166666634  2.0254629629629632 0  2.7777777777777777 0  L 47.22222222222222 0  C 47.974537037037045 0  48.62557870370371 0.2721354166666634  49.17534722222222 0.8164062500000012  Z " fill-rule="nonzero" fill="#7f7f7f" stroke="none" transform="matrix(1 0 0 1 470 134 )" />
  </g>
</svg>