<?xml version="1.0" encoding="utf-8"?>
<svg version="1.1" xmlns:xlink="http://www.w3.org/1999/xlink" width="50px" height="33px" xmlns="http://www.w3.org/2000/svg">
  <g transform="matrix(1 0 0 1 -406 -134 )">
    <path d="M 42.03559027777778 14.544921875000002  L 42.86024305555556 18.519531250000004  L 39.86545138888889 18.519531250000004  C 40.06799768518518 17.989583333333332  40.54542824074075 16.707682291666664  41.29774305555556 14.673828125000002  L 41.36284722222222 14.480468750000002  C 41.420717592592595 14.33723958333333  41.49305555555556 14.151041666666666  41.57986111111111 13.921875  C 41.66666666666667 13.69270833333333  41.73177083333333 13.506510416666666  41.77517361111111 13.363281249999998  L 42.03559027777778 14.544921875000002  Z M 2.7777777777777777 9.904296875000002  C 7.277199074074075 11.035807291666668  10.192418981481483 13.442057291666666  11.5234375 17.123046874999996  L 10.264756944444445 10.785156249999998  C 10.105613425925927 10.011718749999998  9.563078703703704 9.624999999999998  8.637152777777777 9.624999999999998  L 2.821180555555556 9.624999999999998  L 2.7777777777777777 9.904296875000002  Z M 19.227430555555554 9.624999999999998  L 15.40798611111111 9.624999999999998  L 11.89236111111111 19.035156250000004  L 11.5234375 17.123046874999996  C 11.147280092592595 16.120442708333332  10.532407407407408 15.193033854166668  9.678819444444445 14.3408203125  C 8.825231481481483 13.488606770833332  7.877604166666669 12.85481770833333  6.8359375 12.439453125  L 9.765625 23.396484375  L 13.563368055555555 23.396484375  L 19.227430555555554 9.624999999999998  Z M 20.68142361111111 9.624999999999998  L 18.424479166666664 23.417968750000004  L 22.02690972222222 23.417968750000004  L 24.283854166666664 9.624999999999998  L 20.68142361111111 9.624999999999998  Z M 34.59201388888889 12.955078125  L 35.09114583333333 9.968750000000002  C 34.09288194444445 9.582031250000002  33.015046296296305 9.388671875000002  31.85763888888889 9.388671875000002  C 30.078125 9.388671875000002  28.624131944444443 9.811197916666664  27.49565972222222 10.656249999999998  C 26.3671875 11.50130208333333  25.79571759259259 12.59700520833333  25.78125 13.943359374999998  C 25.766782407407412 15.404296875  26.815682870370374 16.650390625000004  28.92795138888889 17.681640625000004  C 29.622395833333332 18.011067708333336  30.107060185185187 18.3046875  30.381944444444443 18.5625  C 30.656828703703702 18.8203125  30.794270833333332 19.099609375000004  30.794270833333332 19.400390625  C 30.794270833333332 19.830078124999996  30.577256944444443 20.15950520833333  30.143229166666668 20.388671875000004  C 29.70920138888889 20.61783854166666  29.210069444444443 20.732421874999996  28.645833333333332 20.732421874999996  C 27.401620370370374 20.732421874999996  26.273148148148152 20.49609375  25.260416666666668 20.023437499999996  L 24.78298611111111 19.787109375  L 24.283854166666664 22.880859375  C 25.354456018518523 23.367838541666664  26.692708333333332 23.611328125000004  28.29861111111111 23.611328125000004  C 30.179398148148152 23.625651041666664  31.68764467592593 23.203125  32.82335069444444 22.343749999999996  C 33.95905671296296 21.484375000000004  34.54137731481482 20.338541666666664  34.5703125 18.906250000000004  C 34.57031250000001 17.38802083333333  33.557581018518526 16.141927083333332  31.532118055555557 15.167968749999998  C 30.823206018518523 14.809895833333332  30.30960648148148 14.509114583333332  29.991319444444443 14.265624999999998  C 29.673032407407412 14.022135416666666  29.51388888888889 13.749999999999998  29.51388888888889 13.449218750000002  C 29.51388888888889 13.134114583333332  29.691116898148152 12.858398437499996  30.045572916666668 12.622070312499998  C 30.400028935185187 12.385742187499998  30.910011574074076 12.267578124999998  31.575520833333332 12.267578124999998  C 32.58825231481482 12.253255208333332  33.48524305555556 12.425130208333332  34.26649305555556 12.783203124999998  L 34.59201388888889 12.955078125  Z M 47.22222222222222 23.417968750000004  L 44.31423611111111 9.624999999999998  L 41.53645833333333 9.624999999999998  C 40.59606481481482 9.624999999999998  39.96672453703704 10.011718749999998  39.6484375 10.785156249999998  L 34.30989583333333 23.417968750000004  L 38.0859375 23.417968750000004  L 38.84548611111111 21.355468750000004  L 43.44618055555556 21.355468750000004  C 43.518518518518526 21.670572916666664  43.66319444444445 22.35807291666666  43.88020833333333 23.417968750000004  L 47.22222222222222 23.417968750000004  Z M 49.17534722222222 0.8164062500000012  C 49.72511574074075 1.3606770833333317  50 2.0052083333333317  50 2.7500000000000013  L 50 30.25  C 50 30.994791666666668  49.72511574074075 31.639322916666668  49.17534722222222 32.18359375  C 48.62557870370371 32.727864583333336  47.974537037037045 33  47.22222222222222 33  L 2.7777777777777777 33  C 2.0254629629629632 33  1.3744212962962963 32.727864583333336  0.8246527777777778 32.18359375  C 0.27488425925925924 31.639322916666668  0 30.994791666666668  0 30.25  L 0 2.7500000000000013  C 0 2.0052083333333317  0.27488425925925924 1.3606770833333317  0.8246527777777778 0.8164062500000012  C 1.3744212962962963 0.2721354166666634  2.0254629629629632 0  2.7777777777777777 0  L 47.22222222222222 0  C 47.974537037037045 0  48.62557870370371 0.2721354166666634  49.17534722222222 0.8164062500000012  Z " fill-rule="nonzero" fill="#7f7f7f" stroke="none" transform="matrix(1 0 0 1 406 134 )" />
  </g>
</svg>