<?xml version="1.0" encoding="utf-8"?>
<svg version="1.1" xmlns:xlink="http://www.w3.org/1999/xlink" width="50px" height="33px" xmlns="http://www.w3.org/2000/svg">
  <g transform="matrix(1 0 0 1 -530 -134 )">
    <path d="M 6.011284722222222 12.160156250000002  C 6.532118055555555 12.604166666666666  6.792534722222222 13.198567708333332  6.792534722222222 13.943359374999998  C 6.792534722222222 14.673828125000002  6.532118055555555 15.275390625  6.011284722222222 15.748046874999998  C 5.591724537037038 16.120442708333332  4.947916666666666 16.306640625  4.079861111111112 16.306640625  L 3.7109375 16.306640625  L 3.7109375 11.580078125000002  L 4.079861111111112 11.580078125000002  C 4.9623842592592595 11.580078125000002  5.606192129629631 11.773437500000002  6.011284722222222 12.160156250000002  Z M 43.96701388888889 11.494140624999998  C 44.87847222222222 11.494140624999998  45.33420138888889 11.845052083333332  45.33420138888889 12.546875000000002  C 45.33420138888889 13.291666666666668  44.87123842592593 13.6640625  43.9453125 13.6640625  L 43.53298611111111 13.6640625  L 43.53298611111111 11.494140624999998  L 43.96701388888889 11.494140624999998  Z M 6.944444444444445 16.693359375  C 7.8125 15.962890625000002  8.246527777777777 15.04622395833333  8.246527777777777 13.943359374999998  C 8.246527777777777 12.883463541666664  7.884837962962964 12.0205078125  7.161458333333333 11.354492187500002  C 6.438078703703703 10.688476562499998  5.504918981481482 10.355468750000002  4.361979166666666 10.355468750000002  L 2.3003472222222223 10.355468750000002  L 2.3003472222222223 17.509765624999996  L 4.361979166666666 17.509765624999996  C 5.432581018518519 17.509765624999996  6.293402777777778 17.237630208333336  6.944444444444445 16.693359375  Z M 8.897569444444445 10.355468750000002  L 8.897569444444445 17.509765624999996  L 10.308159722222223 17.509765624999996  L 10.308159722222223 10.355468750000002  L 8.897569444444445 10.355468750000002  Z M 15.147569444444445 17.0478515625  C 15.610532407407407 16.611002604166664  15.84201388888889 16.041666666666664  15.84201388888889 15.33984375  C 15.84201388888889 14.766927083333332  15.693721064814817 14.322916666666668  15.397135416666666 14.007812499999998  C 15.10054976851852 13.69270833333333  14.55439814814815 13.391927083333332  13.758680555555555 13.105468749999998  C 13.339120370370372 12.962239583333332  13.053385416666666 12.826171875  12.901475694444445 12.697265625  C 12.749565972222221 12.568359375  12.67361111111111 12.40364583333333  12.67361111111111 12.203124999999998  C 12.67361111111111 11.973958333333332  12.77126736111111 11.784179687499998  12.96657986111111 11.6337890625  C 13.16189236111111 11.483398437500002  13.411458333333334 11.408203125  13.715277777777779 11.408203125  C 14.134837962962965 11.408203125  14.518229166666666 11.6015625  14.86545138888889 11.98828125  L 15.60329861111111 11.042968749999998  C 15.010127314814817 10.513020833333332  14.301215277777779 10.248046875  13.4765625 10.248046875  C 12.839988425925927 10.248046875  12.3046875 10.444986979166663  11.870659722222223 10.838867187500002  C 11.436631944444445 11.232747395833332  11.219618055555555 11.716145833333332  11.219618055555555 12.289062500000002  C 11.219618055555555 12.79036458333333  11.34982638888889 13.187825520833332  11.610243055555555 13.481445312500002  C 11.870659722222223 13.775065104166668  12.333622685185187 14.036458333333332  12.999131944444445 14.265624999999998  C 13.534432870370372 14.451822916666668  13.859953703703706 14.587890624999998  13.975694444444445 14.673828125000002  C 14.250578703703706 14.845703124999998  14.388020833333334 15.089192708333332  14.388020833333334 15.404296875  C 14.388020833333334 15.69075520833333  14.286747685185187 15.930664062500002  14.08420138888889 16.1240234375  C 13.881655092592593 16.3173828125  13.621238425925927 16.4140625  13.30295138888889 16.4140625  C 12.608506944444445 16.4140625  12.094907407407408 16.098958333333332  11.762152777777777 15.46875  L 10.850694444444445 16.328125  C 11.487268518518519 17.244791666666664  12.319155092592595 17.703124999999996  13.346354166666666 17.703124999999996  C 14.08420138888889 17.703124999999996  14.684606481481483 17.48470052083333  15.147569444444445 17.0478515625  Z M 20.1171875 17.681640625000004  C 20.724826388888893 17.681640625000004  21.310763888888893 17.545572916666664  21.875 17.2734375  L 21.875 15.619140624999998  C 21.339699074074076 16.149088541666664  20.775462962962965 16.4140625  20.182291666666664 16.4140625  C 19.47337962962963 16.4140625  18.89105902777778 16.181315104166664  18.43532986111111 15.715820312499998  C 17.979600694444446 15.250325520833332  17.75173611111111 14.65950520833333  17.75173611111111 13.943359374999998  C 17.75173611111111 13.255859374999998  17.979600694444446 12.672200520833332  18.43532986111111 12.192382812500002  C 18.89105902777778 11.712565104166668  19.45167824074074 11.47265625  20.1171875 11.47265625  C 20.73929398148148 11.47265625  21.32523148148148 11.744791666666668  21.875 12.289062500000002  L 21.875 10.634765625  C 21.296296296296298 10.348307291666663  20.71759259259259 10.205078124999998  20.13888888888889 10.205078124999998  C 19.068287037037038 10.205078124999998  18.16044560185185 10.56673177083333  17.415364583333336 11.290039062500002  C 16.670283564814817 12.013346354166664  16.297743055555554 12.897786458333332  16.297743055555554 13.943359374999998  C 16.297743055555554 14.988932291666666  16.666666666666664 15.873372395833332  17.40451388888889 16.5966796875  C 18.14236111111111 17.319986979166664  19.046585648148152 17.681640625000004  20.1171875 17.681640625000004  Z M 48.19878472222222 31.216796875  C 48.47366898148149 30.944661458333332  48.61111111111111 30.622395833333332  48 30.25  L 48 18.927734374999996  C 47.670717592592595 19.500651041666664  46.62543402777778 20.10221354166666  45.47526041666667 20.732421874999996  C 44.32508680555556 21.362630208333336  42.60706018518518 22.200520833333336  40.32118055555556 23.246093749999996  C 38.03530092592593 24.29166666666666  35.651765046296305 25.2763671875  33.17057291666667 26.2001953125  C 30.68938078703704 27.1240234375  27.669270833333332 28.087239583333332  24.110243055555554 29.08984375  C 20.55121527777778 30.092447916666668  16.905381944444446 30.9375  13.172743055555555 31  L 47.22222222222222 31  C 47.59837962962963 31.625  47.92390046296296 31.488932291666668  48.19878472222222 31.216796875  Z M 28.993055555555557 16.736328124999996  C 29.759837962962965 15.977213541666664  30.143229166666668 15.060546875000002  30.143229166666668 13.986328125  C 30.143229166666668 12.912109374999998  29.759837962962965 11.995442708333332  28.993055555555557 11.236328124999998  C 28.226273148148152 10.477213541666663  27.30034722222222 10.097656250000002  26.21527777777778 10.097656250000002  C 25.130208333333332 10.097656250000002  24.20428240740741 10.477213541666663  23.4375 11.236328124999998  C 22.67071759259259 11.995442708333332  22.28732638888889 12.912109374999998  22.28732638888889 13.986328125  C 22.28732638888889 15.060546875000002  22.67071759259259 15.977213541666664  23.4375 16.736328124999996  C 24.20428240740741 17.495442708333336  25.130208333333332 17.875000000000004  26.21527777777778 17.875000000000004  C 27.30034722222222 17.875000000000004  28.226273148148152 17.495442708333336  28.993055555555557 16.736328124999996  Z M 32.68229166666667 17.703124999999996  L 33.44184027777778 17.703124999999996  L 36.56684027777778 10.355468750000002  L 35.02604166666667 10.355468750000002  L 33.07291666666667 15.167968749999998  L 31.141493055555557 10.355468750000002  L 29.600694444444443 10.355468750000002  L 32.68229166666667 17.703124999999996  Z M 37.19618055555556 10.355468750000002  L 37.19618055555556 17.509765624999996  L 41.18923611111111 17.509765624999996  L 41.18923611111111 16.306640625  L 38.60677083333333 16.306640625  L 38.60677083333333 14.373046875  L 41.10243055555556 14.373046875  L 41.10243055555556 13.169921874999998  L 38.60677083333333 13.169921874999998  L 38.60677083333333 11.580078125000002  L 41.18923611111111 11.580078125000002  L 41.18923611111111 10.355468750000002  L 37.19618055555556 10.355468750000002  Z M 43.72829861111111 14.652343749999998  L 45.68142361111111 17.509765624999996  L 47.41753472222222 17.509765624999996  L 45.13888888888889 14.501953125  C 46.23842592592593 14.27278645833333  46.78819444444444 13.599609375  46.78819444444444 12.482421875000002  C 46.78819444444444 11.809244791666668  46.56394675925927 11.286458333333332  46.11545138888889 10.914062499999998  C 45.666956018518526 10.541666666666663  45.03761574074075 10.355468750000002  44.22743055555556 10.355468750000002  L 42.12239583333333 10.355468750000002  L 42.12239583333333 17.509765624999996  L 43.53298611111111 17.509765624999996  L 43.53298611111111 14.652343749999998  L 43.72829861111111 14.652343749999998  Z M 49.16449652777778 0.837890625  C 49.721498842592595 1.3964843750000013  50 2.0768229166666634  50 2.8789062500000013  L 50 30.12109375  C 50 30.923177083333332  49.721498842592595 31.603515625  49.16449652777778 32.162109375  C 48.60749421296296 32.720703125  47.93113425925927 33  47.13541666666667 33  L 2.864583333333333 33  C 2.068865740740741 33  1.392505787037037 32.720703125  0.8355034722222222 32.162109375  C 0.2785011574074074 31.603515625  0 30.923177083333332  0 30.12109375  L 0 2.8789062500000013  C 0 2.0768229166666634  0.2785011574074074 1.3964843750000013  0.8355034722222222 0.837890625  C 1.392505787037037 0.2792968749999988  2.068865740740741 0  2.864583333333333 0  L 47.13541666666667 0  C 47.93113425925927 0  48.60749421296296 0.2792968749999988  49.16449652777778 0.837890625  Z " fill-rule="nonzero" fill="#7f7f7f" stroke="none" transform="matrix(1 0 0 1 530 134 )" />
  </g>
</svg>