<?xml version="1.0" encoding="utf-8"?>
<svg version="1.1" xmlns:xlink="http://www.w3.org/1999/xlink" width="23px" height="23px" xmlns="http://www.w3.org/2000/svg">
  <g transform="matrix(1 0 0 1 -430 -514 )">
    <path d="M 11.736877076411956 13.805989583333314  L 11.736877076411956 10  L 22.81661129568107 10  C 22.93887043189369 10.521701388888914  23 11.160590277777771  23 11.76953125  C 23 13.935763888888914  22.536434108527146 15.869900173611086  21.609302325581382 17.571940104166686  C 20.682170542635674 19.27398003472223  19.360243632336676 20.604166666666686  17.643521594684387 21.5625  C 15.926799557032098 22.520833333333314  13.957918050941318 23  11.736877076411956 23  C 10.137320044296786 23  8.614174972314515 22.698025173611086  7.167441860465118 22.094075520833314  C 5.720708748615721 21.490125868055543  4.472646733111844 20.674045138888914  3.4232558139534888 19.645833333333314  C 2.3738648947951333 18.61762152777777  1.5409745293466133 17.394748263888914  0.9245847176079848 15.977213541666686  C 0.3081949058693283 14.559678819444455  0 13.067274305555545  0 11.5  C 0 9.932725694444457  0.3081949058693283 8.440321180555543  0.9245847176079848 7.022786458333314  C 1.5409745293466133 5.605251736111086  2.3738648947951333 4.3823784722222285  3.4232558139534888 3.3541666666666856  C 4.472646733111844 2.325954861111086  5.720708748615721 1.509874131944457  7.167441860465118 0.9059244791666855  C 8.614174972314515 0.30197482638891415  10.137320044296786 0  11.736877076411956 0  C 14.793355481727588 0  17.416832779623462 1.0032552083333144  19.607308970099666 3.009765625  L 16.413289036544825 6.01953125  C 15.160132890365448 4.8315972222222285  13.60132890365449 4.237630208333314  11.736877076411956 4.237630208333314  C 10.42259136212624 4.237630208333314  9.207641196013299 4.5620659722222285  8.092026578073103 5.2109375  C 6.976411960132879 5.859809027777772  6.092580287929137 6.740776909722228  5.440531561461796 7.853841145833314  C 4.788482834994454 8.966905381944457  4.462458471760783 10.182291666666686  4.462458471760783 11.5  C 4.462458471760783 12.817708333333314  4.788482834994454 14.033094618055545  5.440531561461796 15.146158854166686  C 6.092580287929137 16.25922309027777  6.976411960132879 17.14019097222223  8.092026578073103 17.7890625  C 9.207641196013299 18.43793402777777  10.42259136212624 18.762369791666686  11.736877076411956 18.762369791666686  C 12.62325581395348 18.762369791666686  13.438316722037653 18.642578125  14.182059800664462 18.402994791666686  C 14.925802879291242 18.163411458333314  15.537098560354366 17.863932291666686  16.01594684385384 17.504557291666686  C 16.494795127353257 17.145182291666686  16.91251384274642 16.73589409722223  17.26910299003322 16.276692708333314  C 17.625692137320016 15.817491319444455  17.888039867109626 15.383246527777771  18.056146179401992 14.973958333333314  C 18.224252491694358 14.564670138888914  18.338870431893668 14.175347222222229  18.399999999999977 13.805989583333314  L 11.736877076411956 13.805989583333314  Z " fill-rule="nonzero" fill="#ffffff" stroke="none" transform="matrix(1 0 0 1 430 514 )" />
  </g>
</svg>