<?xml version="1.0" encoding="utf-8"?>
<svg version="1.1" xmlns:xlink="http://www.w3.org/1999/xlink" width="57px" height="44px" xmlns="http://www.w3.org/2000/svg">
  <g transform="matrix(1 0 0 1 -73 -21 )">
    <path d="M 27.150146484375 18.77734375  C 25.062744140625 20.92578125  22.5439453125 22  19.59375 22  C 16.6435546875 22  14.124755859375 20.92578125  12.037353515625 18.77734375  C 9.949951171875 16.62890625  8.90625 14.036458333333332  8.90625 11  C 8.90625 7.963541666666668  9.949951171875 5.37109375  12.037353515625 3.22265625  C 14.124755859375 1.07421875  16.6435546875 0  19.59375 0  C 22.5439453125 0  25.062744140625 1.07421875  27.150146484375 3.22265625  C 29.237548828125 5.37109375  30.28125 7.963541666666668  30.28125 11  C 30.28125 14.036458333333332  29.237548828125 16.62890625  27.150146484375 18.77734375  Z M 46 15.583333333333332  L 46 25  L 56.109375 25  C 56.3505859375 25.666666666666664  56.559326171875 25.757378472222218  56.735595703125 25.938802083333336  C 56.91186523437501 26.120225694444446  57 26.335069444444446  57 26.583333333333336  L 57 32.083333333333336  C 57 32.331597222222214  56.91186523437501 32.546440972222214  56.735595703125 32.727864583333336  C 56.559326171875 32.90928819444444  56.3505859375 33  56.109375 33  L 46 33  L 46 43.08333333333333  C 46.3125 43.33159722222222  46.22436523437501 43.54644097222222  46.048095703125 43.72786458333333  C 45.871826171875 43.90928819444444  45.6630859375 44  45.421875 44  L 40.078125 44  C 39.83691406250001 44  39.62817382812501 43.90928819444444  39.451904296875 43.72786458333333  C 39.275634765625 43.54644097222222  39.1875 43.33159722222222  39 43.08333333333333  L 39 33  L 29.390625 33  C 29.149414062500004 33  28.940673828125004 32.90928819444444  28.764404296875 32.727864583333336  C 28.588134765625004 32.546440972222214  28.5 32.331597222222214  28.5 32.083333333333336  L 28.5 26.583333333333336  C 28.5 26.335069444444446  28.588134765625004 26.120225694444446  28.764404296875 25.938802083333336  C 28.940673828125004 25.757378472222218  29.149414062500004 25.666666666666664  29.390625 25.666666666666664  L 39 25.666666666666664  L 39 15.583333333333332  C 39.1875 15.335069444444441  39.275634765625 15.120225694444441  39.451904296875 14.938802083333332  C 39.62817382812501 14.757378472222223  39.83691406250001 14.666666666666668  40.078125 14.666666666666668  L 45.421875 14.666666666666668  C 45.6630859375 14.666666666666668  45.871826171875 14.757378472222223  46.048095703125 14.938802083333332  C 46.22436523437501 15.120225694444441  46.3125 15.335069444444441  46 15.583333333333332  Z M 25.828125 26.583333333333336  L 25.828125 32.083333333333336  C 25.828125 33.07638888888889  26.180664062500004 33.93576388888889  26.8857421875 34.66145833333333  C 27.5908203125 35.38715277777778  28.42578125 35.75  29.390625 35.75  L 36.515625 35.75  L 36.515625 42.56770833333333  C 35.25390625 43.52256944444444  33.66748046875 44  31.75634765625 44  L 7.43115234375 44  C 5.18603515625 44  3.38623046875 43.34114583333333  2.03173828125 42.0234375  C 0.67724609375 40.70572916666667  0 38.89149305555556  0 36.58072916666667  C 0 35.56857638888889  0.03247070312499999 34.58029513888889  0.097412109375 33.61588541666667  C 0.16235351562500003 32.65147569444444  0.292236328125 31.610677083333336  0.487060546875 30.493489583333336  C 0.681884765625 29.376302083333336  0.9277343750000001 28.34027777777777  1.224609375 27.385416666666664  C 1.5214843750000002 26.430555555555554  1.92041015625 25.499565972222218  2.42138671875 24.592447916666664  C 2.9223632812500004 23.685329861111107  3.4975585937500004 22.911892361111107  4.14697265625 22.272135416666664  C 4.79638671875 21.63237847222222  5.589599609375 21.12152777777778  6.526611328125 20.739583333333332  C 7.463623046875001 20.357638888888886  8.498046875000002 20.166666666666668  9.6298828125 20.166666666666668  C 9.982421875 20.166666666666668  10.34423828125 20.328993055555554  10.71533203125 20.653645833333332  C 12.18115234375 21.818576388888886  13.614501953125 22.692274305555554  15.015380859375 23.274739583333336  C 16.416259765625 23.857204861111107  17.942382812500004 24.1484375  19.59375 24.1484375  C 21.2451171875 24.1484375  22.771240234375004 23.857204861111107  24.172119140625 23.274739583333336  C 25.572998046875 22.692274305555554  27.00634765625 21.818576388888886  28.47216796875 20.653645833333332  C 28.843261718750004 20.328993055555554  29.205078125000004 20.166666666666668  29.5576171875 20.166666666666668  C 32.0068359375 20.166666666666668  34.02001953125001 21.083333333333332  35.59716796875 22.916666666666664  L 29.390625 22.916666666666664  C 28.42578125 22.916666666666664  27.5908203125 23.279513888888893  26.8857421875 24.005208333333336  C 26.180664062500004 24.73090277777777  25.828125 25.59027777777777  25.828125 26.583333333333336  Z " fill-rule="nonzero" fill="#8a30fc" stroke="none" transform="matrix(1 0 0 1 73 21 )" />
  </g>
</svg>