<?xml version="1.0" encoding="utf-8"?>
<svg version="1.1" xmlns:xlink="http://www.w3.org/1999/xlink" width="43px" height="50px" xmlns="http://www.w3.org/2000/svg">
  <g transform="matrix(1 0 0 1 -961 -407 )">
    <path d="M 41.880208333333336 15  L 28 15  L 28 1.1160714285714302  C 29.077256944444446 1.3764880952380931  29.413194444444446 1.636904761904756  29.674479166666664 1.8973214285714302  L 41.096354166666664 13.28125  C 41.35763888888889 13.541666666666663  41.618923611111114 13.876488095238093  41.880208333333336 15  Z M 25 0  L 25 15.17857142857143  C 25.083333333333336 15.92261904761904  25.344618055555554 16.555059523809522  25.8671875 17.075892857142854  C 26.389756944444446 17.596726190476186  27.024305555555554 17.857142857142854  27.770833333333336 18  L 43 18  L 43 47.32142857142857  C 43 48.06547619047619  42.73871527777778 48.697916666666664  42.216145833333336 49.21875  C 41.69357638888889 49.739583333333336  41.05902777777778 50  40.3125 50  L 2.6875 50  C 1.9409722222222225 50  1.3064236111111112 49.739583333333336  0.7838541666666667 49.21875  C 0.2612847222222222 48.697916666666664  0 48.06547619047619  0 47.32142857142857  L 0 2.67857142857143  C 0 1.9345238095238082  0.2612847222222222 1.3020833333333315  0.7838541666666667 0.78125  C 1.3064236111111112 0.2604166666666685  1.9409722222222225 0  2.6875 0  L 25 0  Z " fill-rule="nonzero" fill="#8a30fc" stroke="none" transform="matrix(1 0 0 1 961 407 )" />
  </g>
</svg>