<?xml version="1.0" encoding="utf-8"?>
<svg version="1.1" xmlns:xlink="http://www.w3.org/1999/xlink" width="19px" height="15px" xmlns="http://www.w3.org/2000/svg">
  <g transform="matrix(1 0 0 1 -1440 -28 )">
    <path d="M 17.542131696428573 13.53515625  C 17.60928199404762 13.46768465909091  17.642857142857142 13.387784090909092  17.642857142857142 13.295454545454545  L 17.642857142857142 5.113636363636364  C 17.41666666666667 5.369318181818182  17.172805059523814 5.603693181818182  16.911272321428573 5.816761363636364  C 15.016927083333334 7.279829545454544  13.511346726190478 8.480113636363637  12.39453125 9.417613636363637  C 12.034040178571429 9.723011363636362  11.740699404761905 9.9609375  11.514508928571429 10.131392045454545  C 11.288318452380953 10.30184659090909  10.982607886904765 10.474076704545453  10.597377232142856 10.648082386363637  C 10.212146577380953 10.822088068181818  9.849888392857144 10.90909090909091  9.510602678571429 10.90909090909091  L 9.5 10.90909090909091  L 9.489397321428571 10.90909090909091  C 9.150111607142858 10.90909090909091  8.787853422619047 10.822088068181818  8.402622767857142 10.648082386363637  C 8.017392113095239 10.474076704545453  7.711681547619048 10.30184659090909  7.485491071428572 10.131392045454545  C 7.259300595238097 9.9609375  6.965959821428572 9.723011363636362  6.60546875 9.417613636363637  C 5.488653273809525 8.480113636363637  3.9830729166666674 7.279829545454544  2.0887276785714284 5.816761363636364  C 1.8271949404761907 5.603693181818182  1.5833333333333335 5.369318181818182  1.357142857142857 5.113636363636364  L 1.357142857142857 13.295454545454545  C 1.357142857142857 13.387784090909092  1.3907180059523812 13.46768465909091  1.4578683035714286 13.53515625  C 1.5250186011904763 13.60262784090909  1.6045386904761907 13.636363636363637  1.6964285714285714 13.636363636363637  L 17.303571428571427 13.636363636363637  C 17.39546130952381 13.636363636363637  17.474981398809526 13.60262784090909  17.542131696428573 13.53515625  Z M 17.149832589285715 3.499644886363636  C 17.478515625 2.984730113636362  17.642857142857142 2.5177556818181817  17.642857142857142 2.098721590909091  L 17.642857142857142 1.9815340909090906  L 17.642857142857142 1.8377130681818188  C 17.642857142857142 1.8377130681818188  17.641090029761905 1.7915482954545432  17.637555803571427 1.69921875  C 17.634021577380953 1.6068892045454537  17.623418898809526 1.5624999999999978  17.605747767857142 1.5660511363636358  C 17.588076636904763 1.5696022727272725  17.568638392857142 1.537642045454544  17.547433035714285 1.4701704545454546  C 17.526227678571427 1.402698863636362  17.494419642857142 1.37606534090909  17.452008928571427 1.3902698863636358  C 17.409598214285715 1.4044744318181817  17.36011904761905 1.3955965909090906  17.303571428571427 1.3636363636363642  L 1.6964285714285714 1.3636363636363642  C 1.6045386904761907 1.3636363636363642  1.5250186011904763 1.3973721590909072  1.4578683035714286 1.46484375  C 1.3907180059523812 1.5323153409090895  1.357142857142857 1.6122159090909083  1.357142857142857 1.7045454545454546  C 1.357142857142857 2.8977272727272734  1.876674107142857 3.906249999999998  2.915736607142857 4.730113636363636  C 4.279947916666668 5.80965909090909  5.6971726190476195 6.935369318181818  7.167410714285714 8.107244318181818  C 7.209821428571428 8.14275568181818  7.333519345238097 8.247514204545453  7.538504464285714 8.421519886363637  C 7.743489583333334 8.595525568181818  7.906063988095239 8.72869318181818  8.026227678571429 8.821022727272728  C 8.14639136904762 8.913352272727272  8.30366443452381 9.025213068181817  8.498046875 9.156605113636363  C 8.69242931547619 9.287997159090908  8.870907738095239 9.38565340909091  9.033482142857142 9.449573863636363  C 9.196056547619047 9.513494318181818  9.348028273809526 9.545454545454545  9.489397321428571 9.545454545454545  L 9.5 9.545454545454545  L 9.510602678571429 9.545454545454545  C 9.651971726190478 9.545454545454545  9.803943452380953 9.513494318181818  9.966517857142856 9.449573863636363  C 10.129092261904765 9.38565340909091  10.30757068452381 9.287997159090908  10.501953125 9.156605113636363  C 10.69633556547619 9.025213068181817  10.853608630952381 8.913352272727272  10.973772321428571 8.821022727272728  C 11.093936011904765 8.72869318181818  11.256510416666668 8.595525568181818  11.461495535714285 8.421519886363637  C 11.666480654761905 8.247514204545453  11.790178571428571 8.14275568181818  11.832589285714285 8.107244318181818  C 13.302827380952381 6.935369318181818  14.720052083333334 5.80965909090909  16.084263392857142 4.730113636363636  C 16.465959821428573 4.424715909090908  16.821149553571427 4.014559659090908  17.149832589285715 3.499644886363636  Z M 18.501674107142858 0.5007102272727265  C 18.83389136904762 0.8345170454545442  19 1.2357954545454546  19 1.7045454545454546  L 19 13.295454545454545  C 19 13.764204545454545  18.83389136904762 14.165482954545455  18.501674107142858 14.499289772727273  C 18.1694568452381 14.83309659090909  17.77008928571429 15  17.303571428571427 15  L 1.6964285714285714 15  C 1.2299107142857144 15  0.8305431547619049 14.83309659090909  0.49832589285714285 14.499289772727273  C 0.16610863095238096 14.165482954545455  0 13.764204545454545  0 13.295454545454545  L 0 1.7045454545454546  C 0 1.2357954545454546  0.16610863095238096 0.8345170454545442  0.49832589285714285 0.5007102272727265  C 0.8305431547619049 0.16690340909090717  1.2299107142857144 0  1.6964285714285714 0  L 17.303571428571427 0  C 17.77008928571429 0  18.1694568452381 0.16690340909090717  18.501674107142858 0.5007102272727265  Z " fill-rule="nonzero" fill="#999999" stroke="none" transform="matrix(1 0 0 1 1440 28 )" />
  </g>
</svg>