<?xml version="1.0" encoding="utf-8"?>
<svg version="1.1" xmlns:xlink="http://www.w3.org/1999/xlink" width="48px" height="84px" xmlns="http://www.w3.org/2000/svg">
  <defs>
    <mask fill="white" id="clip1484">
      <path d="M 47.625 0  C 47.75012843836882 0  47.87513107627089 0.00046542394896253406  48 0.0013946868627769888  L 48 49.12983571807103  L 15.357445577327525 83.6627935420706  C 14.357686243874667 82.74231562660412  13.39805684587813 81.7785309538086  12.481205640144509 80.77411163865993  C 4.700012868726702 72.24974010963582  0 60.79858189916363  0 48.054054054054056  C 0 34.701930984104806  5.158841673127625 22.769440020765565  13.614944745351465 14.134932431527481  C 22.201526039852155 5.367193826671781  34.18790768539617 0  47.625 0  Z " fill-rule="evenodd" />
    </mask>
  </defs>
  <g transform="matrix(1 0 0 1 -72 -82 )">
    <path d="M 47.625 0  C 47.75012843836882 0  47.87513107627089 0.00046542394896253406  48 0.0013946868627769888  L 48 49.12983571807103  L 15.357445577327525 83.6627935420706  C 14.357686243874667 82.74231562660412  13.39805684587813 81.7785309538086  12.481205640144509 80.77411163865993  C 4.700012868726702 72.24974010963582  0 60.79858189916363  0 48.054054054054056  C 0 34.701930984104806  5.158841673127625 22.769440020765565  13.614944745351465 14.134932431527481  C 22.201526039852155 5.367193826671781  34.18790768539617 0  47.625 0  Z " fill-rule="nonzero" fill="#ffffff" stroke="none" transform="matrix(1 0 0 1 72 82 )" />
    <path d="M 47.625 0  C 47.75012843836882 0  47.87513107627089 0.00046542394896253406  48 0.0013946868627769888  L 48 49.12983571807103  L 15.357445577327525 83.6627935420706  C 14.357686243874667 82.74231562660412  13.39805684587813 81.7785309538086  12.481205640144509 80.77411163865993  C 4.700012868726702 72.24974010963582  0 60.79858189916363  0 48.054054054054056  C 0 34.701930984104806  5.158841673127625 22.769440020765565  13.614944745351465 14.134932431527481  C 22.201526039852155 5.367193826671781  34.18790768539617 0  47.625 0  Z " stroke-width="18" stroke="#eaecf3" fill="none" transform="matrix(1 0 0 1 72 82 )" mask="url(#clip1484)" />
  </g>
</svg>