<?xml version="1.0" encoding="utf-8"?>
<svg version="1.1" xmlns:xlink="http://www.w3.org/1999/xlink" width="10px" height="15px" xmlns="http://www.w3.org/2000/svg">
  <g transform="matrix(1 0 0 1 -1399 -94 )">
    <path d="M 9.828178694158074 0.9018036072144281  C 9.942726231386027 1.0020040080160304  10 1.1172344689378737  10 1.2474949899799603  C 10 1.3777555110220434  9.942726231386027 1.4929859719438872  9.828178694158074 1.593186372745491  L 3.075601374570447 7.5  L 9.828178694158074 13.40681362725451  C 9.942726231386027 13.507014028056114  10 13.622244488977955  10 13.75250501002004  C 10 13.882765531062125  9.942726231386027 13.997995991983966  9.828178694158074 14.098196392785573  L 8.969072164948454 14.849699398797595  C 8.854524627720505 14.9498997995992  8.722794959908363 15  8.573883161512027 15  C 8.424971363115695 15  8.293241695303553 14.9498997995992  8.1786941580756 14.849699398797595  L 0.1718213058419244 7.845691382765531  C 0.05727376861397484 7.745490981963926  0 7.630260521042083  0 7.5  C 0 7.369739478957915  0.05727376861397484 7.254509018036072  0.1718213058419244 7.154308617234469  L 8.1786941580756 0.15030060120240496  C 8.293241695303553 0.0501002004008011  8.424971363115695 0  8.573883161512027 0  C 8.722794959908363 0  8.854524627720505 0.0501002004008011  8.969072164948454 0.15030060120240496  L 9.828178694158074 0.9018036072144281  Z " fill-rule="nonzero" fill="#ffffff" stroke="none" transform="matrix(1 0 0 1 1399 94 )" />
  </g>
</svg>