<?xml version="1.0" encoding="utf-8"?>
<svg version="1.1" xmlns:xlink="http://www.w3.org/1999/xlink" width="50px" height="40px" xmlns="http://www.w3.org/2000/svg">
  <defs>
    <linearGradient gradientUnits="userSpaceOnUse" x1="25" y1="0" x2="25" y2="40" id="LinearGradient1494">
      <stop id="Stop1495" stop-color="#f73d3d" offset="0" />
      <stop id="Stop1496" stop-color="#000000" offset="1" />
    </linearGradient>
  </defs>
  <g transform="matrix(1 0 0 1 -1446 -722 )">
    <path d="M 2.5 17.5  C 1.1171875 17.5  0 18.6171875  0 20  L 0 30  C 0 31.3828125  1.1171875 32.5  2.5 32.5  L 5 32.5  L 5 17.5  L 2.5 17.5  Z M 42 13.75  C 42.5 10.296875  39.703125 7.5  36.25 7.5  L 27.500000000000004 7.5  L 27.500000000000004 2.5  C 27.500000000000004 1.1171875  26.382812500000004 0  25 0  C 23.6171875 0  22.5 1.1171875  22.5 2.5  L 22.5 7.5  L 13.750000000000002 7.5  C 10.296875 7.5  7.5 10.296875  8 13.75  L 8 35  C 7.5 37.7578125  9.7421875 40  12.5 40  L 37.5 40  C 40.2578125 40  42.5 37.7578125  42 35  L 42 13.75  Z M 20 30  L 20 32.5  L 15 32.5  L 15 30  L 20 30  Z M 20.625 20  C 20.625 21.7265625  19.2265625 23.125  17.5 23.125  C 15.773437500000002 23.125  14.374999999999998 21.7265625  14.374999999999998 20  C 14.374999999999998 18.2734375  15.773437500000002 16.875  17.5 16.875  C 19.2265625 16.875  20.625 18.2734375  20.625 20  Z M 27.500000000000004 30  L 27.500000000000004 32.5  L 22.5 32.5  L 22.5 30  L 27.500000000000004 30  Z M 35 30  L 35 32.5  L 30 32.5  L 30 30  L 35 30  Z M 35.625 20  C 35.625 21.7265625  34.2265625 23.125  32.5 23.125  C 30.7734375 23.125  29.375 21.7265625  29.375 20  C 29.375 18.2734375  30.7734375 16.875  32.5 16.875  C 34.2265625 16.875  35.625 18.2734375  35.625 20  Z M 50 20  C 50 18.6171875  48.8828125 17.5  47.5 17.5  L 45 17.5  L 45 32.5  L 47.5 32.5  C 48.8828125 32.5  50 31.3828125  50 30  L 50 20  Z " fill-rule="nonzero" fill="url(#LinearGradient1494)" stroke="none" transform="matrix(1 0 0 1 1446 722 )" />
  </g>
</svg>