<?xml version="1.0" encoding="utf-8"?>
<svg version="1.1" xmlns:xlink="http://www.w3.org/1999/xlink" width="43px" height="50px" xmlns="http://www.w3.org/2000/svg">
  <g transform="matrix(1 0 0 1 -78 -21 )">
    <path d="M 3.3518930957683892 16.258351893095778  C 5.033407572383055 16.258351893095778  6.414253897550111 17.639198218262834  7 19.3207126948775  L 7 32.21603563474389  C 6.414253897550111 33.93095768374167  5.066815144766167 35.30066815144767  3.3518930957683892 35.30066815144767  C 1.6481069042316108 35.30066815144767  0 33.91982182628061  0 32.21603563474389  L 0 19.3207126948775  C 0 17.639198218262834  1.6481069042316108 16.258351893095778  3.3518930957683892 16.258351893095778  Z M 8 17  L 8 36.804008908686  C 7.616926503340778 38.630289532294  9.086859688196 40.10022271714922  10.913140311804 40.10022271714922  L 13.129175946547887 40.10022271714922  L 13.162583518930944 46.90423162583522  C 13.162583518930944 51.013363028953215  19.309576837416444 50.97995545657017  19.309576837416444 46.90423162583522  L 19.309576837416444 40.10022271714922  L 23.452115812917555 40.10022271714922  L 23.452115812917555 46.90423162583522  C 23.452115812917555 50.991091314031166  29.632516703786166 51.00222717149222  29.632516703786166 46.90423162583522  L 29.632516703786166 40.10022271714922  L 31.88195991091311 40.10022271714922  C 33.68596881959911 40.10022271714922  35.15590200445433 38.630289532294  35 36.804008908686  L 35 17  L 8 17  Z M 28.184855233853 4.6770601336302775  C 32.38307349665922 6.837416481069056  35.2338530066815 10.979955456570167  35.2338530066815 16  L 7.4944320712695 16  C 7.4944320712695 10.979955456570167  10.345211581291778 6.837416481069056  14.576837416481055 4.6770601336302775  L 12.449888641425389 0.7461024498886673  C 12.138084632516723 0.20044543429844452  12.928730512249444 -0.14476614699333368  13.195991091314 0.3229398663697225  L 15.356347438752778 4.287305122494445  C 19.242761692650333 2.5612472160356106  23.708240534521167 2.6503340757238334  27.416481069042277 4.287305122494445  L 29.565701559019995 0.3340757238307219  C 29.84409799554561 -0.14476614699333368  30.623608017817332 0.21158129175944396  30.311804008908666 0.7572383073496667  L 28.184855233853 4.6770601336302775  Z M 15.05567928730511 10.734966592427611  C 15.712694877505555 10.734966592427611  16.224944320712666 10.200445434298445  16.224944320712666 9.565701559020056  C 16.224944320712666 8.930957683741667  15.712694877505555 8.3964365256125  15.05567928730511 8.3964365256125  C 14.420935412026724 8.3964365256125  13.91982182628061 8.930957683741667  13.91982182628061 9.565701559020056  C 13.91982182628061 10.200445434298445  14.43207126948772 10.734966592427611  15.05567928730511 10.734966592427611  Z M 27.717149220489944 10.734966592427611  C 28.34075723830733 10.734966592427611  28.853006681514447 10.200445434298445  28.853006681514447 9.565701559020056  C 28.853006681514447 8.930957683741667  28.34075723830733 8.3964365256125  27.717149220489944 8.3964365256125  C 27.0601336302895 8.3964365256125  26.54788418708239 8.930957683741667  26.54788418708239 9.565701559020056  C 26.54788418708239 10.200445434298445  27.0601336302895 10.734966592427611  27.717149220489944 10.734966592427611  Z M 42 19.3207126948775  C 42.761692650334055 17.605790645879722  41.113585746102444 16.258351893095778  39.409799554565666 16.258351893095778  C 37.728285077951 16.258351893095778  36.347438752783944 17.605790645879722  36 19.3207126948775  L 36 32.21603563474389  C 36.347438752783944 33.93095768374167  37.728285077951 35.30066815144767  39.409799554565666 35.30066815144767  C 41.124721603563444 35.30066815144767  42.761692650334055 33.91982182628061  42 32.21603563474389  L 42 19.3207126948775  Z " fill-rule="nonzero" fill="#8a30fc" stroke="none" transform="matrix(1 0 0 1 78 21 )" />
  </g>
</svg>