<?xml version="1.0" encoding="utf-8"?>
<svg version="1.1" xmlns:xlink="http://www.w3.org/1999/xlink" width="15px" height="20px" xmlns="http://www.w3.org/2000/svg">
  <g>
    <path d="M 7.457386363636363 0  C 11.574496182528414 0  14.914772727272727 1.2834765625000044  14.914772727272727 2.857148437499996  L 14.914772727272727 4.642851562500004  C 14.914772727272727 6.216523437499996  11.574496182528414 7.5  7.457386363636363 7.5  C 3.3402765447443143 7.5  0 6.216523437499996  0 4.642851562500004  L 0 2.857148437499996  C 0 1.2834765625000044  3.3402765447443143 0  7.457386363636363 0  Z M 7.457386363636363 8.772343750000005  C 10.380149147727277 8.772343750000005  13.312566583806817 8.169648437499996  14.914772727272727 6.875  L 14.914772727272727 10.892851562500006  C 14.914772727272727 12.466523437499994  11.574496182528414 13.75  7.457386363636363 13.75  C 3.3402765447443143 13.75  0 12.466523437499994  0 10.892851562500006  L 0 6.875  C 1.6021728515625 8.169648437499996  4.534623579545451 8.772343750000005  7.457386363636363 8.772343750000005  Z M 7.457386363636363 15.022343750000005  C 10.380149147727277 15.022343750000005  13.312566583806817 14.419648437499994  14.914772727272727 13.125  L 14.914772727272727 17.142851562500006  C 14.914772727272727 18.716523437499994  11.574496182528414 20  7.457386363636363 20  C 3.3402765447443143 20  0 18.716523437499994  0 17.142851562500006  L 0 13.125  C 1.6021728515625 14.419648437499994  4.534623579545451 15.022343750000005  7.457386363636363 15.022343750000005  Z " fill-rule="nonzero" fill="#d4d4d4" stroke="none" />
  </g>
</svg>