<?xml version="1.0" encoding="utf-8"?>
<svg version="1.1" xmlns:xlink="http://www.w3.org/1999/xlink" width="16px" height="20px" xmlns="http://www.w3.org/2000/svg">
  <g transform="matrix(1 0 0 1 -3 0 )">
    <path d="M 3.409090909090909 5  C 3.409090909090909 7.76171875  5.443892045454546 10  7.954545454545454 10  C 10.465198863636363 10  12.5 7.76171875  12.5 5  C 12.5 2.23828125  10.465198863636363 0  7.954545454545454 0  C 5.443892045454546 0  3.409090909090909 2.23828125  3.409090909090909 5  Z M 15.909090909090908 16.5  C 15.909090909090908 13.6015625  13.771306818181818 11.25  11.136363636363637 11.25  L 10.543323863636363 11.25  C 9.754971590909092 11.6484375  8.877840909090908 11.875  7.954545454545454 11.875  C 7.03125 11.875  6.157670454545454 11.6484375  5.365767045454546 11.25  L 4.7727272727272725 11.25  C 2.137784090909091 11.25  0 13.6015625  0 16.5  L 0 18.125  C 0 19.16015625  0.7634943181818182 20  1.7045454545454546 20  L 14.204545454545455 20  C 15.145596590909092 20  15.909090909090908 19.16015625  15.909090909090908 18.125  L 15.909090909090908 16.5  Z " fill-rule="nonzero" fill="#d4d4d4" stroke="none" transform="matrix(1 0 0 1 3 0 )" />
  </g>
</svg>