<?xml version="1.0" encoding="utf-8"?>
<svg version="1.1" xmlns:xlink="http://www.w3.org/1999/xlink" width="20px" height="16px" xmlns="http://www.w3.org/2000/svg">
  <g>
    <path d="M 20 0.9803921568627362  C 20 0.43892973856209744  19.626909722222216 0  19.166666666666675 0  L 3.055555555555554 0  C 2.5953125 0  2.222222222222217 0.43892973856209744  2.222222222222217 0.9803921568627362  L 2.222222222222217 1.3071895424836573  L 0.8333333333333371 1.3071895424836573  C 0.3730902777777828 1.3071895424836573  0 1.7461192810457546  0 2.2875816993463935  L 0 13.398692810457518  C 0 14.66209150326797  0.8705555555555521 15.686274509803912  1.9444444444444455 15.686274509803912  L 18.333333333333325 15.686274509803912  C 19.25381944444443 15.686274509803912  20 14.808415032679719  20 13.725490196078413  L 20 0.9803921568627362  Z M 2.222222222222217 13.398692810457518  C 2.222222222222217 13.579178022820516  2.097856874952993 13.725490196078413  1.9444444444444455 13.725490196078413  C 1.7910320139358873 13.725490196078413  1.666666666666663 13.579178022820516  2 13.398692810457518  L 2 3.2679738562091565  L 2.222222222222217 3.2679738562091565  L 2.222222222222217 13.398692810457518  Z M 10.555555555555554 12.581699346405216  C 10.555555555555554 12.852410130718935  10.368993055555551 13.071895424836597  10.138888888888891 13.071895424836597  L 4.861111111111109 13.071895424836597  C 4.631006944444448 13.071895424836597  4.4444444444444455 12.852410130718935  4.4444444444444455 12.581699346405216  L 4.4444444444444455 12.254901960784295  C 4.4444444444444455 11.984191176470578  4.631006944444448 11.764705882352942  4.861111111111109 11.764705882352942  L 10.138888888888891 11.764705882352942  C 10.368993055555551 11.764705882352942  10.555555555555554 11.984191176470578  10.555555555555554 12.254901960784295  L 10.555555555555554 12.581699346405216  Z M 17.777777777777782 12.581699346405216  C 17.777777777777782 12.852410130718935  17.59121527777777 13.071895424836597  17.36111111111111 13.071895424836597  L 12.083333333333325 13.071895424836597  C 11.853229166666665 13.071895424836597  11.666666666666675 12.852410130718935  11.666666666666675 12.581699346405216  L 11.666666666666675 12.254901960784295  C 11.666666666666675 11.984191176470578  11.853229166666665 11.764705882352942  12.083333333333325 11.764705882352942  L 17.36111111111111 11.764705882352942  C 17.59121527777777 11.764705882352942  17.777777777777782 11.984191176470578  17.777777777777782 12.254901960784295  L 17.777777777777782 12.581699346405216  Z M 10.555555555555554 8.660130718954246  C 10.555555555555554 8.930841503267963  10.368993055555551 9.150326797385627  10.138888888888891 9.150326797385627  L 4.861111111111109 9.150326797385627  C 4.631006944444448 9.150326797385627  4.4444444444444455 8.930841503267963  4.4444444444444455 8.660130718954246  L 4.4444444444444455 8.333333333333325  C 4.4444444444444455 8.062622549019606  4.631006944444448 7.843137254901943  4.861111111111109 7.843137254901943  L 10.138888888888891 7.843137254901943  C 10.368993055555551 7.843137254901943  10.555555555555554 8.062622549019606  10.555555555555554 8.333333333333325  L 10.555555555555554 8.660130718954246  Z M 17.777777777777782 8.660130718954246  C 17.777777777777782 8.930841503267963  17.59121527777777 9.150326797385627  17.36111111111111 9.150326797385627  L 12.083333333333325 9.150326797385627  C 11.853229166666665 9.150326797385627  11.666666666666675 8.930841503267963  11.666666666666675 8.660130718954246  L 11.666666666666675 8.333333333333325  C 11.666666666666675 8.062622549019606  11.853229166666665 7.843137254901943  12.083333333333325 7.843137254901943  L 17.36111111111111 7.843137254901943  C 17.59121527777777 7.843137254901943  17.777777777777782 8.062622549019606  17.777777777777782 8.333333333333325  L 17.777777777777782 8.660130718954246  Z M 17.777777777777782 4.738562091503274  C 17.777777777777782 5.009272875816992  17.59121527777777 5.228758169934629  17.36111111111111 5.228758169934629  L 4.861111111111109 5.228758169934629  C 4.631006944444448 5.228758169934629  4.4444444444444455 5.009272875816992  4.4444444444444455 4.738562091503274  L 4.4444444444444455 3.104575163398696  C 4.4444444444444455 2.8338643790849773  4.631006944444448 2.6143790849673145  4.861111111111109 2.6143790849673145  L 17.36111111111111 2.6143790849673145  C 17.59121527777777 2.6143790849673145  17.777777777777782 2.8338643790849773  17.777777777777782 3.104575163398696  L 17.777777777777782 4.738562091503274  Z " fill-rule="nonzero" fill="#d4d4d4" stroke="none" />
  </g>
</svg>