<?xml version="1.0" encoding="utf-8"?>
<svg version="1.1" xmlns:xlink="http://www.w3.org/1999/xlink" width="16px" height="16px" xmlns="http://www.w3.org/2000/svg">
  <g transform="matrix(1 0 0 1 -20 -7 )">
    <path d="M 12 0  L 12 4  L 16 4  L 16 0  L 12 0  Z M 13 1  L 13 3  L 15 3  L 15 1  L 13 1  Z M 6 0  L 6 4  L 10 4  L 10 0  L 6 0  Z M 7 1  L 7 3  L 9 3  L 9 1  L 7 1  Z M 0 0  L 0 4  L 4 4  L 4 0  L 0 0  Z M 1 1  L 1 3  L 3 3  L 3 1  L 1 1  Z M 12 6  L 12 10  L 16 10  L 16 6  L 12 6  Z M 13 7  L 13 9  L 15 9  L 15 7  L 13 7  Z M 6 6  L 6 10  L 10 10  L 10 6  L 6 6  Z M 7 7  L 7 9  L 9 9  L 9 7  L 7 7  Z M 0 6  L 0 10  L 4 10  L 4 6  L 0 6  Z M 1 7  L 1 9  L 3 9  L 3 7  L 1 7  Z M 12 12  L 12 16  L 16 16  L 16 12  L 12 12  Z M 13 13  L 13 15  L 15 15  L 15 13  L 13 13  Z M 6 12  L 6 16  L 10 16  L 10 12  L 6 12  Z M 7 13  L 7 15  L 9 15  L 9 13  L 7 13  Z M 0 12  L 0 16  L 4 16  L 4 12  L 0 12  Z M 1 13  L 1 15  L 3 15  L 3 13  L 1 13  Z " fill-rule="nonzero" fill="#2d74da" stroke="none" transform="matrix(1 0 0 1 20 7 )" />
  </g>
</svg>