<?xml version="1.0" encoding="utf-8"?>
<svg version="1.1" xmlns:xlink="http://www.w3.org/1999/xlink" width="16px" height="16px" xmlns="http://www.w3.org/2000/svg">
  <g transform="matrix(1 0 0 1 -1333 -221 )">
    <path d="M 6 3  L 6 2  L 16 2  L 16 3  L 6 3  Z M 6 9  L 6 8  L 16 8  L 16 9  L 6 9  Z M 6 15  L 6 14  L 16 14  L 16 15  L 6 15  Z M 1 13  L 3 13  L 3 15  L 1 15  L 1 13  Z M 4 16  L 4 12  L 0 12  L 0 16  L 4 16  Z M 1 7  L 3 7  L 3 9  L 1 9  L 1 7  Z M 4 10  L 4 6  L 0 6  L 0 10  L 4 10  Z M 1 1  L 3 1  L 3 3  L 1 3  L 1 1  Z M 4 4  L 4 0  L 0 0  L 0 4  L 4 4  Z " fill-rule="nonzero" fill="#ffffff" stroke="none" transform="matrix(1 0 0 1 1333 221 )" />
  </g>
</svg>