<?xml version="1.0" encoding="utf-8"?>
<svg version="1.1" xmlns:xlink="http://www.w3.org/1999/xlink" width="12px" height="13px" xmlns="http://www.w3.org/2000/svg">
  <g transform="matrix(1 0 0 1 -11 -6 )">
    <path d="M 1 6.800000000000012  C 1 4  3.1999999999999993 1.8000000000000114  6 1.8000000000000114  C 8.8 1.8000000000000114  11 4  11 6.800000000000012  C 11 9.600000000000023  8.8 11.800000000000011  6 11.800000000000011  C 3.1999999999999993 11.800000000000011  1 9.600000000000023  1 6.800000000000012  Z M 6 0.8000000000000114  C 2.6999999999999993 0.8000000000000114  0 3.5  0 6.800000000000012  C 0 10.100000000000023  2.6999999999999993 12.800000000000011  6 12.800000000000011  C 9.3 12.800000000000011  12 10.100000000000023  12 6.800000000000012  C 12 3.5  9.3 0.8000000000000114  6 0.8000000000000114  Z " fill-rule="nonzero" fill="#777677" stroke="none" transform="matrix(1 0 0 1 11 6 )" />
  </g>
</svg>