<?xml version="1.0" encoding="utf-8"?>
<svg version="1.1" xmlns:xlink="http://www.w3.org/1999/xlink" width="16px" height="16px" xmlns="http://www.w3.org/2000/svg">
  <g transform="matrix(1 0 0 1 -762 -221 )">
    <path d="M 12 7.0040000000000004  L 12 8.997333333333334  L 8.999333333333333 8.997333333333334  L 8.999333333333333 11.986666666666666  L 6.9993333333333325 11.986666666666666  L 6.9993333333333325 8.997333333333334  L 4 8.997333333333334  L 4 7.0040000000000004  L 7 7.0040000000000004  L 7 4.014  L 9.000666666666666 4.014  L 9.000666666666666 7.0040000000000004  L 12 7.0040000000000004  Z M 16 2.0206666666666666  C 15.994 0.9193333333333334  15.101333333333335 0.02933333333333336  14 0  L 2 0  C 0.8986666666666667 0.028666666666666663  0.005333333333333333 0.9193333333333333  0 2.0206666666666666  L 0 13.980666666666666  C 0.005333333333333333 15.080666666666666  0.8986666666666667 15.971333333333334  2 16  L 14 16  C 15.100666666666667 15.971333333333334  15.994 15.080666666666666  16 13.980666666666666  L 16 2.0206666666666666  Z " fill-rule="nonzero" fill="#c0bfc0" stroke="none" transform="matrix(1 0 0 1 762 221 )" />
  </g>
</svg>