<?xml version="1.0" encoding="utf-8"?>
<svg version="1.1" xmlns:xlink="http://www.w3.org/1999/xlink" width="12px" height="16px" xmlns="http://www.w3.org/2000/svg">
  <g transform="matrix(1 0 0 1 -435 -263 )">
    <path d="M 9.900000000000002 12.999999999999998  C 9.100000000000001 13.899999999999999  7.8000000000000025 14.399999999999999  6.4 14.4  C 3.8000000000000007 14.4  1.7000000000000002 12.4  1.7000000000000002 10  C 1.7000000000000002 7.5  3.7 5.6  6.300000000000001 5.6  L 9.600000000000001 5.6  L 6.600000000000001 8.6  L 7.500000000000002 9.5  L 12 5  L 7.6 0.6  L 6.699999999999999 1.4  L 9.7 4.4  L 6.300000000000001 4.4  C 3.1000000000000005 4.4  0.5000000000000009 6.9  0.5000000000000009 10  C 0.5000000000000009 13.1  3.1000000000000014 15.6  6.400000000000002 15.6  C 8.100000000000001 15.6  9.800000000000002 14.9  10.800000000000002 13.799999999999999  L 9.900000000000002 12.999999999999998  Z " fill-rule="nonzero" fill="#959494" stroke="none" transform="matrix(1 0 0 1 435 263 )" />
  </g>
</svg>