<?xml version="1.0" encoding="utf-8"?>
<svg version="1.1" xmlns:xlink="http://www.w3.org/1999/xlink" width="24px" height="24px" xmlns="http://www.w3.org/2000/svg">
  <g transform="matrix(1 0 0 1 -1232 -714 )">
    <path d="M 24 12  C 24 5.370967741935483  18.629032258064516 0  12 0  C 5.370967741935483 0  0 5.370967741935483  0 12  C 0 18.629032258064516  5.370967741935483 24  12 24  C 18.629032258064516 24  24 18.629032258064516  24 12  Z M 21.677419354838705 12  C 21.677419354838705 17.34677419354838  17.34677419354838 21.677419354838705  12 21.677419354838705  C 6.653225806451619 21.677419354838705  2.3225806451612927 17.34677419354838  2.3225806451612927 12  C 2.3225806451612927 6.653225806451619  6.653225806451619 2.3225806451612927  12 2.3225806451612927  C 17.34677419354838 2.3225806451612927  21.677419354838705 6.653225806451619  21.677419354838705 12  Z M 15.803225806451618 16.5  C 15.614516129032259 16.756451612903223  15.251612903225809 16.81451612903226  14.990322580645156 16.6258064516129  L 10.882258064516137 13.640322580645169  C 10.732258064516136 13.529032258064516  10.645161290322584 13.354838709677416  10.645161290322584 13.170967741935481  L 10.645161290322584 5.225806451612898  C 10.645161290322584 4.906451612903225  10.906451612903224 4.645161290322585  11.225806451612899 4.645161290322585  L 12.774193548387101 4.645161290322585  C 13.093548387096776 4.645161290322585  13.354838709677416 4.906451612903225  13.354838709677416 5.225806451612898  L 13.354838709677416 12.082258064516136  L 16.58709677419355 14.433870967741932  C 16.84838709677419 14.622580645161293  16.90161290322581 14.985483870967741  16.71290322580645 15.246774193548394  L 15.803225806451618 16.5  Z " fill-rule="nonzero" fill="#797979" stroke="none" transform="matrix(1 0 0 1 1232 714 )" />
  </g>
</svg>