<?xml version="1.0" encoding="utf-8"?>
<svg version="1.1" xmlns:xlink="http://www.w3.org/1999/xlink" width="25px" height="21px" xmlns="http://www.w3.org/2000/svg">
  <g transform="matrix(1 0 0 1 -280 -187 )">
    <path d="M 6.666666666666667 7.499999999999999  C 6.666666666666667 8.5859375  7.018229166666666 9.5859375  7.721354166666666 10.5  C 6.315104166666667 10.5390625  5.164930555555556 11.039062499999998  4.270833333333333 12  L 2.5260416666666665 12  C 1.814236111111111 12  1.215277777777778 11.841796875  0.7291666666666666 11.525390625  C 0.24305555555555552 11.208984375  0 10.74609375  0 10.136718750000002  C 0 7.378906249999998  0.5381944444444443 6  1.6145833333333335 6  C 1.6666666666666667 6  1.85546875 6.08203125  2.180989583333333 6.24609375  C 2.506510416666667 6.41015625  2.9296875 6.576171874999999  3.4505208333333335 6.744140625000001  C 3.9713541666666665 6.912109375  4.487847222222222 6.996093749999999  5 6.996093749999999  C 5.581597222222222 6.996093749999999  6.158854166666667 6.906249999999999  6.731770833333334 6.7265625  C 6.688368055555556 7.015624999999997  6.666666666666667 7.273437499999999  6.666666666666667 7.499999999999999  Z M 21.62109375 16.751953125  C 21.651475694444446 17.146484375  21.666666666666668 17.55078125  21.666666666666668 17.96484375  C 21.666666666666668 18.90234375  21.34982638888889 19.642578125  20.716145833333332 20.185546875  C 20.082465277777782 20.728515625  19.24045138888889 21  18.190104166666668 21  L 6.809895833333333 21  C 5.759548611111112 21  4.917534722222223 20.728515625  4.283854166666667 20.185546875  C 3.650173611111111 19.642578125  3.3333333333333335 18.90234375  3.3333333333333335 17.96484375  C 3.3333333333333335 17.55078125  3.348524305555556 17.146484375  3.37890625 16.751953125  C 3.409288194444445 16.357421875  3.470052083333333 15.931640625  3.561197916666667 15.474609375  C 3.65234375 15.017578124999998  3.7673611111111116 14.59375  3.90625 14.203125  C 4.045138888888889 13.812499999999998  4.231770833333334 13.431640624999998  4.466145833333333 13.060546875  C 4.700520833333333 12.689453124999998  4.969618055555556 12.373046874999998  5.2734375 12.111328125  C 5.577256944444445 11.849609375  5.9483506944444455 11.640625  6.386718750000001 11.484375  C 6.825086805555556 11.328124999999998  7.309027777777779 11.25  7.838541666666667 11.25  C 7.925347222222223 11.25  8.111979166666666 11.333984375  8.3984375 11.501953125  C 8.684895833333334 11.669921875  9.00173611111111 11.857421875  9.348958333333334 12.064453124999998  C 9.696180555555557 12.271484374999998  10.160590277777779 12.458984374999998  10.7421875 12.626953125000002  C 11.323784722222223 12.794921875  11.909722222222223 12.87890625  12.5 12.87890625  C 13.090277777777779 12.87890625  13.676215277777779 12.794921875  14.2578125 12.626953125000002  C 14.839409722222225 12.458984374999998  15.303819444444446 12.271484374999998  15.651041666666668 12.064453124999998  C 15.99826388888889 11.857421875  16.315104166666668 11.669921875  16.6015625 11.501953125  C 16.888020833333332 11.333984375  17.07465277777778 11.25  17.161458333333332 11.25  C 17.69097222222222 11.25  18.174913194444446 11.328124999999998  18.61328125 11.484375  C 19.051649305555557 11.640625  19.422743055555554 11.849609375  19.7265625 12.111328125  C 20.030381944444446 12.373046874999998  20.299479166666668 12.689453124999998  20.533854166666668 13.060546875  C 20.768229166666664 13.431640624999998  20.954861111111114 13.812499999999998  21.09375 14.203125  C 21.232638888888893 14.59375  21.34765625 15.017578124999998  21.438802083333332 15.474609375  C 21.529947916666668 15.931640625  21.590711805555557 16.357421875  21.62109375 16.751953125  Z M 7.356770833333333 0.8789062500000007  C 8.0078125 1.4648437500000004  8.333333333333332 2.1718749999999982  8.333333333333332 3.000000000000001  C 8.333333333333332 3.828124999999999  8.0078125 4.535156249999999  7.356770833333333 5.121093749999999  C 6.705729166666667 5.707031250000001  5.920138888888889 6  5 6  C 4.079861111111112 6  3.2942708333333335 5.707031250000001  2.6432291666666665 5.121093749999999  C 1.9921874999999998 4.535156249999999  1.6666666666666667 3.828124999999999  1.6666666666666667 3.000000000000001  C 1.6666666666666667 2.1718749999999982  1.9921874999999998 1.4648437500000004  2.6432291666666665 0.8789062500000007  C 3.2942708333333335 0.292968750000001  4.079861111111112 0  5 0  C 5.920138888888889 0  6.705729166666667 0.292968750000001  7.356770833333333 0.8789062500000007  Z M 16.03515625 4.318359375  C 17.01171875 5.197265625  17.5 6.257812499999999  17.5 7.499999999999999  C 17.5 8.742187500000002  17.01171875 9.802734375  16.03515625 10.681640625  C 15.058593749999998 11.560546875000002  13.880208333333332 12  12.5 12  C 11.11979166666667 12  9.941406250000002 11.560546875000002  8.96484375 10.681640625  C 7.98828125 9.802734375  7.5 8.742187500000002  7.5 7.499999999999999  C 7.5 6.257812499999999  7.98828125 5.197265625  8.96484375 4.318359375  C 9.941406250000002 3.439453124999999  11.11979166666667 3.000000000000001  12.5 3.000000000000001  C 13.880208333333332 3.000000000000001  15.058593749999998 3.439453124999999  16.03515625 4.318359375  Z M 23.385416666666668 6  C 24.46180555555556 6  25.000000000000007 7.378906249999998  25 10.136718750000002  C 25.000000000000007 10.74609375  24.756944444444446 11.208984375  24.270833333333332 11.525390625  C 23.784722222222225 11.841796875  23.185763888888893 12  22.473958333333332 12  L 20.729166666666668 12  C 19.835069444444446 11.039062499999998  18.684895833333336 10.5390625  17.278645833333332 10.5  C 17.981770833333332 9.5859375  18.333333333333332 8.5859375  18.333333333333332 7.499999999999999  C 18.333333333333332 7.273437499999999  18.311631944444446 7.015624999999997  18.268229166666668 6.7265625  C 18.841145833333332 6.906249999999999  19.41840277777778 6.996093749999999  20 6.996093749999999  C 20.51215277777778 6.996093749999999  21.028645833333336 6.912109375  21.549479166666664 6.744140625000001  C 22.0703125 6.576171874999999  22.493489583333336 6.41015625  22.819010416666664 6.24609375  C 23.14453125 6.08203125  23.333333333333332 6  23.385416666666668 6  Z M 22.356770833333332 0.8789062500000007  C 23.0078125 1.4648437500000004  23.333333333333332 2.1718749999999982  23.333333333333332 3.000000000000001  C 23.333333333333332 3.828124999999999  23.0078125 4.535156249999999  22.356770833333332 5.121093749999999  C 21.705729166666668 5.707031250000001  20.92013888888889 6  20 6  C 19.079861111111114 6  18.294270833333336 5.707031250000001  17.643229166666664 5.121093749999999  C 16.9921875 4.535156249999999  16.666666666666664 3.828124999999999  16.666666666666664 3.000000000000001  C 16.666666666666664 2.1718749999999982  16.9921875 1.4648437500000004  17.643229166666664 0.8789062500000007  C 18.294270833333336 0.292968750000001  19.079861111111114 0  20 0  C 20.92013888888889 0  21.705729166666668 0.292968750000001  22.356770833333332 0.8789062500000007  Z " fill-rule="nonzero" fill="#000000" stroke="none" transform="matrix(1 0 0 1 280 187 )" />
  </g>
</svg>