<?xml version="1.0" encoding="utf-8"?>
<svg version="1.1" xmlns:xlink="http://www.w3.org/1999/xlink" width="20px" height="16px" xmlns="http://www.w3.org/2000/svg">
  <g>
    <path d="M 10.1875 14.335548172757479  C 15.558035714285712 14.331395348837209  20 11.602990033222595  20 7.981727574750821  C 20 4.3604651162790695  15.553571428571422 1.6154485049833796  10.1875 1.6154485049833796  C 9.348214285714288 1.6154485049833796  8.522321428571422 1.6818936877076383  7.71875 1.8147840531561552  C 7.223214285714289 1.3787375415282483  6.638392857142867 0.984219269102987  6.022321428571422 0.6769102990033283  C 2.732142857142867 -0.8222591362126306  0 0.6395348837209303  0 0.6395348837209303  C 0 0.6395348837209303  2.540178571428578 2.595514950166119  2.125 4.306478405315618  C -0.20982142857142205 6.478405315614615  -0.21875 9.460132890365436  2.125 11.640365448504971  C 2.540178571428578 13.35548172757476  0 15.30730897009968  0 15.30730897009968  C 0 15.30730897009968  2.732142857142867 16.76910299003322  6.022321428571422 15.27408637873755  C 6.638392857142867 14.962624584717602  7.223214285714289 14.572259136212631  7.71875 14.136212624584724  C 8.522321428571422 14.26910299003322  9.348214285714288 14.335548172757479  10.1875 14.335548172757479  Z M 18.785714285714292 7.990033222591359  C 18.785714285714292 10.8264119601329  14.9375 13.131229235880392  10.19196428571429 13.131229235880392  C 9.133928571428578 13.131229235880392  8.125 13.014950166112952  7.1875 12.807308970099658  C 6.2366071428571335 13.878737541528249  4.147321428571422 15.369601328903649  2.116071428571422 14.887873754152826  C 2.776785714285711 14.223421926910305  3.754464285714289 13.098006644518263  3.5446428571428665 11.25  C 2.325892857142867 10.361295681063131  1.598214285714289 9.227574750830552  1.598214285714289 7.990033222591359  C 1.598214285714289 5.149501661129571  5.446428571428577 2.844684385382057  10.19196428571429 2.844684385382057  C 14.9375 2.844684385382057  18.785714285714292 5.149501661129571  18.785714285714292 7.990033222591359  Z M 10.19196428571429 6.914451827242522  C 10.821428571428577 6.914451827242522  11.334821428571422 7.396179401993344  11.334821428571422 7.985880398671091  C 11.334821428571422 8.575581395348838  10.821428571428577 9.057308970099658  10.19196428571429 9.057308970099658  C 9.5625 9.057308970099658  9.049107142857133 8.579734219269106  9.049107142857133 7.985880398671091  C 9.049107142857133 7.396179401993344  9.5625 6.914451827242522  10.19196428571429 6.914451827242522  Z M 14.160714285714288 6.914451827242522  C 14.790178571428578 6.914451827242522  15.303571428571423 7.396179401993344  15.303571428571423 7.985880398671091  C 15.303571428571423 8.575581395348838  14.794642857142868 9.057308970099658  14.160714285714288 9.057308970099658  C 13.53125 9.057308970099658  13.017857142857132 8.579734219269106  13.017857142857132 7.985880398671091  C 13.017857142857132 7.396179401993344  13.526785714285712 6.914451827242522  14.160714285714288 6.914451827242522  Z M 6.21875 6.914451827242522  C 6.852678571428577 6.914451827242522  7.361607142857133 7.396179401993344  7.361607142857133 7.985880398671091  C 7.361607142857133 8.575581395348838  6.852678571428577 9.057308970099658  6.21875 9.057308970099658  C 5.589285714285711 9.057308970099658  5.075892857142867 8.579734219269106  5.075892857142867 7.985880398671091  C 5.075892857142867 7.396179401993344  5.584821428571423 6.914451827242522  6.21875 6.914451827242522  Z " fill-rule="nonzero" fill="#c2c2c2" stroke="none" />
  </g>
</svg>