<?xml version="1.0" encoding="utf-8"?>
<svg version="1.1" xmlns:xlink="http://www.w3.org/1999/xlink" width="50px" height="39px" xmlns="http://www.w3.org/2000/svg">
  <g transform="matrix(1 0 0 1 -14 -6 )">
    <path d="M 10.5712890625 26.154375  C 11.336263020833334 25.390624999999993  11.718750000000002 24.472499999999997  11.71875 23.4  C 11.718750000000002 22.3275  11.336263020833334 21.409374999999997  10.5712890625 20.645624999999995  C 9.806315104166668 19.881875  8.88671875 19.5  7.8125 19.5  C 6.73828125 19.5  5.818684895833334 19.881875  5.0537109375 20.645624999999995  C 4.288736979166667 21.409374999999997  3.90625 22.3275  3.90625 23.4  C 3.90625 24.472499999999997  4.288736979166667 25.390624999999993  5.0537109375 26.154375  C 5.818684895833334 26.918125  6.73828125 27.299999999999997  7.8125 27.299999999999997  C 8.88671875 27.299999999999997  9.806315104166668 26.918125  10.5712890625 26.154375  Z M 14.7705078125 6.898125  L 12.59765625 16  L 37.40234375 16  L 35.2294921875 6.898125  C 35.19694010416667 6.768124999999997  35.0830078125 6.6259374999999965  34.8876953125 6.471562499999998  C 34.6923828125 6.317187499999996  34.521484375 6.240000000000001  34.375 7  L 15.625 7  C 15.478515625 6.240000000000001  15.3076171875 6.317187499999996  15.1123046875 6.471562499999998  C 14.9169921875 6.6259374999999965  14.803059895833334 6.768124999999997  14.7705078125 6.898125  Z M 44.9462890625 26.154375  C 45.711263020833336 25.390624999999993  46.09375 24.472499999999997  46.09375 23.4  C 46.09375 22.3275  45.711263020833336 21.409374999999997  44.9462890625 20.645624999999995  C 44.18131510416667 19.881875  43.26171875000001 19.5  42.1875 19.5  C 41.11328125000001 19.5  40.193684895833336 19.881875  39.4287109375 20.645624999999995  C 38.66373697916667 21.409374999999997  38.28125 22.3275  38.28125 23.4  C 38.28125 24.472499999999997  38.66373697916667 25.390624999999993  39.4287109375 26.154375  C 40.193684895833336 26.918125  41.11328125000001 27.299999999999997  42.1875 27.299999999999997  C 43.26171875000001 27.299999999999997  44.18131510416667 26.918125  44.9462890625 26.154375  Z M 48.40087890625 17.1965625  C 49.46695963541667 18.2609375  50 19.54875  50 21.060000000000002  L 50 30.42  C 50 30.647499999999997  49.9267578125 30.834375  49.7802734375 30.980625000000003  C 49.6337890625 31.126875  49.446614583333336 31.200000000000003  49.21875 31.200000000000003  L 46.875 31.200000000000003  L 46.875 34.32  C 46.87500000000001 35.62  46.419270833333336 36.725  45.5078125 37.635  C 44.59635416666667 38.545  43.489583333333336 39  42.1875 39  C 40.88541666666667 39  39.778645833333336 38.545  38.8671875 37.635  C 37.955729166666664 36.725  37.5 35.62  37.5 34.32  L 37.5 31  L 12.5 31  L 12.5 34.32  C 12.5 35.62  12.044270833333334 36.725  11.1328125 37.635  C 10.221354166666668 38.545  9.114583333333334 39  7.8125 39  C 6.510416666666667 39  5.403645833333334 38.545  4.4921875 37.635  C 3.580729166666667 36.725  3.125 35.62  3.125 34.32  L 3.125 31.200000000000003  L 0.78125 31.200000000000003  C 0.5533854166666667 31.200000000000003  0.36621093750000006 31.126875  0.2197265625 30.980625000000003  C 0.0732421875 30.834375  0 30.647499999999997  0 30.42  L 0 21.060000000000002  C 0 19.54875  0.5330403645833333 18.2609375  1.59912109375 17.1965625  C 2.665201822916667 16.1321875  3.955078125 15.600000000000001  5.46875 15.600000000000001  L 6.15234375 15.600000000000001  L 8.7158203125 5.386875000000002  C 9.090169270833334 3.8593749999999973  9.9365234375 2.5796874999999964  11.2548828125 1.5478124999999996  C 12.5732421875 0.5159374999999984  14.029947916666668 0  15.625 0  L 34.375 0  C 35.970052083333336 0  37.4267578125 0.5159374999999984  38.7451171875 1.5478124999999996  C 40.06347656250001 2.5796874999999964  40.90983072916667 3.8593749999999973  41.2841796875 5.386875000000002  L 43.84765625 15.600000000000001  L 44.53125 15.600000000000001  C 46.04492187500001 15.600000000000001  47.334798177083336 16.1321875  48.40087890625 17.1965625  Z " fill-rule="nonzero" fill="#f05f40" stroke="none" transform="matrix(1 0 0 1 14 6 )" />
  </g>
</svg>