<?xml version="1.0" encoding="utf-8"?>
<svg version="1.1" xmlns:xlink="http://www.w3.org/1999/xlink" width="27px" height="33px" xmlns="http://www.w3.org/2000/svg">
  <g transform="matrix(1 0 0 1 -21 -71 )">
    <path d="M 13.423295454545453 0  C 20.834093128551146 0  26.846590909090907 2.1177363281250075  26.846590909090907 4.714294921874993  L 26.846590909090907 7.660705078125007  C 26.846590909090907 10.257263671874993  20.834093128551146 12.375  13.423295454545453 12.375  C 6.012497780539766 12.375  0 10.257263671874993  0 7.660705078125007  L 0 4.714294921874993  C 0 2.1177363281250075  6.012497780539766 0  13.423295454545453 0  Z M 13.423295454545453 14.474367187500008  C 18.684268465909096 14.474367187500008  23.962619850852267 13.479919921874993  26.846590909090907 11.34375  L 26.846590909090907 17.97320507812501  C 26.846590909090907 20.56976367187499  20.834093128551146 22.6875  13.423295454545453 22.6875  C 6.012497780539766 22.6875  0 20.56976367187499  0 17.97320507812501  L 0 11.34375  C 2.8839111328125 13.479919921874993  8.16232244318181 14.474367187500008  13.423295454545453 14.474367187500008  Z M 13.423295454545453 24.786867187500008  C 18.684268465909096 24.786867187500008  23.962619850852267 23.79241992187499  26.846590909090907 21.65625  L 26.846590909090907 28.28570507812501  C 26.846590909090907 30.88226367187499  20.834093128551146 33  13.423295454545453 33  C 6.012497780539766 33  0 30.88226367187499  0 28.28570507812501  L 0 21.65625  C 2.8839111328125 23.79241992187499  8.16232244318181 24.786867187500008  13.423295454545453 24.786867187500008  Z " fill-rule="nonzero" fill="#f05f40" stroke="none" transform="matrix(1 0 0 1 21 71 )" />
  </g>
</svg>