<?xml version="1.0" encoding="utf-8"?>
<svg version="1.1" xmlns:xlink="http://www.w3.org/1999/xlink" width="15px" height="13px" xmlns="http://www.w3.org/2000/svg">
  <g>
    <path d="M 14.495192307692308 4.660995589161941  C 14.83173076923077 4.710144927536232  15 4.835748792270532  15 5.03780718336484  C 15 5.157950010501994  14.921875000000002 5.289014912833437  14.765625 5.431001890359168  L 11.493389423076923 8.330812854442344  L 12.268629807692308 12.426591052299937  C 12.274639423076923 12.464818315479942  12.277644230769232 12.519428691451374  12.277644230769232 12.59042218021424  C 12.277644230769232 12.705103969754253  12.24609375 12.80203738710355  12.182992788461538 12.88122243226213  C 12.119891826923077 12.960407477420711  12.028245192307693 13  11.908052884615385 13  C 11.793870192307693 13  11.673677884615385 12.967233774417139  11.547475961538462 12.901701323251418  L 7.5 10.968494013862633  L 3.4525240384615383 12.901701323251418  C 3.3203125000000004 12.967233774417139  3.200120192307692 13  3.0919471153846154 13  C 2.965745192307692 13  2.87109375 12.960407477420711  2.8079927884615383 12.88122243226213  C 2.744891826923077 12.80203738710355  2.7133413461538463 12.705103969754253  2.7133413461538463 12.59042218021424  C 2.7133413461538463 12.55765595463138  2.7193509615384617 12.503045578659945  2.731370192307692 12.426591052299937  L 3.506610576923077 8.330812854442344  L 0.22536057692307693 5.431001890359168  C 0.0751201923076923 5.2835538752362945  0 5.152488972904853  0 5.03780718336484  C 0 4.835748792270532  0.16826923076923075 4.710144927536232  0.5048076923076923 4.660995589161941  L 5.030048076923077 4.063011972274731  L 7.058293269230769 0.335853812224322  C 7.172475961538463 0.11195127074144018  7.319711538461538 0  7.5 0  C 7.680288461538461 0  7.827524038461538 0.11195127074144018  7.941706730769232 0.335853812224322  L 9.969951923076923 4.063011972274731  L 14.495192307692308 4.660995589161941  Z " fill-rule="nonzero" fill="#808080" stroke="none" />
  </g>
</svg>