<?xml version="1.0" encoding="utf-8"?>
<svg version="1.1" xmlns:xlink="http://www.w3.org/1999/xlink" width="15px" height="14px" xmlns="http://www.w3.org/2000/svg">
  <g transform="matrix(1 0 0 1 -60 0 )">
    <path d="M 14.495192307692308 5.019533711405167  C 14.83173076923077 5.072463768115943  15 5.207729468599034  15 5.425330812854443  C 15 5.554715395925225  14.921875000000002 5.695862213820624  14.765625 5.848771266540643  L 11.493389423076923 8.971644612476371  L 12.268629807692308 13.382482671707624  C 12.274639423076923 13.423650493593783  12.277644230769232 13.482461667716866  12.277644230769232 13.558916194076875  C 12.277644230769232 13.68241965973535  12.24609375 13.786809493803823  12.182992788461538 13.872085696282292  C 12.119891826923077 13.957361898760764  12.028245192307693 14  11.908052884615385 14  C 11.793870192307693 14  11.673677884615385 13.96471329552615  11.547475961538462 13.89413988657845  L 7.5 11.812224322621299  L 3.4525240384615383 13.89413988657845  C 3.3203125000000004 13.96471329552615  3.200120192307692 14  3.0919471153846154 14  C 2.965745192307692 14  2.87109375 13.957361898760764  2.8079927884615383 13.872085696282292  C 2.744891826923077 13.786809493803823  2.7133413461538463 13.68241965973535  2.7133413461538463 13.558916194076875  C 2.7133413461538463 13.523629489603024  2.7193509615384617 13.46481831547994  2.731370192307692 13.382482671707624  L 3.506610576923077 8.971644612476371  L 0.22536057692307693 5.848771266540643  C 0.0751201923076923 5.689981096408317  0 5.548834278512918  0 5.425330812854443  C 0 5.207729468599034  0.16826923076923075 5.072463768115943  0.5048076923076923 5.019533711405167  L 5.030048076923077 4.375551354757404  L 7.058293269230769 0.36168872085696213  C 7.172475961538463 0.12056290695232019  7.319711538461538 0  7.5 0  C 7.680288461538461 0  7.827524038461538 0.12056290695232019  7.941706730769232 0.36168872085696213  L 9.969951923076923 4.375551354757404  L 14.495192307692308 5.019533711405167  Z " fill-rule="nonzero" fill="#808080" stroke="none" transform="matrix(1 0 0 1 60 0 )" />
  </g>
</svg>