<?xml version="1.0" encoding="utf-8"?>
<svg version="1.1" xmlns:xlink="http://www.w3.org/1999/xlink" width="15px" height="13px" xmlns="http://www.w3.org/2000/svg">
  <g transform="matrix(1 0 0 1 -80 0 )">
    <path d="M 10.249399038461538 7.962192816635161  L 10.691105769230768 7.5771896660365465  L 13.0078125 5.52930056710775  L 9.798677884615385 5.103339634530561  L 9.203725961538462 5.021424070573409  L 8.933293269230768 4.529930686830498  L 7.5 1.8922495274102071  L 7.5 9.78071833648393  L 8.031850961538462 10.034656584751103  L 10.8984375 11.410838059231255  L 10.357572115384615 8.502835538752363  L 10.249399038461538 7.962192816635161  Z M 14.981971153846153 4.943604284814115  C 15.036057692307693 5.093782818735559  14.96394230769231 5.256248687250577  14.765625 5.431001890359168  L 11.493389423076923 8.330812854442344  L 12.268629807692308 12.426591052299937  C 12.298677884615385 12.60680529300567  12.28064903846154 12.747427011132116  12.214543269230768 12.848456206679268  C 12.1484375 12.949485402226422  12.04627403846154 13  11.908052884615385 13  C 11.805889423076923 13  11.685697115384617 12.967233774417139  11.547475961538462 12.901701323251418  L 7.5 10.968494013862633  L 3.4525240384615383 12.901701323251418  C 3.314302884615385 12.967233774417139  3.194110576923077 13  3.0919471153846154 13  C 2.9537259615384617 13  2.8515625000000004 12.949485402226422  2.785456730769231 12.848456206679268  C 2.7193509615384617 12.747427011132116  2.7013221153846154 12.60680529300567  2.731370192307692 12.426591052299937  L 3.506610576923077 8.330812854442344  L 0.22536057692307693 5.431001890359168  C 0.0330528846153846 5.256248687250577  -0.03605769230769231 5.093782818735559  0.018028846153846156 4.943604284814115  C 0.07211538461538462 4.793425750892669  0.234375 4.699222852341945  0.5048076923076923 4.660995589161941  L 5.030048076923077 4.063011972274731  L 7.058293269230769 0.335853812224322  C 7.1784855769230775 0.11195127074144018  7.325721153846154 0  7.5 0  C 7.668269230769232 0  7.8155048076923075 0.11195127074144018  7.941706730769232 0.335853812224322  L 9.969951923076923 4.063011972274731  L 14.495192307692308 4.660995589161941  C 14.765625000000002 4.699222852341945  14.927884615384617 4.793425750892669  14.981971153846153 4.943604284814115  Z " fill-rule="nonzero" fill="#808080" stroke="none" transform="matrix(1 0 0 1 80 0 )" />
  </g>
</svg>